<svg xmlns="http://www.w3.org/2000/svg" width="22.499" height="29.967" viewBox="0 0 22.499 29.967">
  <g id="click" transform="translate(-0.284)">
    <path id="Trazado_402" data-name="Trazado 402" d="M20.362,44.939H20.32a2.311,2.311,0,0,0-1.558.592,2.429,2.429,0,0,0-2.256-1.646,2.34,2.34,0,0,0-1.672.719A2.4,2.4,0,0,0,12.7,43.238h-.045a2.194,2.194,0,0,0-1.376.458v-5.8a2.491,2.491,0,0,0-2.421-2.544A2.487,2.487,0,0,0,6.443,37.89L6.432,49.407l-.652-.792A3.287,3.287,0,0,0,3.457,47.4a3.235,3.235,0,0,0-2.423.858l-.567.47a.5.5,0,0,0-.126.621l5.514,10.6a5.685,5.685,0,0,0,5.006,3.145h6.214v-.005a5.917,5.917,0,0,0,5.708-6.091c0-1.5,0-2.621,0-3.529,0-2.427,0-3.323-.005-6A2.475,2.475,0,0,0,20.362,44.939Zm1.4,8.519c0,.908,0,2.031,0,3.533a4.922,4.922,0,0,1-4.715,5.087H10.861a4.681,4.681,0,0,1-4.112-2.6L1.424,49.241l.263-.219L1.706,49a2.238,2.238,0,0,1,1.68-.6A2.288,2.288,0,0,1,5,49.256l1.543,1.878a.5.5,0,0,0,.893-.319L7.445,37.89a1.484,1.484,0,0,1,1.412-1.535,1.484,1.484,0,0,1,1.412,1.536v7.792c0,.027,0,.054,0,.082,0,.012,0,.024,0,.035v3.332a.5.5,0,1,0,1.008,0V45.7a1.413,1.413,0,0,1,1.376-1.454H12.7a1.472,1.472,0,0,1,1.415,1.52v3.048a.5.5,0,0,0,1.008,0V46.423a1.394,1.394,0,1,1,2.773,0v2.256a.5.5,0,0,0,1.008,0V47.457a1.465,1.465,0,0,1,1.418-1.51h.042a1.463,1.463,0,0,1,1.4,1.518C21.769,50.138,21.767,51.033,21.764,53.459Zm0,0" transform="translate(0 -33.12)" fill="#000000"/>
    <path id="Trazado_403" data-name="Trazado 403" d="M65.113,4.989a.5.5,0,0,0,.5-.5,3.493,3.493,0,0,1,6.987,0,.5.5,0,1,0,1.008,0,4.5,4.5,0,0,0-9,0A.5.5,0,0,0,65.113,4.989Zm0,0" transform="translate(-60.272 0)" fill="#000000"/>
  </g>
</svg>
