<svg xmlns="http://www.w3.org/2000/svg" width="576.98" height="669.781" viewBox="0 0 576.98 669.781">
  <g id="Grupo_760" data-name="Grupo 760" transform="translate(-2123 -196)" opacity="0.379">
    <path id="Trazado_396" data-name="Trazado 396" d="M11572.49,4486.721a290.7,290.7,0,0,1-58.143-5.86,286.937,286.937,0,0,1-103.156-43.408,289.338,289.338,0,0,1-104.52-126.927,287,287,0,0,1-16.811-54.153,291.29,291.29,0,0,1,0-116.281,286.952,286.952,0,0,1,43.408-103.156,290.074,290.074,0,0,1,75.492-76.265c.662-.457-6.539-9.939-5.652-10.538,1.621-1.095,11.334,6.707,13.207,5.5a287.561,287.561,0,0,1,43.881-23.217c.32-.136.4-7.45-8.437-11.7-29.008.828-56.9,10.3-109.666-65.4,81.578,45.85,151.461,60.222,111.309-28.083,3.164-1.214,50.82,27.688,23.709,83.006,2.49,8.477,4.566,14.091,5.709,13.717a285.5,285.5,0,0,1,31.527-8.352c6.578-1.346,13.221-2.461,20.166-3.38.855-.114,1.83-8.93,3.025-9.076.9-.111,2.035,8.452,3.4,8.3a292.226,292.226,0,0,1,64.885.2c.609.069,3.4.408,4.275.521,6.588.847,13.6,2.011,20.535,3.431a288.106,288.106,0,0,1,32.184,8.566s-3.576,5.075,2.2-16.772c-8.033-21.916-24.242-42.208,28.547-83.446-8.639,19.776-44,125.855,110.252,33.28-68.455,100.148-107.428,49.385-108.572,62.1-.75,8.334-11.088,12.817-10.457,13.083a289.3,289.3,0,0,1,44.232,23.443c1.43.922,11.2-5.957,12.861-4.832.748.505-6.592,9-5.627,9.668a289.31,289.31,0,0,1,102.061,125.248,287.186,287.186,0,0,1,16.811,54.152,291.385,291.385,0,0,1,0,116.281,286.924,286.924,0,0,1-43.408,103.156,289.323,289.323,0,0,1-126.93,104.522,287.025,287.025,0,0,1-54.15,16.81A290.683,290.683,0,0,1,11572.49,4486.721Zm0-564.877a280.958,280.958,0,0,0-30.84,1.709c-.928.1-2.758-10.485-4.111-10.321-.848.1-1.23,10.961-2.443,11.123-5.973.8-12.172,1.848-18.309,3.1a276.109,276.109,0,0,0-30.5,8.1c-1.664.543,3.291,14.85-5.105-26.27,19.629-51.761-23.2-79.815-25.189-79.073,36.66,90.333-51.937,69.951-108.176,29.545,39.293,72.23,81.35,61.33,105.586,58.625,7.092,13.593,12.086,24.936,11.506,25.181a277.282,277.282,0,0,0-35.525,18.168c-2.254,1.363-17.549-9.339-20.152-7.653-1.236.8,10.227,13.958,8.73,14.968a277.191,277.191,0,0,0-100.137,121.6,275.045,275.045,0,0,0-16.105,51.881,279.176,279.176,0,0,0,0,111.4,274.9,274.9,0,0,0,41.588,98.828,277.2,277.2,0,0,0,121.6,100.136,275.087,275.087,0,0,0,51.879,16.1,279.133,279.133,0,0,0,111.4,0,274.859,274.859,0,0,0,98.828-41.587,277.173,277.173,0,0,0,100.139-121.6,274.977,274.977,0,0,0,16.105-51.88,279.176,279.176,0,0,0,0-111.4,274.9,274.9,0,0,0-41.588-98.829,277.9,277.9,0,0,0-74.656-74.654c-1.25-.845,11.711-13.837,10.174-14.84-1.861-1.211-18.256,9.57-20.551,8.163a275.245,275.245,0,0,0-36.57-18.806c-.756-.319,9.451-10.356,11.182-25.295,1.563-13.49,45.047,37.129,105.355-57.73-160.992,91.978-112.111-23.2-105.355-30.308-54.252,46.7-31.477,55.08-22.34,79.093-4.127,15.43-7.658,27.082-9.121,26.594a273.679,273.679,0,0,0-31.6-8.46c-5.408-1.106-10.863-2.051-16.615-2.871-1.287-.182-1.15-7.566-2.809-7.777-.816-.1-3.412,6.965-4.648,6.822A278.687,278.687,0,0,0,11572.49,3921.844Z" transform="translate(-9161 -3620.939)" fill="#fff"/>
    <g id="Grupo_675" data-name="Grupo 675" transform="translate(2255.8 627.015)">
      <g id="Grupo_650" data-name="Grupo 650" transform="translate(0 49.781)">
        <path id="Sustracción_12" data-name="Sustracción 12" d="M81.243,35.35a21.184,21.184,0,0,1-6.257-1.057c-5.572-1.719-6.96-3.263-8.716-5.218-2-2.222-4.482-4.987-13.829-9.284-4.133-1.9-9.536-2.864-16.058-2.864a112.189,112.189,0,0,0-24.626,3.308C4.878,21.872.048,23.527,0,23.543l.02-.018A159.913,159.913,0,0,1,18.243,11.772,117.555,117.555,0,0,1,35.951,3.679,58.029,58.029,0,0,1,54.851,0a32.953,32.953,0,0,1,6.526.623A97.644,97.644,0,0,1,78.266,6.068,13.768,13.768,0,0,1,82.58,9.259a28.586,28.586,0,0,1,4.368,5.985c-10.636-5.075-18.9-8.477-24.569-10.11A32.452,32.452,0,0,0,53.4,3.93,47.053,47.053,0,0,0,42.163,5.4a67.186,67.186,0,0,0-9.672,3.23,68.626,68.626,0,0,0-9.33,4.7l.016-.006a70.442,70.442,0,0,1,15.15-1.691,48.14,48.14,0,0,1,13.264,1.7c7.147,2.057,10.7,5.321,14.144,8.477,2.932,2.69,5.7,5.23,10.469,6.791a16.578,16.578,0,0,0,5.187.909,18.941,18.941,0,0,0,5.66-1.04l.142-.042a28.717,28.717,0,0,1,3.513-.864,27.11,27.11,0,0,1-.249,6.3,28.006,28.006,0,0,0-3.884.714A22.174,22.174,0,0,1,81.243,35.35Z" transform="translate(0 0)" fill="#fff"/>
      </g>
      <g id="Grupo_651" data-name="Grupo 651" transform="translate(92.479 68.89) rotate(-158)">
        <path id="Sustracción_13" data-name="Sustracción 13" d="M41.341,36.847a40.636,40.636,0,0,1-10.567-1.319C23.966,33.692,15.026,30.021,4.2,24.617c-.4-2.107-.733-3.974-1-5.55,11.4,5.876,20.226,9.911,26.221,11.991a39.789,39.789,0,0,0,13.065,2.092,60.5,60.5,0,0,0,18.9-3.345,59.269,59.269,0,0,0,8.044-3.343l-.021,0a69.784,69.784,0,0,1-9.387.593,72.135,72.135,0,0,1-9.477-.607,53.972,53.972,0,0,1-10.527-2.431c-7.538-2.614-11.443-6.092-15.219-9.456-3.218-2.866-6.258-5.573-11.3-7.5a18.319,18.319,0,0,0-6.645-1.38A22.427,22.427,0,0,0,2.3,6.257l-.1.019c-.27.054-.558.111-.847.165C1.037,4.988.594,3.087,0,.628.838.563,1.642.452,2.42.345A27.741,27.741,0,0,1,6.349,0a23.131,23.131,0,0,1,8.026,1.627c5.883,2.15,7.425,3.77,9.376,5.82C25.97,9.779,28.731,12.68,38.7,17.661,44.6,20.609,52.66,22.1,62.655,22.1a132.638,132.638,0,0,0,20.816-1.8c5.516-.888,9.192-1.787,9.229-1.8l-.02.016a134.944,134.944,0,0,1-16.5,9.151,113.244,113.244,0,0,1-16.51,6.3A66.818,66.818,0,0,1,41.341,36.847Z" transform="translate(0 0)" fill="#fff"/>
      </g>
    </g>
    <path id="Sustracción_9" data-name="Sustracción 9" d="M66.793,151.675h0a270.816,270.816,0,0,1-46.912-12.154C7.85,135.268.077,131.641,0,131.6c.028-.015,3.043-1.665,7.278-8.4A88.175,88.175,0,0,0,14.36,108.76a187.576,187.576,0,0,0,7.584-24.772C27.6,60.415,32.527,25.3,35.667,0c.013,0,.933.145,2.545.385-2.354,3.613-1.715,8.2,1.9,13.63C36.261,41.5,32.514,63.361,28.979,79a248.7,248.7,0,0,1-7.185,25.833,129.47,129.47,0,0,1-6.564,15.927c-3.867,7.68-6.611,10.269-6.638,10.295.3.1,31.6,11.016,59.591,16.167-1.509,1.342-1.977,2.837-1.39,4.446Zm57.38-.435,0,0a4.644,4.644,0,0,0,1.7-3.181,3.075,3.075,0,0,0-1.112-2.208,505.652,505.652,0,0,0,53.12-14.79c-.275-.287-2.736-2.993-6.144-10.3a136.331,136.331,0,0,1-6.091-15.927A266.187,266.187,0,0,1,158.962,79c-3.36-15.916-6.914-38.078-10.565-65.871.313-1.6-.355-3.247-1.985-4.908,3.573-.735,5.731-1.83,6.414-3.258,2.628,23.615,6.832,56.494,11.957,79.022a180.687,180.687,0,0,0,7.329,24.772,85.184,85.184,0,0,0,7.011,14.442c4.2,6.687,7.3,8.386,7.33,8.4a.178.178,0,0,1-.041.023c-1.246.6-7.974,3.78-18.136,7.534a259.174,259.174,0,0,1-44.1,12.079Z" transform="translate(2318.236 640.276)" fill="#fff"/>
    <g id="Grupo_677" data-name="Grupo 677" transform="translate(2249.393 387.655)">
      <g id="Grupo_647" data-name="Grupo 647" transform="translate(0 0)">
        <path id="Sustracción_7" data-name="Sustracción 7" d="M68.007,77.148C56.72,76.851,30,76,25.684,74.565,23,73.67,19.7,70.381,16.139,65.054A120.177,120.177,0,0,1,5.205,43.381,77.535,77.535,0,0,1,.132,20.6C-.381,12.626.615,6.35,2.938,2.924A5.964,5.964,0,0,1,8.023,0c.2,0,.4.009.608.028C12.57.38,24.453,6.519,43.948,18.272c15.882,9.575,32.78,20.455,41.439,26.089L68.007,77.148ZM12.292,9.749A3.957,3.957,0,0,0,8.8,11.49c-1.541,2.273-1.62,6.72-.238,13.218a122.94,122.94,0,0,0,5.953,18.686A65.339,65.339,0,0,0,24.337,60.7c2.957,3.563,6.1,6.089,8.632,6.932,4.487,1.495,31.981,2.262,32.259,2.269L81.99,50.175c-.124-.082-14.96-9.927-30.981-19.88C41.674,24.5,33.832,19.837,27.7,16.448,20.045,12.216,15.06,9.971,12.889,9.776,12.685,9.758,12.484,9.749,12.292,9.749Z" fill="#fff"/>
        <path id="Trazado_344" data-name="Trazado 344" d="M-8535.633-1205.664c1.674-.471,15.819,6.473,26.312,15.629s16.346,18.8,15.656,21-16.438,2.153-21.095.442-9.554-7.547-14.772-16.814S-8537.309-1205.194-8535.633-1205.664Z" transform="translate(8554.073 1228.273)" fill="#fff"/>
      </g>
    </g>
    <g id="Grupo_685" data-name="Grupo 685" transform="translate(2495.671 387.654)">
      <g id="Grupo_647-2" data-name="Grupo 647" transform="translate(0 0)">
        <path id="Sustracción_5" data-name="Sustracción 5" d="M18.771,77.031v0h0L10.678,62.137l6.6,7.767c.275-.007,27.812-.788,32.259-2.271,2.528-.842,5.674-3.369,8.632-6.931A65.321,65.321,0,0,0,67.985,43.4a123.018,123.018,0,0,0,5.953-18.687c1.383-6.5,1.3-10.946-.237-13.218a3.955,3.955,0,0,0-3.487-1.74c-.192,0-.393.009-.6.028-3.532.316-14.271,5.935-31.919,16.7C23.536,35.114,8.862,44.684,3.21,48.4L0,42.49C19.309,29.982,65.159.809,73.874.028c.2-.018.409-.028.607-.028a5.965,5.965,0,0,1,5.086,2.924c2.322,3.426,3.319,9.7,2.806,17.671A77.54,77.54,0,0,1,77.3,43.381,120.144,120.144,0,0,1,66.365,65.054c-3.56,5.328-6.861,8.617-9.545,9.511C52.989,75.841,31.337,76.658,18.771,77.031Z" fill="#fff"/>
        <path id="Trazado_344-2" data-name="Trazado 344" d="M-8494.121-1205.664c-1.675-.471-15.82,6.473-26.312,15.629s-16.346,18.8-15.656,21,16.438,2.153,21.094.442,9.554-7.547,14.772-16.814S-8492.445-1205.194-8494.121-1205.664Z" transform="translate(8558.184 1228.274)" fill="#fff"/>
      </g>
    </g>
    <g id="Grupo_678" data-name="Grupo 678" transform="translate(2434.132 195.999)">
      <path id="Sustracción_1" data-name="Sustracción 1" d="M47.645,226.139h0L39.7,223.663l28.126-56.709a154.108,154.108,0,0,0,15.522.763A126.143,126.143,0,0,0,98.3,166.89a65.875,65.875,0,0,0,14.821-3.33,44.626,44.626,0,0,0,11.468-6.335,51.254,51.254,0,0,0,7.957-7.543,46.984,46.984,0,0,0,6.139-8.959.154.154,0,0,1-.029.019c-.95.56-6.027,3.51-12.736,6.589a119.086,119.086,0,0,1-12.281,4.887,61.352,61.352,0,0,1-12.946,2.943c-1.264.124-2.551.187-3.824.187a40.689,40.689,0,0,1-10-1.267,44.067,44.067,0,0,1-7.789-2.788,36.819,36.819,0,0,1-6.855-4.055L95.432,97.628c.026.006,2.724.66,7.122,1.309a120.467,120.467,0,0,0,17.243,1.29,93.954,93.954,0,0,0,16.665-1.415A64.884,64.884,0,0,0,153.4,93.422a72.549,72.549,0,0,0,17.2-12.185A121.26,121.26,0,0,0,184,66.391a142.185,142.185,0,0,0,11.778-17.83.392.392,0,0,1-.053.033c-1.428.822-9.058,5.176-19.085,10.2-6.466,3.24-12.673,6.135-18.449,8.6a182.9,182.9,0,0,1-19.5,7.2c-13.125,3.888-23.837,5.86-31.84,5.86-4.869,0-8.709-.73-11.413-2.171a20.194,20.194,0,0,1-4.342-3.136,23.835,23.835,0,0,1-4.045-5.07c-2.76-4.586-4.415-10.444-4.92-17.411a46.936,46.936,0,0,1,.916-12.045,89.5,89.5,0,0,1,3.1-11.553,111.8,111.8,0,0,1,4.849-12.1,95.925,95.925,0,0,0-10.243,10.85,79.342,79.342,0,0,0-7.8,11.4,45.908,45.908,0,0,0-5.125,13.453,41.982,41.982,0,0,0-.117,13.964,65.184,65.184,0,0,0,3.222,12.52,75.34,75.34,0,0,0,5.782,12.484v.007c-.149.73-1.527,7.4-3.982,16.489a234.557,234.557,0,0,1-11.151,32.586,149.492,149.492,0,0,1-7.641,14.791c-2.312,3.937-4.833,7.847-7.492,11.622-4.535,6.44-7.931,10.285-7.965,10.323l-.015-.018c-.525-.691-3.32-4.42-6.768-9.961a130.873,130.873,0,0,1-11.652-23.341,131.7,131.7,0,0,1-6.2-25.654c-1.061-7.19-1.328-12.242-1.331-12.292a144.734,144.734,0,0,0-3.979,16.9,116.286,116.286,0,0,0-1.729,15.885A62.118,62.118,0,0,0,8.138,155.16a46,46,0,0,0,5.679,13.514,58.873,58.873,0,0,0,7.842,10.018,59.8,59.8,0,0,0,9.943,8.369l-16.19,29.033-6.433-2,13.817-24.1a33.221,33.221,0,0,1-10.483-7.421,40.269,40.269,0,0,1-7.665-11.122A50.6,50.6,0,0,1,.2,153.742a116.971,116.971,0,0,1,1.257-24.215c1.063-7.646,2.706-16.207,4.882-25.445,3.7-15.724,7.728-28.131,7.768-28.255.007.047,1.022,7.935,2.775,18.654,1.6,9.81,4.161,23.976,7.229,35.753a196.69,196.69,0,0,0,9.1,26.943c2.672,6.292,4.629,9.809,4.648,9.844a60.832,60.832,0,0,0,4.814-6.748,124.572,124.572,0,0,0,10.277-20.505C60.153,121.633,66.928,93.928,67,93.65a73.979,73.979,0,0,1-6.4-15.861,63.564,63.564,0,0,1-2.427-15.843,44.9,44.9,0,0,1,3.047-17.577,62.1,62.1,0,0,1,10.707-16.81A126.957,126.957,0,0,1,86.344,13.405,170.221,170.221,0,0,1,104.453,0c-.027.065-3.577,8.509-7.177,18.94-2.122,6.149-3.857,11.8-5.158,16.8A84.583,84.583,0,0,0,89.3,51.325a26.511,26.511,0,0,0,2.223,12.1c1.372,3.034,3.993,7,8.69,8.68a24.991,24.991,0,0,0,8.348,1.245c10.64,0,24.7-4.452,38.3-9.264,6.653-2.353,14.475-5.585,23.247-9.607,7.018-3.218,14.657-6.945,22.7-11.079,13.712-7.044,23.973-12.892,24.075-12.95l-.014.029a279.783,279.783,0,0,1-16.255,25.191,219.761,219.761,0,0,1-17.338,21.277,112.213,112.213,0,0,1-20.808,17.948,75.426,75.426,0,0,1-23.144,9.754,88.983,88.983,0,0,1-20.737,2.392,82.785,82.785,0,0,1-18.38-1.894l-17.73,38.128a7.724,7.724,0,0,0,2.617,2.252c1.763,1.028,4.947,2.252,10.1,2.252a45.841,45.841,0,0,0,9.245-1.053c5.029-1.047,14.473-3.711,30.907-10.452,9.8-4.019,17.6-7.66,17.678-7.7l-.007.02a110.345,110.345,0,0,1-8.046,14.683,97.322,97.322,0,0,1-9.662,12.651,61.924,61.924,0,0,1-13.06,11.092c-5.765,3.553-13.136,6.143-21.907,7.7a117.143,117.143,0,0,1-20.211,1.674c-5.333,0-8.859-.333-8.894-.336Z" transform="translate(0 0)" fill="#fff"/>
    </g>
    <g id="Grupo_679" data-name="Grupo 679" transform="translate(2172.875 196)">
      <path id="Sustracción_6" data-name="Sustracción 6" d="M171.643,231.219l-26-55.163-.012,0c-.62.056-3.964.334-8.882.334a118.988,118.988,0,0,1-20.211-1.674c-8.771-1.555-16.142-4.145-21.908-7.7a61.924,61.924,0,0,1-13.059-11.092,97.327,97.327,0,0,1-9.661-12.651,109.248,109.248,0,0,1-8.052-14.7c.055.025,7.872,3.674,17.678,7.7,9.07,3.721,21.795,8.554,30.906,10.452a45.846,45.846,0,0,0,9.245,1.053c5.158,0,8.343-1.225,10.106-2.252a7.728,7.728,0,0,0,2.616-2.253l-17.73-38.128a83.664,83.664,0,0,1-18.38,1.894,88.946,88.946,0,0,1-20.736-2.391,75.43,75.43,0,0,1-23.145-9.755A112.228,112.228,0,0,1,33.607,76.943,219.794,219.794,0,0,1,16.269,55.665,276.834,276.834,0,0,1,0,30.446c.076.043,10.3,5.874,24.075,12.95,8.047,4.133,15.686,7.861,22.7,11.079,8.772,4.022,16.594,7.254,23.247,9.607,13.607,4.811,27.665,9.263,38.3,9.263a24.99,24.99,0,0,0,8.347-1.245c4.7-1.678,7.318-5.646,8.69-8.68a26.511,26.511,0,0,0,2.223-12.1,84.575,84.575,0,0,0-2.814-15.582c-1.3-5-3.036-10.654-5.158-16.8C115.987,8.424,112.474.083,112.439,0l.023.012A172.244,172.244,0,0,1,130.548,13.4a126.968,126.968,0,0,1,14.426,14.154,62.1,62.1,0,0,1,10.708,16.81,44.9,44.9,0,0,1,3.046,17.577A63.568,63.568,0,0,1,156.3,77.789a74.309,74.309,0,0,1-6.4,15.861c.067.275,6.881,28.079,14.044,46.116a124.581,124.581,0,0,0,10.277,20.505,60.089,60.089,0,0,0,4.814,6.749c.014-.026,1.96-3.514,4.648-9.844a196.76,196.76,0,0,0,9.1-26.943c1.693-6.5,4.322-17.98,7.229-35.753,1.731-10.583,2.765-18.574,2.775-18.654a.263.263,0,0,1,.017.047c.695,2.166,4.335,13.7,7.751,28.207,2.176,9.238,3.819,17.8,4.883,25.445a116.964,116.964,0,0,1,1.257,24.215,50.607,50.607,0,0,1-4.447,17.7,40.271,40.271,0,0,1-7.666,11.122,32.864,32.864,0,0,1-10.484,7.421l13.817,24.1-5.976,2.823L185.29,187.06a59.628,59.628,0,0,0,9.943-8.369,58.877,58.877,0,0,0,7.842-10.018,46,46,0,0,0,5.679-13.514,62.118,62.118,0,0,0,1.329-16.181,116.286,116.286,0,0,0-1.729-15.885,144.033,144.033,0,0,0-3.978-16.9.291.291,0,0,1,0,.037c-.054.9-.37,5.742-1.33,12.252a135.6,135.6,0,0,1-6.2,25.654,127.468,127.468,0,0,1-11.652,23.342c-3.75,6.027-6.753,9.94-6.783,9.979l-.014-.014c-.595-.681-3.774-4.379-7.95-10.308a160.46,160.46,0,0,1-15.132-26.413,225.059,225.059,0,0,1-11.151-32.586c-2.57-9.519-3.969-16.427-3.983-16.5a75.488,75.488,0,0,0,5.782-12.484,65.178,65.178,0,0,0,3.222-12.52,41.981,41.981,0,0,0-.117-13.964,45.911,45.911,0,0,0-5.125-13.453,79.335,79.335,0,0,0-7.795-11.4,96.13,96.13,0,0,0-10.241-10.848.2.2,0,0,1,.013.026,113.191,113.191,0,0,1,4.833,12.074,89.491,89.491,0,0,1,3.1,11.553,46.938,46.938,0,0,1,.916,12.045c-.505,6.968-2.161,12.826-4.92,17.411a23.833,23.833,0,0,1-4.045,5.07,20.191,20.191,0,0,1-4.342,3.136c-2.7,1.44-6.543,2.171-11.413,2.171-8,0-18.714-1.971-31.839-5.86a182.9,182.9,0,0,1-19.5-7.2c-5.776-2.468-11.983-5.362-18.449-8.6C29.242,53.273,21.2,48.607,21.119,48.56A143.4,143.4,0,0,0,32.9,66.391,121.265,121.265,0,0,0,46.285,81.236a72.547,72.547,0,0,0,17.2,12.185A64.888,64.888,0,0,0,80.43,98.811,93.955,93.955,0,0,0,97.1,100.227a114.582,114.582,0,0,0,24.365-2.6l23.213,49.609,0,0a37.21,37.21,0,0,1-6.851,4.05,44.079,44.079,0,0,1-7.789,2.788,40.7,40.7,0,0,1-10,1.267c-1.272,0-2.558-.063-3.824-.187a61.357,61.357,0,0,1-12.946-2.943,119.063,119.063,0,0,1-12.281-4.887c-7.343-3.37-12.712-6.576-12.766-6.608a46.666,46.666,0,0,0,6.139,8.96,51.247,51.247,0,0,0,7.957,7.543,44.624,44.624,0,0,0,11.468,6.335,65.88,65.88,0,0,0,14.821,3.329,126.144,126.144,0,0,0,14.952.827,152.328,152.328,0,0,0,15.521-.763l30.109,60.708-7.533,3.558Z" transform="translate(0 0)" fill="#fff"/>
    </g>
    <path id="Sustracción_2" data-name="Sustracción 2" d="M157.281,246.672v0a6.918,6.918,0,0,0-.9-4.2,6.48,6.48,0,0,0,2.6-5.706,109.542,109.542,0,0,0,19.273-19.54,126.743,126.743,0,0,0,14.818-24.758,141.464,141.464,0,0,0,9.514-28.914,152.734,152.734,0,0,0,3.36-32.007q0-3.107.006-6.178v-.025c.029-19.554.056-38.025-2.59-54.206a93.1,93.1,0,0,0-6.309-22.468A58.708,58.708,0,0,0,184.73,30.318a60.394,60.394,0,0,0-12.7-9.641,82.2,82.2,0,0,0-16.948-7.18,131.2,131.2,0,0,0-21.811-4.482,222.179,222.179,0,0,0-27.286-1.547A222.174,222.174,0,0,0,78.7,9.015,131.2,131.2,0,0,0,56.892,13.5a82.2,82.2,0,0,0-16.948,7.18,60.4,60.4,0,0,0-12.7,9.641A58.71,58.71,0,0,0,14.923,48.662,93.1,93.1,0,0,0,8.613,71.131c-2.647,16.182-2.619,34.652-2.59,54.207q0,3.081.006,6.2A153.59,153.59,0,0,0,8.8,160.683a143.766,143.766,0,0,0,7.871,26.655,130.336,130.336,0,0,0,12.308,23.347A113.629,113.629,0,0,0,45.06,229.907a7.359,7.359,0,0,0,1.32,4.024,7.653,7.653,0,0,0-2.011,4.638,117.86,117.86,0,0,1-18.22-20.477,136.558,136.558,0,0,1-13.993-25.314A151.7,151.7,0,0,1,3.18,163.6,162.641,162.641,0,0,1,.013,131.539q0-3.307-.006-6.574C-.024,104.233-.053,84.651,2.753,67.5A98.7,98.7,0,0,1,9.442,43.674,62.243,62.243,0,0,1,22.507,24.226,64.029,64.029,0,0,1,35.969,14,87.153,87.153,0,0,1,53.937,6.392,139.1,139.1,0,0,1,77.061,1.64,235.555,235.555,0,0,1,105.989,0a235.546,235.546,0,0,1,28.928,1.64A139.094,139.094,0,0,1,158.04,6.392,87.152,87.152,0,0,1,176.008,14,64.029,64.029,0,0,1,189.47,24.225a62.243,62.243,0,0,1,13.066,19.448,98.7,98.7,0,0,1,6.689,23.821c2.806,17.155,2.777,36.737,2.746,57.468q0,3.269-.006,6.576a161.632,161.632,0,0,1-3.949,35.687A148.83,148.83,0,0,1,196.878,199.2c-9.595,19.8-23.286,36.213-39.594,47.475Z" transform="translate(2310.042 405.405)" fill="#fff"/>
    <g id="Grupo_680" data-name="Grupo 680" transform="translate(2329.785 458.265)">
      <path id="Sustracción_4" data-name="Sustracción 4" d="M45.392,90.783A45.4,45.4,0,0,1,27.723,3.566,45.256,45.256,0,0,1,69.2,6.758,46.229,46.229,0,0,1,85.719,24.534a41.207,41.207,0,0,0-3.1,11.674A38.055,38.055,0,0,0,77.6,24.594a38.3,38.3,0,1,0,4.91,30.418A50.989,50.989,0,0,0,85.426,66.8,44.96,44.96,0,0,1,69.138,84.1,45.429,45.429,0,0,1,45.392,90.783Z" transform="translate(0 0)" fill="#fff"/>
      <g id="Grupo_644" data-name="Grupo 644" transform="translate(74.978 0.503)">
        <path id="Sustracción_3" data-name="Sustracción 3" d="M45,90A45.011,45.011,0,0,1,27.484,3.537,45.011,45.011,0,0,1,62.516,86.464,44.721,44.721,0,0,1,45,90ZM45,7A38.01,38.01,0,0,0,30.208,80.014,38.01,38.01,0,0,0,59.792,9.986,37.763,37.763,0,0,0,45,7Z" transform="translate(-0.282 0.232)" fill="#fff"/>
        <path id="Trazado_389" data-name="Trazado 389" d="M10.591,0c5.849,0,10.591,3.839,10.591,8.574s-4.742,8.574-10.591,8.574S0,13.309,0,8.574,4.742,0,10.591,0Z" transform="translate(18.832 40.854)" fill="#fff"/>
      </g>
      <g id="Grupo_643" data-name="Grupo 643" transform="translate(48.418 41.357)">
        <path id="Trazado_392" data-name="Trazado 392" d="M10.591,0c5.849,0,10.591,3.839,10.591,8.574s-4.742,8.574-10.591,8.574S0,13.309,0,8.574,4.742,0,10.591,0Z" transform="translate(0 0)" fill="#fff"/>
      </g>
    </g>
    <g id="Grupo_681" data-name="Grupo 681" transform="translate(2350.973 583.161)">
      <path id="Sustracción_8" data-name="Sustracción 8" d="M61.021,97.2h0a155.3,155.3,0,0,1-18.3-.987,86.792,86.792,0,0,1-14.269-2.832A50.456,50.456,0,0,1,17.723,88.9a34.185,34.185,0,0,1-7.684-5.934A33.317,33.317,0,0,1,1.858,67.519C.573,62.388,0,56.554,0,48.6A39.979,39.979,0,0,1,4.8,29.683a46.587,46.587,0,0,1,5.626-8.256,53.4,53.4,0,0,1,7.451-7.193,63.52,63.52,0,0,1,19.4-10.416,75.769,75.769,0,0,1,47.5,0,63.521,63.521,0,0,1,19.4,10.416,53.4,53.4,0,0,1,7.451,7.193,46.562,46.562,0,0,1,5.626,8.256,39.975,39.975,0,0,1,4.8,18.918,98.2,98.2,0,0,1-.657,12.334,47.818,47.818,0,0,1-2.654,11.178,32.261,32.261,0,0,1-15.4,17.336,20.448,20.448,0,0,0-5.645-4.524,28.207,28.207,0,0,0,14.078-15.258c2.685-6.857,3.029-14.86,3.029-21.066a35.229,35.229,0,0,0-4.226-16.671A43.621,43.621,0,0,0,99.047,18.315,55.978,55.978,0,0,0,81.953,9.137a66.773,66.773,0,0,0-41.864,0A55.976,55.976,0,0,0,23,18.315,43.611,43.611,0,0,0,11.472,31.93,35.224,35.224,0,0,0,7.247,48.6,67.8,67.8,0,0,0,8.883,65.273a29.367,29.367,0,0,0,7.21,13.614,30.117,30.117,0,0,0,6.772,5.23,44.454,44.454,0,0,0,9.458,3.949,76.47,76.47,0,0,0,12.575,2.5,136.864,136.864,0,0,0,16.123.87c.972,0,1.938-.008,2.871-.024A15.016,15.016,0,0,0,61.021,97.2Z" transform="translate(0)" fill="#fff"/>
      <path id="Trazado_340" data-name="Trazado 340" d="M36.462,0C56.734,0,81.107,6.31,73.3,19.279S47.963,49.427,36.462,49.427,6.474,30.238.448,19.279,16.19,0,36.462,0Z" transform="translate(22.605 20.357)" fill="#fff"/>
    </g>
    <path id="Sustracción_11" data-name="Sustracción 11" d="M70.64,155.762l0,0c-.14-.328-14.108-32.969-21.937-44.633a50.787,50.787,0,0,1-6.69-14.777c-1.433-4.593-2.786-8.932-6.8-14.157-2.237-2.914-7.617-8.458-20.548-18.323C6.921,57.959.068,53.256,0,53.209L12.755,0,138.892,12.528l13.514,51.458c-.144.117-17.339,14.05-32.19,26.585a98.565,98.565,0,0,1-12.237,8.948c-4.759,3.014-7.9,5-15.592,15.117-3.534,4.647-9.1,13.047-15.522,26.674-3.8,8.055-6.127,14.19-6.224,14.447ZM14.272,7.472c-.019.118-1.9,11.9-4.29,22.016S4.638,48.33,4.609,48.417l.024.012c.97.539,6.134,3.449,12.586,7.832,6.477,4.4,15.577,11.21,22.143,18.66,7.887,8.948,9.112,12.811,10.807,18.157A74.681,74.681,0,0,0,55.453,106.1c7.829,15.272,15.73,30.9,15.828,31.1a.156.156,0,0,1,.012-.039,106.294,106.294,0,0,1,4.475-10.276A105.06,105.06,0,0,1,89.113,106.1c7.889-9.318,11.628-11.91,17.823-16.2,3.113-2.158,6.641-4.6,11.59-8.507,14.737-11.624,29.569-22.027,29.717-22.13l-.013-.033c-.523-1.51-3.256-9.5-5.7-18.64-2.654-9.922-4.534-21.5-4.553-21.62Z" transform="translate(2337.696 692.642)" fill="#fff"/>
    <g id="Grupo_682" data-name="Grupo 682" transform="translate(2409.187 651.86)">
      <path id="Sustracción_10" data-name="Sustracción 10" d="M9.187,44.545h0c-3.1,0-5.258-.428-6.4-1.273C1.362,42.22.44,39.783.119,36.224A43.707,43.707,0,0,1,.94,24.342,46.658,46.658,0,0,1,6.57,9.247a24.284,24.284,0,0,1,4.693-5.673,14.544,14.544,0,0,1,5.93-3.2A12.489,12.489,0,0,1,20.252,0a16.8,16.8,0,0,1,6.693,1.528,30.35,30.35,0,0,1,6.517,4A55.352,55.352,0,0,1,44.427,17.491a45.087,45.087,0,0,1,4.746,8.616c1.044,2.645,1.359,4.656.911,5.816S47.772,34.507,44.712,36A76.434,76.434,0,0,1,33.8,40.1a122.287,122.287,0,0,1-13,3.17A66.973,66.973,0,0,1,9.187,44.545ZM21.321,4.892a9.755,9.755,0,0,0-2.388.293A11.346,11.346,0,0,0,14.308,7.68a18.945,18.945,0,0,0-3.661,4.425A36.408,36.408,0,0,0,6.254,23.881a34.126,34.126,0,0,0-.642,9.276c.25,2.778.969,4.681,2.081,5.5.893.659,2.573.994,4.994.994,4.793,0,12.152-1.328,19.205-3.466a59.6,59.6,0,0,0,8.518-3.2C42.8,31.82,44.247,30.72,44.6,29.8s.1-2.475-.71-4.538a35.164,35.164,0,0,0-3.7-6.722A43.181,43.181,0,0,0,31.633,9.21a23.682,23.682,0,0,0-5.087-3.125A13.116,13.116,0,0,0,21.321,4.892Z" transform="translate(0 0)" fill="#fff"/>
    </g>
    <path id="Trazado_427" data-name="Trazado 427" d="M11498.6,4387.354l-23.129-47.993c-6.227-.69-12.709-1.709-19.111-3.02a214.648,214.648,0,0,1-77.187-32.48,216.5,216.5,0,0,1-78.207-94.973,214.557,214.557,0,0,1-12.576-40.52,217.818,217.818,0,0,1,0-87.008,214.642,214.642,0,0,1,32.479-77.188,217.554,217.554,0,0,1,26.357-31.947c4.088-4.089-6.895-31.989-2.23-35.953,4.221-3.592,24.086,16.751,28.9,13.274,1.568-1.133,3.414-2.421,5.275-3.68a215.916,215.916,0,0,1,36.668-19.9c1.863-.788,22.463,41.974,24.613,41.135,7.5-2.921,25.033-8.047,25.033-8.047s-16.865-28.405-13.051-29.186c4.834-.99,13.643-18.293,18.855-18.989a218.358,218.358,0,0,1,63.215.889c2.787.445,16.975,18.388,16.975,18.388s-22.963,24.6-9.937,30.112c.523.222,27.283,4.411,27.283,4.411s18-37.446,18.764-37.106a215.2,215.2,0,0,1,32.967,18.3c2.959,2,5.875,4.077,8.977,6.405,5.189-4.177,27.422-17.6,33.551-13.689,7.9,5.049-2.533,33.952-4.963,39.475a215.835,215.835,0,0,1-114.754,358.284c-4.393.9-8.826,1.661-13.576,2.326C11520.537,4346.806,11498.6,4387.354,11498.6,4387.354Zm1.266-469.3a209.7,209.7,0,0,0-35.285,3c-1.943.33-7.213,10.4-9.434,10.854-1.988.407,12.723,27.142,12.723,27.142l-29.6,10.826s-16.518-36.577-18.9-35.569a206.738,206.738,0,0,0-35.129,19.068c-.9.607-1.793,1.221-2.912,2-4.783,3.343-28.385-18.479-33.176-14.467-5.029,4.86-4.232,14.509,5.48,37.717a207.165,207.165,0,0,0-44.32,65.736,205.493,205.493,0,0,0-12.049,38.82,208.748,208.748,0,0,0,0,83.358,205.6,205.6,0,0,0,31.117,73.947,207.389,207.389,0,0,0,90.988,74.927,205.671,205.671,0,0,0,38.818,12.051c4.9,1,9.863,1.83,15.166,2.517l25.248,52.739s20.385-35.1,42.943-55.256a205.7,205.7,0,0,0,73.949-31.117,207.44,207.44,0,0,0,74.928-90.988,206.041,206.041,0,0,0,12.051-38.819,208.844,208.844,0,0,0,0-83.358,205.677,205.677,0,0,0-31.119-73.95,208.986,208.986,0,0,0-17.963-22.933c2.449-5.016,11.912-36.088,6.945-42.823-6.115-8.3-26.834,7.415-38.447,14.4-1.932-1.42-4.148-2.983-6.395-4.5a207.961,207.961,0,0,0-31.244-17.376c-.475-.214-15.422,30.747-15.422,30.747s-28.752-6.147-29.543-6.481c-12.479-5.278,21.266-25.148,2.26-38.007A208.322,208.322,0,0,0,11499.865,3918.056Z" transform="translate(-9090.391 -3546.563)" fill="#fff"/>
  </g>
</svg>
