<svg xmlns="http://www.w3.org/2000/svg" width="572" height="784.206" viewBox="0 0 572 784.206">
  <g id="Grupo_683" data-name="Grupo 683" transform="translate(-2123 -196)">
    <path id="Trazado_396" data-name="Trazado 396" d="M11570,4481a288.128,288.128,0,0,1-57.639-5.811,284.45,284.45,0,0,1-102.267-43.033,286.828,286.828,0,0,1-103.618-125.831,284.563,284.563,0,0,1-16.665-53.685,288.783,288.783,0,0,1,0-115.277,284.463,284.463,0,0,1,43.033-102.267,286.832,286.832,0,0,1,125.832-103.621,284.576,284.576,0,0,1,53.685-16.665,288.788,288.788,0,0,1,115.278,0,284.455,284.455,0,0,1,102.268,43.035,286.827,286.827,0,0,1,103.618,125.833,284.514,284.514,0,0,1,16.665,53.685,288.783,288.783,0,0,1,0,115.277,284.449,284.449,0,0,1-43.033,102.266,286.813,286.813,0,0,1-125.833,103.619,284.547,284.547,0,0,1-53.685,16.665A288.138,288.138,0,0,1,11570,4481Zm0-560a276.024,276.024,0,0,0-55.221,5.567,272.48,272.48,0,0,0-97.975,41.229,274.8,274.8,0,0,0-99.271,120.553,272.653,272.653,0,0,0-15.966,51.433,276.688,276.688,0,0,0,0,110.441,272.508,272.508,0,0,0,41.229,97.975,274.8,274.8,0,0,0,120.551,99.271,272.671,272.671,0,0,0,51.433,15.966,276.688,276.688,0,0,0,110.441,0,272.516,272.516,0,0,0,97.976-41.228,274.791,274.791,0,0,0,99.272-120.551,272.667,272.667,0,0,0,15.966-51.432,276.688,276.688,0,0,0,0-110.441,272.508,272.508,0,0,0-41.229-97.976,274.807,274.807,0,0,0-120.553-99.272,272.621,272.621,0,0,0-51.433-15.966A276.024,276.024,0,0,0,11570,3921Z" transform="translate(-9161 -3621)" fill="#90b0b9"/>
    <path id="Trazado_395" data-name="Trazado 395" d="M214,0C332.189,0,428,95.811,428,214S332.189,428,214,428,0,332.189,0,214,95.811,0,214,0Z" transform="translate(2195 360)" fill="#90b0b9"/>
    <g id="Grupo_852" data-name="Grupo 852" transform="translate(1441 -153)">
      <path id="Trazado_599" data-name="Trazado 599" d="M5.613-68H26.162q7.793,0,11.759,1.74A19.7,19.7,0,0,1,45.227-60.4,30.162,30.162,0,0,1,50.469-49.68a59.964,59.964,0,0,1,1.9,16.375,52.611,52.611,0,0,1-1.995,15.331A30.739,30.739,0,0,1,45.32-7.654a19.6,19.6,0,0,1-7.4,5.729A27.686,27.686,0,0,1,26.765,0H5.613ZM16.838-56.5v45.042h8.442q5.427,0,7.863-1.021a9.487,9.487,0,0,0,3.989-3.085,17.677,17.677,0,0,0,2.574-6.517,54.413,54.413,0,0,0,1.021-11.736,53.553,53.553,0,0,0-1.044-11.921A15.8,15.8,0,0,0,36.437-52.6,10.334,10.334,0,0,0,31.079-55.9a44.482,44.482,0,0,0-9.138-.6ZM63.826,0V-68H105.2v11.5H75.052v15.076h28.018v11.458H75.052v18.508h31.172V0Zm53.853,0V-68h41.377v11.5H128.9v15.076h28.018v11.458H128.9v18.508h31.172V0Zm53.853,0V-68h23.7q9.092,0,12.988,1.832a14.405,14.405,0,0,1,6.4,6.355,22.034,22.034,0,0,1,2.5,10.831q0,7.979-3.827,12.849a17.021,17.021,0,0,1-10.878,6.123,28.127,28.127,0,0,1,5.984,5.682,80.373,80.373,0,0,1,6.448,11.063L221.63,0H208.224L200.06-14.8a97.715,97.715,0,0,0-5.984-10.043,8.829,8.829,0,0,0-3.34-2.783,15.266,15.266,0,0,0-5.659-.765h-2.319V0Zm11.226-39.243h8.35q7.654,0,9.741-.673a6.222,6.222,0,0,0,3.386-2.714,10,10,0,0,0,1.3-5.427,9.35,9.35,0,0,0-1.3-5.219,6.619,6.619,0,0,0-3.525-2.714q-1.577-.51-9.138-.51h-8.813Zm44.019,17.117,10.994-1.3q1.855,13.035,12.153,13.035,5.1,0,8.025-2.667a8.589,8.589,0,0,0,2.922-6.61,7.263,7.263,0,0,0-1.021-3.943,7.512,7.512,0,0,0-3.108-2.667,86.942,86.942,0,0,0-10.112-3.5q-7.19-2.18-10.53-4.731a17.946,17.946,0,0,1-5.311-6.7,20.551,20.551,0,0,1-1.971-8.929,19.934,19.934,0,0,1,2.528-10.02,16.534,16.534,0,0,1,6.981-6.726,24.008,24.008,0,0,1,10.994-2.273q9.834,0,15.354,5.334t5.845,15.261l-11.272.6q-.742-5.474-3.2-7.654t-7-2.18q-4.546,0-7,1.9a5.77,5.77,0,0,0-2.458,4.731,5.928,5.928,0,0,0,2.227,4.685q2.227,1.9,10.251,4.175,8.489,2.458,12.269,5.172a17.6,17.6,0,0,1,5.775,7A24.582,24.582,0,0,1,272.1-19.714a21.389,21.389,0,0,1-5.45,14.89q-5.45,6.03-17.047,6.03Q229.1,1.206,226.777-22.126Z" transform="translate(895 1132)" fill="#876b48"/>
      <path id="Trazado_598" data-name="Trazado 598" d="M3.433-33.584q0-12.153,3.595-20.016t9.393-11.713a24.834,24.834,0,0,1,14.055-3.85,24.115,24.115,0,0,1,19.506,9.138Q57.52-50.886,57.52-34q0,17.07-7.979,26.672-7,8.489-19.019,8.489-12.107,0-19.111-8.4Q3.433-16.838,3.433-33.584Zm11.6-.464q0,11.736,4.453,17.6t11.04,5.868q6.633,0,10.994-5.822t4.36-17.882q0-11.829-4.244-17.488a13.25,13.25,0,0,0-11.11-5.659,13.4,13.4,0,0,0-11.179,5.706Q15.029-46.016,15.029-34.048ZM68.233,0V-68h23.7q9.092,0,12.988,1.832a14.405,14.405,0,0,1,6.4,6.355,22.034,22.034,0,0,1,2.5,10.831q0,7.979-3.827,12.849a17.021,17.021,0,0,1-10.878,6.123,28.127,28.127,0,0,1,5.984,5.682,80.373,80.373,0,0,1,6.448,11.063L118.331,0H104.925L96.761-14.8A97.718,97.718,0,0,0,90.777-24.84a8.829,8.829,0,0,0-3.34-2.783,15.266,15.266,0,0,0-5.659-.765H79.459V0ZM79.459-39.243h8.35q7.654,0,9.741-.673a6.222,6.222,0,0,0,3.386-2.714,10,10,0,0,0,1.3-5.427,9.35,9.35,0,0,0-1.3-5.219,6.619,6.619,0,0,0-3.525-2.714q-1.577-.51-9.138-.51H79.459Z" transform="translate(774 1132)" fill="#90b0b9"/>
    </g>
    <g id="Grupo_675" data-name="Grupo 675" transform="translate(2254.653 618.506)">
      <g id="Grupo_650" data-name="Grupo 650" transform="translate(0 54.139)">
        <path id="Trazado_356" data-name="Trazado 356" d="M-9647.9-2972.662c-11.646-3.594-4.723-6.273-22.35-14.377s-51.988,3.719-51.988,3.719,35.844-27.791,60.847-22.722,69.193,33.379,69.193,33.379-14.76,5.887-29.219,1.136S-9636.255-2969.067-9647.9-2972.662Z" transform="translate(9722.242 3006.659)"/>
        <path id="Trazado_357" data-name="Trazado 357" d="M-9666.6-2982.755c-10.255-3.357-11.256-11.352-24.4-15.137s-28.185,0-28.185,0,20.933-13.289,38.878-8.121,56.369,26.565,56.369,26.565-6.456.735-18.758-3.307S-9656.347-2979.4-9666.6-2982.755Z" transform="translate(9742.147 3011.103)" fill="#fff"/>
      </g>
      <g id="Grupo_651" data-name="Grupo 651" transform="translate(129.821 95.042) rotate(-158)">
        <path id="Trazado_356-2" data-name="Trazado 356" d="M57.84,7.686c12.3,4.494,5.319,6.5,24.114,15.9s53.535.845,53.535.845S100.316,48.369,74.1,41.295.206,2.905.206,2.905s14.869-4.456,30.156,1.4S45.541,3.192,57.84,7.686Z" transform="translate(0 0)"/>
        <path id="Trazado_357-2" data-name="Trazado 357" d="M44.374,6.927c10.841,4.144,12.427,12,26.289,16.81s29.162,2.419,29.162,2.419S79.079,37.279,60.155,30.714,0,.051,0,.051,6.635-.11,19.641,4.875,33.532,2.782,44.374,6.927Z" transform="translate(12.605 6.148)" fill="#fff"/>
      </g>
    </g>
    <path id="Trazado_381" data-name="Trazado 381" d="M23.613,0h108.72s6.313,74.977,15.579,115.7,21.482,47.2,21.482,47.2-45.156,22.169-91.366,22.169-93.477-22.169-93.477-22.169S-3.461,156.431,6.3,115.7,23.613,0,23.613,0Z" transform="translate(2332 604)"/>
    <path id="Trazado_382" data-name="Trazado 382" d="M20.661,0h95.13s7.57,73.17,16.349,114.762S150.9,166.368,150.9,166.368s-53.985,18.71-84.225,18.71-83.611-18.71-83.611-18.71,10.813-10.014,20.211-51.606S20.661,0,20.661,0Z" transform="translate(2342 600)" fill="#876b48"/>
    <g id="Grupo_677" data-name="Grupo 677" transform="translate(2251.107 390.008)">
      <g id="Grupo_647" data-name="Grupo 647">
        <path id="Trazado_345" data-name="Trazado 345" d="M-8467.76-1171.094s-71.319-47.075-82.386-48.067-10.5,25.146-3.4,42.979,15.031,29.159,20.3,30.915,44.71,2.63,44.71,2.63Z" transform="translate(8555.896 1215.18)"/>
        <path id="Trazado_343" data-name="Trazado 343" d="M-8482.137-1175.1s-59.066-39.2-68.5-40.049-4.446,18.117,1.617,33.328,13.795,22.532,18.29,24.029,31.98,2.25,31.98,2.25Z" transform="translate(8560.612 1220.837)" fill="#876b48"/>
        <path id="Trazado_344" data-name="Trazado 344" d="M-8535.638-1205.665c1.66-.467,15.684,6.417,26.085,15.494s16.2,18.638,15.521,20.815-16.3,2.134-20.912.439-9.471-7.482-14.645-16.669S-8537.3-1205.2-8535.638-1205.665Z" transform="translate(8551.113 1224.07)"/>
      </g>
    </g>
    <g id="Grupo_685" data-name="Grupo 685" transform="translate(2483.303 386)">
      <g id="Grupo_647-2" data-name="Grupo 647">
        <path id="Trazado_345-2" data-name="Trazado 345" d="M-8558.7-1171.094s71.319-47.075,82.386-48.067,10.5,25.146,3.4,42.979-15.031,29.159-20.3,30.915-44.71,2.63-44.71,2.63Z" transform="translate(8558.701 1219.188)"/>
        <path id="Trazado_343-2" data-name="Trazado 343" d="M-8555.9-1175.1s59.066-39.2,68.5-40.049,4.446,18.117-1.617,33.328-13.795,22.532-18.29,24.029-31.98,2.25-31.98,2.25Z" transform="translate(8565.557 1224.845)" fill="#876b48"/>
        <path id="Trazado_344-2" data-name="Trazado 344" d="M-8494.483-1205.665c-1.66-.467-15.684,6.417-26.085,15.494s-16.2,18.638-15.521,20.815,16.3,2.134,20.912.439,9.471-7.482,14.645-16.669S-8492.822-1205.2-8494.483-1205.665Z" transform="translate(8567.144 1228.078)"/>
      </g>
    </g>
    <g id="Grupo_678" data-name="Grupo 678" transform="translate(1072 -52.419)">
      <path id="Trazado_374" data-name="Trazado 374" d="M1365.348,460.659l13.7-23.892s-20.247-7.64-22.4-35.934,13.787-77.242,13.787-77.242,4.03,31.336,9.917,53.937S1393.979,414,1393.979,414s7.74-8.835,14.961-27.019,13.922-45.718,13.922-45.718-15.018-25.646-5.734-48.856S1460,248.419,1460,248.419s-13.969,33.11-15.019,50.882c-.438,7.411,2.708,17.7,10.818,20.6,10.758,3.846,29.388-1.987,46.247-7.949,28.917-10.226,69.422-33.345,69.422-33.345s-25.028,45.375-53.945,63.888-61.724,10.164-61.724,10.164l-17.577,37.8s4.292,7.065,21.777,3.423,48.165-17.992,48.165-17.992-11.118,26.164-30.508,38.114-50.572,8.959-50.572,8.959L1401.3,477.642Z" transform="translate(3)"/>
      <path id="Trazado_374-2" data-name="Trazado 374" d="M1337.359,465.515l29.867-53.557s-18.532-11.583-23.263-31.626,4.341-48.545,4.341-48.545,1.03,19.955,7.465,37.618,18.276,33.033,18.276,33.033a157.626,157.626,0,0,0,22.9-36.419c9.475-21.269,15-48.658,15-48.658s-12.348-20.126-8.81-38.632,22.963-35.39,22.963-35.39-9.888,20.194-8.787,35.39,7.508,22.367,13.192,25.4,18.01,3.711,42.879-3.657,56.6-25.815,56.6-25.815-17.135,32.312-42,44.473S1430.5,323.3,1430.5,323.3l-23.013,49.18a41.953,41.953,0,0,0,28.226,7.854c16.473-1.615,37.666-14.312,37.666-14.312s-7.782,16.14-25.344,22.641-44.9,3.364-44.9,3.364l-35.91,72.4Z" transform="translate(23.55 21.907)" fill="#fdfbda"/>
    </g>
    <g id="Grupo_679" data-name="Grupo 679" transform="translate(2172.444 196)">
      <path id="Trazado_374-3" data-name="Trazado 374" d="M1562.563,460.659l-13.7-23.892s20.247-7.64,22.4-35.934-13.787-77.242-13.787-77.242-4.03,31.336-9.917,53.937S1533.931,414,1533.931,414s-7.74-8.835-14.961-27.019-13.922-45.718-13.922-45.718,15.018-25.646,5.734-48.856-42.869-43.986-42.869-43.986,13.969,33.11,15.019,50.882c.438,7.411-2.708,17.7-10.818,20.6-10.758,3.846-29.388-1.987-46.247-7.949-28.917-10.226-69.422-33.345-69.422-33.345s25.028,45.375,53.945,63.888,61.724,10.164,61.724,10.164l17.577,37.8s-4.292,7.065-21.777,3.423-48.165-17.992-48.165-17.992,11.118,26.164,30.508,38.114,50.572,8.959,50.572,8.959l25.777,54.687Z" transform="translate(-1356.444 -248.419)"/>
      <path id="Trazado_374-4" data-name="Trazado 374" d="M1529.98,465.515l-29.867-53.557s18.532-11.583,23.263-31.626-4.341-48.545-4.341-48.545-1.03,19.955-7.465,37.618-18.276,33.033-18.276,33.033a157.626,157.626,0,0,1-22.9-36.419c-9.475-21.269-15-48.658-15-48.658s12.348-20.126,8.81-38.632-22.963-35.39-22.963-35.39,9.888,20.194,8.787,35.39-7.508,22.367-13.192,25.4-18.01,3.711-42.879-3.657-56.6-25.815-56.6-25.815,17.135,32.312,42,44.473,57.472,4.171,57.472,4.171l23.013,49.18a41.953,41.953,0,0,1-28.226,7.854c-16.473-1.615-37.666-14.312-37.666-14.312s7.782,16.14,25.344,22.641,44.9,3.364,44.9,3.364l35.91,72.4Z" transform="translate(-1316.422 -226.512)" fill="#fdfbda"/>
    </g>
    <path id="Trazado_383" data-name="Trazado 383" d="M105.061,0c108.544,0,105.06,58.384,105.06,130.4s-47.037,130.4-105.06,130.4S0,202.423,0,130.4-3.483,0,105.061,0Z" transform="translate(2308.439 403.597)"/>
    <path id="Trazado_384" data-name="Trazado 384" d="M99.1,0c102.382,0,99.1,55.069,99.1,123S153.825,246,99.1,246,0,190.931,0,123-3.286,0,99.1,0Z" transform="translate(2314.404 411)" fill="#876a48"/>
    <g id="Grupo_680" data-name="Grupo 680" transform="translate(9408.788 960.079)">
      <g id="Grupo_643" data-name="Grupo 643" transform="translate(-7081 -504)">
        <path id="Trazado_394" data-name="Trazado 394" d="M45,0A45,45,0,1,1,0,45,45,45,0,0,1,45,0Z" transform="translate(0.212 -0.079)"/>
        <path id="Trazado_393" data-name="Trazado 393" d="M38,0A38,38,0,1,1,0,38,38,38,0,0,1,38,0Z" transform="translate(7.212 6.921)" fill="#fff"/>
        <path id="Trazado_392" data-name="Trazado 392" d="M10.5,0C16.3,0,21,3.806,21,8.5S16.3,17,10.5,17,0,13.194,0,8.5,4.7,0,10.5,0Z" transform="translate(48.212 40.921)"/>
      </g>
      <g id="Grupo_644" data-name="Grupo 644" transform="translate(-7005.418 -504)">
        <path id="Trazado_391" data-name="Trazado 391" d="M45,0A45,45,0,1,1,0,45,45,45,0,0,1,45,0Z" transform="translate(-0.37 -0.079)"/>
        <path id="Trazado_390" data-name="Trazado 390" d="M38,0A38,38,0,1,1,0,38,38,38,0,0,1,38,0Z" transform="translate(6.63 6.921)" fill="#fff"/>
        <path id="Trazado_389" data-name="Trazado 389" d="M10.5,0C16.3,0,21,3.806,21,8.5S16.3,17,10.5,17,0,13.194,0,8.5,4.7,0,10.5,0Z" transform="translate(17.63 40.921)"/>
      </g>
    </g>
    <g id="Grupo_681" data-name="Grupo 681" transform="translate(11032 1600)">
      <path id="Trazado_342" data-name="Trazado 342" d="M60.495,0c33.41,0,60.495,21.572,60.495,48.182s-6.374,48.182-60.495,48.182S0,74.792,0,48.182,27.084,0,60.495,0Z" transform="translate(-8682.995 -1020.182)"/>
      <path id="Trazado_339" data-name="Trazado 339" d="M53.311,0c29.443,0,53.311,19.01,53.311,42.46S101,84.92,53.311,84.92,0,65.91,0,42.46,23.868,0,53.311,0Z" transform="translate(-8675.812 -1014.46)" fill="#997f62"/>
      <path id="Trazado_340" data-name="Trazado 340" d="M36.142,0C56.24,0,80.4,6.255,72.667,19.113S47.544,49,36.142,49,6.413,29.976.439,19.113,16.045,0,36.142,0Z" transform="translate(-8660.58 -1000)"/>
    </g>
    <path id="Trazado_385" data-name="Trazado 385" d="M-8683.515-911.646l-12.645,52.75s27.133,18.6,34.91,28.732,5.486,16.933,13.372,28.685,21.749,44.252,21.749,44.252,9.271-24.613,21.558-40.77,12.713-11.3,27.588-23.858,31.914-26.355,31.914-26.355l-13.4-51.014Z" transform="translate(11032 1600)"/>
    <path id="Trazado_386" data-name="Trazado 386" d="M-8690.009-909.18s-1.858,11.678-4.254,21.826-5.328,18.766-5.328,18.766,21.852,11.978,34.453,26.274,8.042,15.476,15.953,30.91,15.69,30.827,15.69,30.827,5.971-17,17.68-30.827,14.388-12.847,29.158-24.5,29.461-21.94,29.461-21.94-3-8.566-5.661-18.511-4.514-21.435-4.514-21.435Z" transform="translate(11040.001 1604.942)" fill="#fff"/>
    <g id="Grupo_682" data-name="Grupo 682" transform="translate(1074.415 -38)">
      <path id="Trazado_364" data-name="Trazado 364" d="M-9716.438-3039.221c-15.752,3.984-20.771,37.73-14.281,42.527s44.549-5.2,46.891-11.251S-9700.684-3043.205-9716.438-3039.221Z" transform="translate(11065.781 3725.517)"/>
      <path id="Trazado_365" data-name="Trazado 365" d="M-9720.183-3039.3c-12.292,3.109-16.207,29.443-11.144,33.185s34.764-4.055,36.59-8.78S-9707.887-3042.412-9720.183-3039.3Z" transform="translate(11071.254 3730.367)" fill="#ffacdf"/>
    </g>
  </g>
</svg>
