<svg xmlns="http://www.w3.org/2000/svg" width="211.384" height="80.807" viewBox="0 0 211.384 80.807">
  <path id="Trazado_4" data-name="Trazado 4" d="M30.257,15.247a22.5,22.5,0,0,0,8.651-.4,20.5,20.5,0,0,0,7.268-3.4A20.735,20.735,0,0,0,51.547,5.53,22.861,22.861,0,0,0,54.51-2.489a30.008,30.008,0,0,0,.04-9.6,38.98,38.98,0,0,0-3.358-10.744,31.266,31.266,0,0,1-2.844-9.48A22.69,22.69,0,0,1,48.9-41a70.056,70.056,0,0,0-9.125-.987,46.3,46.3,0,0,0-9.006.474,34.535,34.535,0,0,0-8.3,2.331,23.042,23.042,0,0,0-6.913,4.5,13.544,13.544,0,0,0-3.515,5.333,13.437,13.437,0,0,0-.75,5.569,11.551,11.551,0,0,0,1.5,4.858,8.61,8.61,0,0,0,3.239,3.278L12.482-13.9a8.3,8.3,0,0,1-3.555-1.343,17.122,17.122,0,0,1-3.634-3.12,21.542,21.542,0,0,1-3.042-4.424A18.564,18.564,0,0,1,.435-28.045a15.66,15.66,0,0,1,0-5.649,13.9,13.9,0,0,1,2.489-5.648,15.8,15.8,0,0,1,6.2-5.174,27.1,27.1,0,0,1,7.94-2.252,46.8,46.8,0,0,1,8.848-.276q4.582.276,9.006.829t8.374,1.067a38.824,38.824,0,0,0,6.952.355,23.949,23.949,0,0,1,4.306-6.518,27.3,27.3,0,0,1,6.28-5.056,31.106,31.106,0,0,1,7.9-3.239,35.811,35.811,0,0,1,9.164-1.146,17.388,17.388,0,0,1,8.69,1.975A13.294,13.294,0,0,1,91.758-53.8a12.584,12.584,0,0,1,1.62,6.6,14.689,14.689,0,0,1-1.857,6.834,17.225,17.225,0,0,1-5.293,5.728,19.317,19.317,0,0,1-8.65,3.2,15.222,15.222,0,0,1-7.782-.474,7.813,7.813,0,0,1-4.148-3.318,6.7,6.7,0,0,1-.553-4.9,11.275,11.275,0,0,1,3.081-5.293q-1.027.316-2.291.711-1.106.395-2.449.829t-2.844.829a21.776,21.776,0,0,0-.118,7.979,30.294,30.294,0,0,0,3.278,9.322,34.985,34.985,0,0,1,3.99,12.482,29.8,29.8,0,0,1-.869,11.534,28.743,28.743,0,0,1-4.977,9.8A29.558,29.558,0,0,1,53.522,15.4a33.672,33.672,0,0,1-11.06,4.068,37.274,37.274,0,0,1-12.917.039q-7.11-1.106-11.021-4.384a15.61,15.61,0,0,1-5.175-7.5,17.032,17.032,0,0,1-.2-8.848,23.247,23.247,0,0,1,3.871-8.493,22.652,22.652,0,0,1,7.11-6.359,18.681,18.681,0,0,1,9.519-2.489A5.327,5.327,0,0,1,37.249-17.5a3.983,3.983,0,0,1,1.382,2.725,7.737,7.737,0,0,1-.553,3.516,11.589,11.589,0,0,1-2.173,3.516A12,12,0,0,1,32.39-5.016a9.624,9.624,0,0,1-4.5,1.066,3.47,3.47,0,0,1-3.239-1.58,5.588,5.588,0,0,1-.474-4.029,12.255,12.255,0,0,0-4.187,3.634,12.772,12.772,0,0,0-2.133,4.819,14.1,14.1,0,0,0-.118,5.254,12.345,12.345,0,0,0,1.975,4.938,13.884,13.884,0,0,0,4.147,3.95A16.13,16.13,0,0,0,30.257,15.247ZM77.025-57.117a14.52,14.52,0,0,0-4.306.672,17.683,17.683,0,0,0-4.187,1.936,17.984,17.984,0,0,0-3.713,3.12,16.639,16.639,0,0,0-2.8,4.226q3.4-1.027,6.32-2.172t4.977-2.094q2.449-1.106,4.424-2.212l1.343,3.476a9,9,0,0,0-4.068,1.541,13.565,13.565,0,0,0-3.279,3.081A11.955,11.955,0,0,0,69.8-41.831a6.238,6.238,0,0,0-.158,3.515,3.769,3.769,0,0,0,2.093,2.41,8.874,8.874,0,0,0,4.9.434,14.335,14.335,0,0,0,6.438-2.291,12.618,12.618,0,0,0,3.99-4.227,11.3,11.3,0,0,0,1.462-5.056,9.2,9.2,0,0,0-1.106-4.9,9.482,9.482,0,0,0-3.832-3.713A13.275,13.275,0,0,0,77.025-57.117ZM96.38-32.39,86.505-8.374q-.632,1.5.158,2.133a2.635,2.635,0,0,0,2.173.395A7.061,7.061,0,0,0,91.8-7.268a8.832,8.832,0,0,0,2.607-3.318l1.343,2.212a13.23,13.23,0,0,1-2.173,3.515,16.318,16.318,0,0,1-3.081,2.8,15.92,15.92,0,0,1-3.634,1.9,11.056,11.056,0,0,1-3.831.711,7.83,7.83,0,0,1-3.279-.632,4.454,4.454,0,0,1-2.093-1.9,5.862,5.862,0,0,1-.632-3.16A12.853,12.853,0,0,1,78.131-9.48l9.48-22.91h-4.5l2.212-4.029h3.95l.948-2.37,9.48-1.817L97.96-36.419h7.11l-2.212,4.029Zm18.407,1.58a5.361,5.361,0,0,1,4.661,2.212,7.688,7.688,0,0,0,.355-.988,1.375,1.375,0,0,1,.277-.592h8.69q-.237.711-.948,2.449t-1.659,3.99q-.948,2.251-1.975,4.74t-1.936,4.7q-.909,2.212-1.58,3.832t-.829,2.094q-.632,1.5.158,2.133a2.565,2.565,0,0,0,2.133.395A7.366,7.366,0,0,0,125.1-7.268a8.658,8.658,0,0,0,2.646-3.318l1.343,2.212a13.23,13.23,0,0,1-2.173,3.515,16.318,16.318,0,0,1-3.081,2.8,15.92,15.92,0,0,1-3.634,1.9,11.056,11.056,0,0,1-3.832.711,7.064,7.064,0,0,1-3.989-1.027,4.55,4.55,0,0,1-1.936-3.081,22.257,22.257,0,0,1-4.622,3A10.408,10.408,0,0,1,101.357.553,7.32,7.32,0,0,1,96.972-.672a6.575,6.575,0,0,1-2.41-3.357,12.17,12.17,0,0,1-.434-5.016,20.084,20.084,0,0,1,1.7-6.123q3.4-8.058,8.453-11.85A17.293,17.293,0,0,1,114.787-30.81Zm3.318,5.293a2.52,2.52,0,0,0-2.291-1.106,6.7,6.7,0,0,0-2.8.593,9.07,9.07,0,0,0-2.607,1.9,19.749,19.749,0,0,0-2.646,3.437,55.66,55.66,0,0,0-2.844,5.214,30.334,30.334,0,0,0-1.857,4.306,13.638,13.638,0,0,0-.75,3.515,3.786,3.786,0,0,0,.513,2.37,2.173,2.173,0,0,0,1.936.869,6.6,6.6,0,0,0,2.923-.79,14.4,14.4,0,0,0,3.16-2.212,10.572,10.572,0,0,1,.711-2.054Zm21.409-11.06a2.89,2.89,0,0,1,3,1.778,5.709,5.709,0,0,1-.316,4.305,11.222,11.222,0,0,1-1.738,3.16h6.952q-.237.711-.869,2.212t-1.422,3.476q-.79,1.975-1.7,4.108t-1.7,4.029q-.79,1.9-1.383,3.279t-.75,1.857q-.632,1.5.158,2.133a2.635,2.635,0,0,0,2.173.395,7.061,7.061,0,0,0,2.963-1.422,8.832,8.832,0,0,0,2.607-3.318l1.343,2.212a13.23,13.23,0,0,1-2.173,3.515,16.318,16.318,0,0,1-3.081,2.8,15.92,15.92,0,0,1-3.634,1.9,11.056,11.056,0,0,1-3.832.711,7.83,7.83,0,0,1-3.278-.632,4.244,4.244,0,0,1-2.054-1.9,6.125,6.125,0,0,1-.592-3.16A12.853,12.853,0,0,1,131.3-9.48l6.478-15.642a6.625,6.625,0,0,1-3,.711,2.827,2.827,0,0,1-2.923-1.778,5.531,5.531,0,0,1,.4-4.306,10.4,10.4,0,0,1,3.041-4.5A6.542,6.542,0,0,1,139.514-36.577Zm25.754,4.187L155.393-8.374q-.632,1.5.158,2.133a2.635,2.635,0,0,0,2.173.395,7.061,7.061,0,0,0,2.962-1.422,8.832,8.832,0,0,0,2.607-3.318l1.343,2.212a13.23,13.23,0,0,1-2.173,3.515,16.318,16.318,0,0,1-3.081,2.8,15.92,15.92,0,0,1-3.634,1.9,11.056,11.056,0,0,1-3.831.711,7.83,7.83,0,0,1-3.279-.632,4.454,4.454,0,0,1-2.093-1.9,5.862,5.862,0,0,1-.632-3.16,12.852,12.852,0,0,1,1.106-4.345l9.48-22.91H152l2.212-4.029h3.95l.948-2.37,9.48-1.817-1.738,4.187h7.11l-2.212,4.029ZM178.461-3.871a11.547,11.547,0,0,0,3.436-.553,17.626,17.626,0,0,0,3.4-1.461,15.992,15.992,0,0,0,2.963-2.133,13.2,13.2,0,0,0,2.212-2.568l1.343,2.212a13.969,13.969,0,0,1-6.794,6.557A25.126,25.126,0,0,1,173.8.553a12.013,12.013,0,0,1-5.648-1.225,8.862,8.862,0,0,1-3.594-3.357,10.224,10.224,0,0,1-1.343-5.016,15.664,15.664,0,0,1,1.185-6.123q3-7.663,8.018-11.653a17.414,17.414,0,0,1,11.1-3.989,6.549,6.549,0,0,1,4.9,1.7A6.457,6.457,0,0,1,190.271-25a10.426,10.426,0,0,1-1.027,5.135,13.684,13.684,0,0,1-3.753,4.859,12.559,12.559,0,0,1-8.216,2.923H172.22a6.332,6.332,0,0,0,.751,5.885A6.464,6.464,0,0,0,178.461-3.871Zm3.081-23.384a5.883,5.883,0,0,0-1.856,1.422,19.86,19.86,0,0,0-2.173,2.765q-1.106,1.659-2.251,3.713a35.089,35.089,0,0,0-2.015,4.266h2.765a4.515,4.515,0,0,0,3.081-1.106,10.6,10.6,0,0,0,2.37-3.4,22.493,22.493,0,0,0,1.5-3.318A10.719,10.719,0,0,0,183.6-25.6a2.1,2.1,0,0,0-.395-1.619Q182.727-27.729,181.542-27.255Zm20.7-9.322a2.89,2.89,0,0,1,3,1.778,5.709,5.709,0,0,1-.316,4.305,11.222,11.222,0,0,1-1.738,3.16h6.952q-.237.711-.869,2.212t-1.422,3.476q-.79,1.975-1.7,4.108t-1.7,4.029q-.79,1.9-1.383,3.279t-.75,1.857q-.632,1.5.158,2.133a2.635,2.635,0,0,0,2.173.395,7.061,7.061,0,0,0,2.963-1.422,8.832,8.832,0,0,0,2.607-3.318l1.343,2.212a13.23,13.23,0,0,1-2.173,3.515,16.318,16.318,0,0,1-3.081,2.8,15.92,15.92,0,0,1-3.634,1.9,11.056,11.056,0,0,1-3.832.711,7.83,7.83,0,0,1-3.278-.632,4.244,4.244,0,0,1-2.054-1.9,6.125,6.125,0,0,1-.592-3.16,12.853,12.853,0,0,1,1.106-4.345L200.5-25.122a6.625,6.625,0,0,1-3,.711,2.827,2.827,0,0,1-2.923-1.778,5.531,5.531,0,0,1,.4-4.306,10.4,10.4,0,0,1,3.041-4.5A6.542,6.542,0,0,1,202.24-36.577Z" transform="translate(-0.178 60.751)" fill="#1c4586"/>
</svg>
