<svg xmlns="http://www.w3.org/2000/svg" xmlns:xlink="http://www.w3.org/1999/xlink" width="320" height="160" viewBox="0 0 320 160">
  <defs>
    <clipPath id="clip-sprite">
      <rect width="320" height="160"/>
    </clipPath>
  </defs>
  <g id="sprite" clip-path="url(#clip-sprite)">
    <g id="order" transform="translate(1.999 1.999)">
      <path id="Trazado_203" data-name="Trazado 203" d="M31.032,14.2l3.424,1.713a.6.6,0,0,0,.264.062.592.592,0,0,0,.592-.592V14.2h1.775a.591.591,0,0,0,.592-.592V.593A.591.591,0,0,0,37.087,0H9.874a.591.591,0,0,0-.592.592V5.916H1.593A.591.591,0,0,0,1,6.508V27.8a.591.591,0,0,0,.592.592H3.959v1.775a.592.592,0,0,0,.281.5.586.586,0,0,0,.311.088.594.594,0,0,0,.264-.062l4.607-2.3H17.6A10.046,10.046,0,1,0,28.212,17.786V14.2h2.819ZM10.465,5.916V1.184h26.03V13.015H34.72a.591.591,0,0,0-.592.592v.818l-2.693-1.346a.6.6,0,0,0-.264-.062H28.213V6.508a.591.591,0,0,0-.592-.592Zm-1.183,21.3a.593.593,0,0,0-.264.062L5.142,29.213V27.8a.591.591,0,0,0-.592-.592H2.184V7.1H27.03V17.786a9.991,9.991,0,0,0-4.166,1.173,8.285,8.285,0,0,0-6.844-7.59,1.455,1.455,0,0,0,.07-.427,1.479,1.479,0,0,0-2.958,0,1.458,1.458,0,0,0,.07.427,8.288,8.288,0,0,0-6.872,8.137c0,.005,0,.01,0,.015v1.185H5.735a.592.592,0,0,0,0,1.183h0A1.777,1.777,0,0,0,7.51,23.663H18.479a9.966,9.966,0,0,0-.876,3.55Zm9.836-4.733H7.51a.592.592,0,0,1-.592-.59h12.6C19.379,22.081,19.245,22.277,19.118,22.479Zm1.4-1.774H7.511V19.533s0-.008,0-.012a7.1,7.1,0,0,1,14.2,0s0,0,0,.006V19.7A10.075,10.075,0,0,0,20.52,20.706Zm-5.909-9.468a.3.3,0,1,1,.3-.3A.3.3,0,0,1,14.611,11.238ZM36.495,27.809a8.869,8.869,0,1,1-8.869-8.869A8.879,8.879,0,0,1,36.495,27.809Z" fill="#b2b2b2"/>
      <path id="Trazado_204" data-name="Trazado 204" d="M32.007,41.289a8.282,8.282,0,1,0,8.282-8.282A8.291,8.291,0,0,0,32.007,41.289Zm15.381,0a7.1,7.1,0,1,1-7.1-7.1A7.107,7.107,0,0,1,47.388,41.289Z" transform="translate(-12.663 -13.48)" fill="#b2b2b2"/>
      <path id="Trazado_205" data-name="Trazado 205" d="M23.6,22a.592.592,0,1,0,0,1.183,5.33,5.33,0,0,1,5.324,5.324.592.592,0,1,0,1.183,0A6.515,6.515,0,0,0,23.6,22Z" transform="translate(-8.988 -8.984)" fill="#b2b2b2"/>
      <path id="Trazado_206" data-name="Trazado 206" d="M45,37.593V42.92a.585.585,0,0,0,.209.443L48.947,47.1a.591.591,0,1,0,.837-.836l-3.6-3.6V37.593a.591.591,0,1,0-1.183,0Z" transform="translate(-17.969 -15.111)" fill="#b2b2b2"/>
    </g>
    <g id="order-2" data-name="order" transform="translate(1.999 41.999)">
      <path id="Trazado_203-2" data-name="Trazado 203" d="M31.032,14.2l3.424,1.713a.6.6,0,0,0,.264.062.592.592,0,0,0,.592-.592V14.2h1.775a.591.591,0,0,0,.592-.592V.593A.591.591,0,0,0,37.087,0H9.874a.591.591,0,0,0-.592.592V5.916H1.593A.591.591,0,0,0,1,6.508V27.8a.591.591,0,0,0,.592.592H3.959v1.775a.592.592,0,0,0,.281.5.586.586,0,0,0,.311.088.594.594,0,0,0,.264-.062l4.607-2.3H17.6A10.046,10.046,0,1,0,28.212,17.786V14.2h2.819ZM10.465,5.916V1.184h26.03V13.015H34.72a.591.591,0,0,0-.592.592v.818l-2.693-1.346a.6.6,0,0,0-.264-.062H28.213V6.508a.591.591,0,0,0-.592-.592Zm-1.183,21.3a.593.593,0,0,0-.264.062L5.142,29.213V27.8a.591.591,0,0,0-.592-.592H2.184V7.1H27.03V17.786a9.991,9.991,0,0,0-4.166,1.173,8.285,8.285,0,0,0-6.844-7.59,1.455,1.455,0,0,0,.07-.427,1.479,1.479,0,0,0-2.958,0,1.458,1.458,0,0,0,.07.427,8.288,8.288,0,0,0-6.872,8.137c0,.005,0,.01,0,.015v1.185H5.735a.592.592,0,0,0,0,1.183h0A1.777,1.777,0,0,0,7.51,23.663H18.479a9.966,9.966,0,0,0-.876,3.55Zm9.836-4.733H7.51a.592.592,0,0,1-.592-.59h12.6C19.379,22.081,19.245,22.277,19.118,22.479Zm1.4-1.774H7.511V19.533s0-.008,0-.012a7.1,7.1,0,0,1,14.2,0s0,0,0,.006V19.7A10.075,10.075,0,0,0,20.52,20.706Zm-5.909-9.468a.3.3,0,1,1,.3-.3A.3.3,0,0,1,14.611,11.238ZM36.495,27.809a8.869,8.869,0,1,1-8.869-8.869A8.879,8.879,0,0,1,36.495,27.809Z" fill="#fff"/>
      <path id="Trazado_204-2" data-name="Trazado 204" d="M32.007,41.289a8.282,8.282,0,1,0,8.282-8.282A8.291,8.291,0,0,0,32.007,41.289Zm15.381,0a7.1,7.1,0,1,1-7.1-7.1A7.107,7.107,0,0,1,47.388,41.289Z" transform="translate(-12.663 -13.48)" fill="#fff"/>
      <path id="Trazado_205-2" data-name="Trazado 205" d="M23.6,22a.592.592,0,1,0,0,1.183,5.33,5.33,0,0,1,5.324,5.324.592.592,0,1,0,1.183,0A6.515,6.515,0,0,0,23.6,22Z" transform="translate(-8.988 -8.984)" fill="#fff"/>
      <path id="Trazado_206-2" data-name="Trazado 206" d="M45,37.593V42.92a.585.585,0,0,0,.209.443L48.947,47.1a.591.591,0,1,0,.837-.836l-3.6-3.6V37.593a.591.591,0,1,0-1.183,0Z" transform="translate(-17.969 -15.111)" fill="#fff"/>
    </g>
    <g id="tray" transform="translate(42 0.5)">
      <path id="Trazado_210" data-name="Trazado 210" d="M37.861,33.9a.457.457,0,0,0-.023-.049.569.569,0,0,0-.034-.069L31.882,24.9c-.011-.016-.028-.025-.039-.039a.6.6,0,0,0-.086-.086.65.65,0,0,0-.09-.061.552.552,0,0,0-.1-.043.564.564,0,0,0-.117-.024c-.02,0-.037-.011-.056-.011H24.07c2.209-2.939,4.358-6.791,4.358-10.661a9.476,9.476,0,1,0-18.952,0c0,3.87,2.149,7.722,4.358,10.661H6.515c-.02,0-.037.009-.056.011a.618.618,0,0,0-.118.024.543.543,0,0,0-.1.041.505.505,0,0,0-.092.062.524.524,0,0,0-.085.085.5.5,0,0,0-.04.04L.1,33.784a.673.673,0,0,0-.034.069.457.457,0,0,0-.023.049.579.579,0,0,0-.04.2s0,.008,0,.012v2.369a.592.592,0,0,0,.592.592h36.72a.592.592,0,0,0,.592-.592V34.113s0-.008,0-.012a.579.579,0,0,0-.04-.2Zm-5.417-.381-.564-1.185h3.536l.789,1.185Zm-2.259-4.738-1.411-2.961h2.3l1.974,2.961ZM18.952,5.685a8.3,8.3,0,0,1,8.292,8.292c0,6.357-6.6,13-8.292,14.594-.172-.163-.4-.381-.661-.643a.585.585,0,0,0-.253-.255c-2.423-2.467-7.378-8.186-7.378-13.7A8.3,8.3,0,0,1,18.952,5.685Zm5.734,23.1.509,1.777H12.709l.509-1.777h4.243c.61.6,1.025.972,1.1,1.038a.593.593,0,0,0,.781,0c.075-.065.49-.434,1.1-1.038ZM16.315,27.6H12.773c-.012,0-.024.007-.037.008a.544.544,0,0,0-.112.023.551.551,0,0,0-.111.036.5.5,0,0,0-.086.059.59.59,0,0,0-.091.076.667.667,0,0,0-.058.086A.553.553,0,0,0,12.22,28c0,.011-.012.019-.016.031l-.849,2.961a.528.528,0,0,0-.007.081.556.556,0,0,0-.017.083c0,.012.007.023.007.036a.611.611,0,0,0,.024.118.621.621,0,0,0,.034.1.547.547,0,0,0,.061.09.6.6,0,0,0,.075.089.667.667,0,0,0,.086.058.553.553,0,0,0,.111.058c.011,0,.019.012.031.016a.613.613,0,0,0,.162.023H25.982a.606.606,0,0,0,.162-.023c.012,0,.02-.012.031-.016a.51.51,0,0,0,.111-.058.551.551,0,0,0,.086-.058.665.665,0,0,0,.075-.089.65.65,0,0,0,.061-.09.549.549,0,0,0,.034-.105.6.6,0,0,0,.024-.117c0-.012.007-.023.007-.036a.555.555,0,0,0-.017-.083.528.528,0,0,0-.007-.081L25.7,28.027c0-.012-.012-.02-.016-.031a.535.535,0,0,0-.059-.113.565.565,0,0,0-.057-.085.578.578,0,0,0-.092-.078.693.693,0,0,0-.085-.057.642.642,0,0,0-.113-.037.567.567,0,0,0-.11-.022c-.012,0-.024-.008-.037-.008H21.588c.482-.519,1.009-1.116,1.551-1.777h4.323l1.814,3.806a.561.561,0,0,0,.108.153c.014.014.031.025.046.038a.568.568,0,0,0,.115.078.607.607,0,0,0,.072.032.617.617,0,0,0,.151.031c.015,0,.028.009.044.009h4.024l.789,1.185H30.941l-.008,0a.581.581,0,0,0-.149.03.619.619,0,0,0-.082.021c-.006,0-.012,0-.017,0a.53.53,0,0,0-.092.069.553.553,0,0,0-.078.059.522.522,0,0,0-.154.348.464.464,0,0,0-.012.06s0,.006,0,.009a.586.586,0,0,0,.027.136.719.719,0,0,0,.024.1s0,.009,0,.013l.726,1.523H6.772l2.7-5.667s0-.008,0-.011a.578.578,0,0,0,.033-.13.555.555,0,0,0,.02-.1c0-.005,0-.009,0-.014a.537.537,0,0,0-.02-.1.366.366,0,0,0-.086-.222A.543.543,0,0,0,9.37,27.2a.594.594,0,0,0-.114-.085.522.522,0,0,0-.062-.046l-.011,0a.662.662,0,0,0-.119-.03.589.589,0,0,0-.113-.023l-.011,0h-2.9l.789-1.185h7.933c.542.66,1.069,1.258,1.551,1.777ZM5.252,28.19H8L5.46,33.52H1.7Zm31.468,7.7H1.185V34.7H36.72Z" transform="translate(0 0)" fill="#b2b2b2"/>
      <path id="Trazado_211" data-name="Trazado 211" d="M31.845,19.754a1.779,1.779,0,0,0,1.777-1.777.592.592,0,0,0,0-1.185,6.522,6.522,0,0,0-5.113-6.358,1.462,1.462,0,0,0,.079-.454,1.481,1.481,0,1,0-2.961,0,1.462,1.462,0,0,0,.079.454,6.523,6.523,0,0,0-5.113,6.358.592.592,0,0,0,0,1.185,1.779,1.779,0,0,0,1.777,1.777Zm0-1.185H22.369a.592.592,0,0,1-.592-.592H32.437A.592.592,0,0,1,31.845,18.569ZM27.107,9.685a.3.3,0,1,1-.3.3A.3.3,0,0,1,27.107,9.685Zm0,1.778a5.336,5.336,0,0,1,5.33,5.33h-.592a4.744,4.744,0,0,0-4.738-4.738.592.592,0,0,0,0,1.185,3.557,3.557,0,0,1,3.554,3.554H21.777A5.337,5.337,0,0,1,27.108,11.462Z" transform="translate(-8.155 -1.631)" fill="#b2b2b2"/>
    </g>
    <g id="tray-2" data-name="tray" transform="translate(42 40.5)">
      <path id="Trazado_210-2" data-name="Trazado 210" d="M37.861,33.9a.457.457,0,0,0-.023-.049.569.569,0,0,0-.034-.069L31.882,24.9c-.011-.016-.028-.025-.039-.039a.6.6,0,0,0-.086-.086.65.65,0,0,0-.09-.061.552.552,0,0,0-.1-.043.564.564,0,0,0-.117-.024c-.02,0-.037-.011-.056-.011H24.07c2.209-2.939,4.358-6.791,4.358-10.661a9.476,9.476,0,1,0-18.952,0c0,3.87,2.149,7.722,4.358,10.661H6.515c-.02,0-.037.009-.056.011a.618.618,0,0,0-.118.024.543.543,0,0,0-.1.041.505.505,0,0,0-.092.062.524.524,0,0,0-.085.085.5.5,0,0,0-.04.04L.1,33.784a.673.673,0,0,0-.034.069.457.457,0,0,0-.023.049.579.579,0,0,0-.04.2s0,.008,0,.012v2.369a.592.592,0,0,0,.592.592h36.72a.592.592,0,0,0,.592-.592V34.113s0-.008,0-.012a.579.579,0,0,0-.04-.2Zm-5.417-.381-.564-1.185h3.536l.789,1.185Zm-2.259-4.738-1.411-2.961h2.3l1.974,2.961ZM18.952,5.685a8.3,8.3,0,0,1,8.292,8.292c0,6.357-6.6,13-8.292,14.594-.172-.163-.4-.381-.661-.643a.585.585,0,0,0-.253-.255c-2.423-2.467-7.378-8.186-7.378-13.7A8.3,8.3,0,0,1,18.952,5.685Zm5.734,23.1.509,1.777H12.709l.509-1.777h4.243c.61.6,1.025.972,1.1,1.038a.593.593,0,0,0,.781,0c.075-.065.49-.434,1.1-1.038ZM16.315,27.6H12.773c-.012,0-.024.007-.037.008a.544.544,0,0,0-.112.023.551.551,0,0,0-.111.036.5.5,0,0,0-.086.059.59.59,0,0,0-.091.076.667.667,0,0,0-.058.086A.553.553,0,0,0,12.22,28c0,.011-.012.019-.016.031l-.849,2.961a.528.528,0,0,0-.007.081.556.556,0,0,0-.017.083c0,.012.007.023.007.036a.611.611,0,0,0,.024.118.621.621,0,0,0,.034.1.547.547,0,0,0,.061.09.6.6,0,0,0,.075.089.667.667,0,0,0,.086.058.553.553,0,0,0,.111.058c.011,0,.019.012.031.016a.613.613,0,0,0,.162.023H25.982a.606.606,0,0,0,.162-.023c.012,0,.02-.012.031-.016a.51.51,0,0,0,.111-.058.551.551,0,0,0,.086-.058.665.665,0,0,0,.075-.089.65.65,0,0,0,.061-.09.549.549,0,0,0,.034-.105.6.6,0,0,0,.024-.117c0-.012.007-.023.007-.036a.555.555,0,0,0-.017-.083.528.528,0,0,0-.007-.081L25.7,28.027c0-.012-.012-.02-.016-.031a.535.535,0,0,0-.059-.113.565.565,0,0,0-.057-.085.578.578,0,0,0-.092-.078.693.693,0,0,0-.085-.057.642.642,0,0,0-.113-.037.567.567,0,0,0-.11-.022c-.012,0-.024-.008-.037-.008H21.588c.482-.519,1.009-1.116,1.551-1.777h4.323l1.814,3.806a.561.561,0,0,0,.108.153c.014.014.031.025.046.038a.568.568,0,0,0,.115.078.607.607,0,0,0,.072.032.617.617,0,0,0,.151.031c.015,0,.028.009.044.009h4.024l.789,1.185H30.941l-.008,0a.581.581,0,0,0-.149.03.619.619,0,0,0-.082.021c-.006,0-.012,0-.017,0a.53.53,0,0,0-.092.069.553.553,0,0,0-.078.059.522.522,0,0,0-.154.348.464.464,0,0,0-.012.06s0,.006,0,.009a.586.586,0,0,0,.027.136.719.719,0,0,0,.024.1s0,.009,0,.013l.726,1.523H6.772l2.7-5.667s0-.008,0-.011a.578.578,0,0,0,.033-.13.555.555,0,0,0,.02-.1c0-.005,0-.009,0-.014a.537.537,0,0,0-.02-.1.366.366,0,0,0-.086-.222A.543.543,0,0,0,9.37,27.2a.594.594,0,0,0-.114-.085.522.522,0,0,0-.062-.046l-.011,0a.662.662,0,0,0-.119-.03.589.589,0,0,0-.113-.023l-.011,0h-2.9l.789-1.185h7.933c.542.66,1.069,1.258,1.551,1.777ZM5.252,28.19H8L5.46,33.52H1.7Zm31.468,7.7H1.185V34.7H36.72Z" transform="translate(0 0)" fill="#fff"/>
      <path id="Trazado_211-2" data-name="Trazado 211" d="M31.845,19.754a1.779,1.779,0,0,0,1.777-1.777.592.592,0,0,0,0-1.185,6.522,6.522,0,0,0-5.113-6.358,1.462,1.462,0,0,0,.079-.454,1.481,1.481,0,1,0-2.961,0,1.462,1.462,0,0,0,.079.454,6.523,6.523,0,0,0-5.113,6.358.592.592,0,0,0,0,1.185,1.779,1.779,0,0,0,1.777,1.777Zm0-1.185H22.369a.592.592,0,0,1-.592-.592H32.437A.592.592,0,0,1,31.845,18.569ZM27.107,9.685a.3.3,0,1,1-.3.3A.3.3,0,0,1,27.107,9.685Zm0,1.778a5.336,5.336,0,0,1,5.33,5.33h-.592a4.744,4.744,0,0,0-4.738-4.738.592.592,0,0,0,0,1.185,3.557,3.557,0,0,1,3.554,3.554H21.777A5.337,5.337,0,0,1,27.108,11.462Z" transform="translate(-8.155 -1.631)" fill="#fff"/>
    </g>
    <g id="takeaway" transform="translate(82 2.002)">
      <path id="Trazado_207" data-name="Trazado 207" d="M.591,37.818H37.226a.59.59,0,0,0,.591-.591V34.864a.59.59,0,0,0-.591-.591h0V11.837c0-.008,0-.015,0-.023V2.952a.6.6,0,0,0-.174-.418L34.693.172A.6.6,0,0,0,34.274,0H3.537a.6.6,0,0,0-.418.174L.755,2.534a.587.587,0,0,0-.128.192.6.6,0,0,0-.046.226v8.862a.5.5,0,0,0,.011.051V34.273h0A.59.59,0,0,0,0,34.864v2.363a.59.59,0,0,0,.591.591ZM1.763,3.2,2.946,2.015v9.211H1.763Zm34.285,8.029H34.865V2.015L36.048,3.2Zm-31.92,0V3.542H33.683v7.684ZM33.683,2.36H4.128V1.18H33.683ZM1.774,12.407H3.529l.009,0,.009,0H34.266l.009,0,.009,0h1.76V34.27h-.59V13.592A.59.59,0,0,0,34.863,13H3.251a.538.538,0,0,0-.148.03A.561.561,0,0,0,2.955,13a.59.59,0,0,0-.591.591V34.27h-.59Zm1.772,1.775H34.272V34.27h-1.29a1.732,1.732,0,0,0,.108-.587V21.277a.589.589,0,0,0-.107-.339l-1.961-2.8v-.5a.583.583,0,0,0,.294-.5V15.364a.59.59,0,0,0-.591-.591H27.182a.59.59,0,0,0-.591.591v1.773a.583.583,0,0,0,.295.5v.5l-1.963,2.8a.593.593,0,0,0-.107.339V33.683a1.729,1.729,0,0,0,.108.587H22.445a2.924,2.924,0,0,0,.6-1.767V30.726a.59.59,0,0,0,0-1.181V27.7a.614.614,0,0,0-.015-.074,2.938,2.938,0,0,0-1.184-2.213,2.943,2.943,0,0,0,1.2-2.362V21.271a.59.59,0,0,0,0-1.181V18.242a.614.614,0,0,0-.015-.074,2.951,2.951,0,0,0-2.94-2.806H8.273a2.958,2.958,0,0,0-2.954,2.954V20.09h0a.591.591,0,0,0,0,1.182h0v1.774h0a2.945,2.945,0,0,0,1.2,2.362,2.941,2.941,0,0,0-1.2,2.362v1.773h0a.591.591,0,1,0,0,1.182h0V32.5h0a2.924,2.924,0,0,0,.6,1.767H3.546ZM6.5,32.5h0V30.727H21.865V32.5a1.772,1.772,0,0,1-1.721,1.767H8.222A1.772,1.772,0,0,1,6.5,32.5Zm0-4.731A1.773,1.773,0,0,1,8.259,26H20.106a1.773,1.773,0,0,1,1.759,1.771v1.773H6.5Zm0-4.724h0V21.271H21.865v1.776a1.774,1.774,0,0,1-1.759,1.772l-.014,0H8.273l-.014,0A1.774,1.774,0,0,1,6.5,23.048Zm0-4.731a1.774,1.774,0,0,1,1.769-1.772H20.1a1.774,1.774,0,0,1,1.769,1.772V20.09H6.5Zm23.635-1.77H27.773v-.591h2.362Zm-2.174,2.112a.591.591,0,0,0,.107-.339v-.591h1.773v.591a.589.589,0,0,0,.107.339l1.961,2.8v1.585H26V21.463ZM26,33.683V28.956h5.91v4.727a.589.589,0,0,1-.574.587H26.567A.59.59,0,0,1,26,33.683Zm5.91-5.909H26V24.229h5.91Zm4.727,8.862H1.182V35.455H8.245c.009,0,.018,0,.028,0H20.092c.01,0,.019,0,.028,0h6.447l.023,0,.012,0H36.635Z" transform="translate(0 0)" fill="#b2b2b2"/>
      <path id="Trazado_208" data-name="Trazado 208" d="M24.317,46H19.59a.591.591,0,1,0,0,1.182h4.727a.591.591,0,1,0,0-1.182Z" transform="translate(-7.773 -18.82)" fill="#b2b2b2"/>
      <path id="Trazado_209" data-name="Trazado 209" d="M24.317,30H19.59a.591.591,0,1,0,0,1.182h4.727a.591.591,0,0,0,0-1.182Z" transform="translate(-7.773 -12.275)" fill="#b2b2b2"/>
    </g>
    <g id="takeaway-2" data-name="takeaway" transform="translate(82 42.002)">
      <path id="Trazado_207-2" data-name="Trazado 207" d="M.591,37.818H37.226a.59.59,0,0,0,.591-.591V34.864a.59.59,0,0,0-.591-.591h0V11.837c0-.008,0-.015,0-.023V2.952a.6.6,0,0,0-.174-.418L34.693.172A.6.6,0,0,0,34.274,0H3.537a.6.6,0,0,0-.418.174L.755,2.534a.587.587,0,0,0-.128.192.6.6,0,0,0-.046.226v8.862a.5.5,0,0,0,.011.051V34.273h0A.59.59,0,0,0,0,34.864v2.363a.59.59,0,0,0,.591.591ZM1.763,3.2,2.946,2.015v9.211H1.763Zm34.285,8.029H34.865V2.015L36.048,3.2Zm-31.92,0V3.542H33.683v7.684ZM33.683,2.36H4.128V1.18H33.683ZM1.774,12.407H3.529l.009,0,.009,0H34.266l.009,0,.009,0h1.76V34.27h-.59V13.592A.59.59,0,0,0,34.863,13H3.251a.538.538,0,0,0-.148.03A.561.561,0,0,0,2.955,13a.59.59,0,0,0-.591.591V34.27h-.59Zm1.772,1.775H34.272V34.27h-1.29a1.732,1.732,0,0,0,.108-.587V21.277a.589.589,0,0,0-.107-.339l-1.961-2.8v-.5a.583.583,0,0,0,.294-.5V15.364a.59.59,0,0,0-.591-.591H27.182a.59.59,0,0,0-.591.591v1.773a.583.583,0,0,0,.295.5v.5l-1.963,2.8a.593.593,0,0,0-.107.339V33.683a1.729,1.729,0,0,0,.108.587H22.445a2.924,2.924,0,0,0,.6-1.767V30.726a.59.59,0,0,0,0-1.181V27.7a.614.614,0,0,0-.015-.074,2.938,2.938,0,0,0-1.184-2.213,2.943,2.943,0,0,0,1.2-2.362V21.271a.59.59,0,0,0,0-1.181V18.242a.614.614,0,0,0-.015-.074,2.951,2.951,0,0,0-2.94-2.806H8.273a2.958,2.958,0,0,0-2.954,2.954V20.09h0a.591.591,0,0,0,0,1.182h0v1.774h0a2.945,2.945,0,0,0,1.2,2.362,2.941,2.941,0,0,0-1.2,2.362v1.773h0a.591.591,0,1,0,0,1.182h0V32.5h0a2.924,2.924,0,0,0,.6,1.767H3.546ZM6.5,32.5h0V30.727H21.865V32.5a1.772,1.772,0,0,1-1.721,1.767H8.222A1.772,1.772,0,0,1,6.5,32.5Zm0-4.731A1.773,1.773,0,0,1,8.259,26H20.106a1.773,1.773,0,0,1,1.759,1.771v1.773H6.5Zm0-4.724h0V21.271H21.865v1.776a1.774,1.774,0,0,1-1.759,1.772l-.014,0H8.273l-.014,0A1.774,1.774,0,0,1,6.5,23.048Zm0-4.731a1.774,1.774,0,0,1,1.769-1.772H20.1a1.774,1.774,0,0,1,1.769,1.772V20.09H6.5Zm23.635-1.77H27.773v-.591h2.362Zm-2.174,2.112a.591.591,0,0,0,.107-.339v-.591h1.773v.591a.589.589,0,0,0,.107.339l1.961,2.8v1.585H26V21.463ZM26,33.683V28.956h5.91v4.727a.589.589,0,0,1-.574.587H26.567A.59.59,0,0,1,26,33.683Zm5.91-5.909H26V24.229h5.91Zm4.727,8.862H1.182V35.455H8.245c.009,0,.018,0,.028,0H20.092c.01,0,.019,0,.028,0h6.447l.023,0,.012,0H36.635Z" transform="translate(0 0)" fill="#fff"/>
      <path id="Trazado_208-2" data-name="Trazado 208" d="M24.317,46H19.59a.591.591,0,1,0,0,1.182h4.727a.591.591,0,1,0,0-1.182Z" transform="translate(-7.773 -18.82)" fill="#fff"/>
      <path id="Trazado_209-2" data-name="Trazado 209" d="M24.317,30H19.59a.591.591,0,1,0,0,1.182h4.727a.591.591,0,0,0,0-1.182Z" transform="translate(-7.773 -12.275)" fill="#fff"/>
    </g>
    <g id="controls" transform="translate(124 3)">
      <path id="Trazado_217" data-name="Trazado 217" d="M4.974,25.919V1.622a.622.622,0,0,0-1.243,0v24.3a4.352,4.352,0,1,0,1.243,0ZM4.352,33.33a3.109,3.109,0,1,1,3.109-3.109A3.112,3.112,0,0,1,4.352,33.33Z" fill="#b2b2b2"/>
      <path id="Trazado_218" data-name="Trazado 218" d="M25.817,13.245V1.622a.622.622,0,0,0-1.243,0V13.206a4.479,4.479,0,0,0,0,8.9V33.952a.622.622,0,0,0,1.243,0V22.071a4.476,4.476,0,0,0,0-8.826Zm-.75,7.65A3.237,3.237,0,1,1,28.3,17.658,3.241,3.241,0,0,1,25.067,20.9Z" transform="translate(-7.787)" fill="#b2b2b2"/>
      <path id="Trazado_219" data-name="Trazado 219" d="M50.7,5.352a4.352,4.352,0,1,0-4.974,4.3v24.3a.622.622,0,0,0,1.243,0V9.655A4.355,4.355,0,0,0,50.7,5.352ZM46.352,8.461a3.109,3.109,0,1,1,3.109-3.109A3.112,3.112,0,0,1,46.352,8.461Z" transform="translate(-15.887)" fill="#b2b2b2"/>
    </g>
    <g id="controls-2" data-name="controls" transform="translate(124 43)">
      <path id="Trazado_217-2" data-name="Trazado 217" d="M4.974,25.919V1.622a.622.622,0,0,0-1.243,0v24.3a4.352,4.352,0,1,0,1.243,0ZM4.352,33.33a3.109,3.109,0,1,1,3.109-3.109A3.112,3.112,0,0,1,4.352,33.33Z" fill="#fff"/>
      <path id="Trazado_218-2" data-name="Trazado 218" d="M25.817,13.245V1.622a.622.622,0,0,0-1.243,0V13.206a4.479,4.479,0,0,0,0,8.9V33.952a.622.622,0,0,0,1.243,0V22.071a4.476,4.476,0,0,0,0-8.826Zm-.75,7.65A3.237,3.237,0,1,1,28.3,17.658,3.241,3.241,0,0,1,25.067,20.9Z" transform="translate(-7.787)" fill="#fff"/>
      <path id="Trazado_219-2" data-name="Trazado 219" d="M50.7,5.352a4.352,4.352,0,1,0-4.974,4.3v24.3a.622.622,0,0,0,1.243,0V9.655A4.355,4.355,0,0,0,50.7,5.352ZM46.352,8.461a3.109,3.109,0,1,1,3.109-3.109A3.112,3.112,0,0,1,46.352,8.461Z" transform="translate(-15.887)" fill="#fff"/>
    </g>
    <g id="moon" transform="translate(162 -9.158)">
      <g id="Grupo_324" data-name="Grupo 324" transform="translate(16.184 17.74)">
        <g id="Grupo_323" data-name="Grupo 323" transform="translate(0 0)">
          <path id="Trazado_222" data-name="Trazado 222" d="M169.836,74.038a.878.878,0,0,0-.609-.19H165.9l3.125-3.489.293-.324.15-.19a1.051,1.051,0,0,0,.127-.237.791.791,0,0,0,.055-.285.593.593,0,0,0-.293-.57,1.764,1.764,0,0,0-.831-.158h-3.885a.854.854,0,0,0-.578.174.585.585,0,0,0-.206.467q0,.4.269.491a2.54,2.54,0,0,0,.791.095h2.532q-.158.222-.411.522l-.649.728-.878.949L164.5,73.152q-.53.593-.7.791a.744.744,0,0,0,.071,1.021,1.076,1.076,0,0,0,.728.214h4.621a.9.9,0,0,0,.617-.182.6.6,0,0,0,.206-.467A.633.633,0,0,0,169.836,74.038Z" transform="translate(-163.629 -68.592)" fill="#b2b2b2"/>
        </g>
      </g>
      <g id="Grupo_326" data-name="Grupo 326" transform="translate(24.48 22.844)">
        <g id="Grupo_325" data-name="Grupo 325" transform="translate(0 0)">
          <path id="Trazado_223" data-name="Trazado 223" d="M252.429,124.582a.7.7,0,0,0-.491-.15H249.28l2.492-2.785.237-.261.15-.182a.83.83,0,0,0,.1-.19.632.632,0,0,0,.047-.229.475.475,0,0,0-.229-.459,1.408,1.408,0,0,0-.665-.127h-3.133a.688.688,0,0,0-.459.142.467.467,0,0,0-.166.372q0,.316.214.4a2.02,2.02,0,0,0,.633.071h2.026a4.7,4.7,0,0,1-.332.419l-.522.586-.68.791-.791.9q-.427.475-.562.649a.593.593,0,0,0,.055.791.854.854,0,0,0,.578.166h3.671a.72.72,0,0,0,.491-.142.483.483,0,0,0,.158-.372A.506.506,0,0,0,252.429,124.582Z" transform="translate(-247.516 -120.197)" fill="#b2b2b2"/>
        </g>
      </g>
      <g id="Grupo_328" data-name="Grupo 328" transform="translate(31.478 17.297)">
        <g id="Grupo_327" data-name="Grupo 327" transform="translate(0 0)">
          <path id="Trazado_224" data-name="Trazado 224" d="M324.484,69.6a.878.878,0,0,0-.609-.19h-3.347l3.125-3.489.293-.324.19-.229a1.051,1.051,0,0,0,.127-.237.791.791,0,0,0,.055-.285.594.594,0,0,0-.293-.57,1.766,1.766,0,0,0-.831-.158H319.27a.854.854,0,0,0-.578.174.585.585,0,0,0-.206.467q0,.4.269.491a2.54,2.54,0,0,0,.791.095h2.532q-.158.221-.411.522l-.657.744-.855.949-1.021,1.131q-.53.593-.7.791a.744.744,0,0,0,.071,1.021,1.076,1.076,0,0,0,.728.214h4.613a.9.9,0,0,0,.633-.158.6.6,0,0,0,.206-.467A.633.633,0,0,0,324.484,69.6Z" transform="translate(-318.269 -64.112)" fill="#b2b2b2"/>
        </g>
      </g>
      <g id="Grupo_330" data-name="Grupo 330" transform="translate(0 12.158)">
        <g id="Grupo_329" data-name="Grupo 329" transform="translate(0 0)">
          <path id="Trazado_225" data-name="Trazado 225" d="M34.963,36.107a.791.791,0,0,0-.87-.182A16.806,16.806,0,0,1,12.437,13.288a.791.791,0,0,0-1.021-1.068,18.4,18.4,0,1,0,23.69,24.766A.791.791,0,0,0,34.963,36.107Zm-16.545,9.97a16.83,16.83,0,0,1-8.189-31.531,18.141,18.141,0,0,0-.949,5.816A18.412,18.412,0,0,0,32.732,38.069,16.893,16.893,0,0,1,18.418,46.076Z" transform="translate(0 -12.158)" fill="#b2b2b2"/>
        </g>
      </g>
    </g>
    <g id="moon-2" data-name="moon" transform="translate(162 30.842)">
      <g id="Grupo_324-2" data-name="Grupo 324" transform="translate(16.184 17.74)">
        <g id="Grupo_323-2" data-name="Grupo 323" transform="translate(0 0)">
          <path id="Trazado_222-2" data-name="Trazado 222" d="M169.836,74.038a.878.878,0,0,0-.609-.19H165.9l3.125-3.489.293-.324.15-.19a1.051,1.051,0,0,0,.127-.237.791.791,0,0,0,.055-.285.593.593,0,0,0-.293-.57,1.764,1.764,0,0,0-.831-.158h-3.885a.854.854,0,0,0-.578.174.585.585,0,0,0-.206.467q0,.4.269.491a2.54,2.54,0,0,0,.791.095h2.532q-.158.222-.411.522l-.649.728-.878.949L164.5,73.152q-.53.593-.7.791a.744.744,0,0,0,.071,1.021,1.076,1.076,0,0,0,.728.214h4.621a.9.9,0,0,0,.617-.182.6.6,0,0,0,.206-.467A.633.633,0,0,0,169.836,74.038Z" transform="translate(-163.629 -68.592)" fill="#fff"/>
        </g>
      </g>
      <g id="Grupo_326-2" data-name="Grupo 326" transform="translate(24.48 22.844)">
        <g id="Grupo_325-2" data-name="Grupo 325" transform="translate(0 0)">
          <path id="Trazado_223-2" data-name="Trazado 223" d="M252.429,124.582a.7.7,0,0,0-.491-.15H249.28l2.492-2.785.237-.261.15-.182a.83.83,0,0,0,.1-.19.632.632,0,0,0,.047-.229.475.475,0,0,0-.229-.459,1.408,1.408,0,0,0-.665-.127h-3.133a.688.688,0,0,0-.459.142.467.467,0,0,0-.166.372q0,.316.214.4a2.02,2.02,0,0,0,.633.071h2.026a4.7,4.7,0,0,1-.332.419l-.522.586-.68.791-.791.9q-.427.475-.562.649a.593.593,0,0,0,.055.791.854.854,0,0,0,.578.166h3.671a.72.72,0,0,0,.491-.142.483.483,0,0,0,.158-.372A.506.506,0,0,0,252.429,124.582Z" transform="translate(-247.516 -120.197)" fill="#fff"/>
        </g>
      </g>
      <g id="Grupo_328-2" data-name="Grupo 328" transform="translate(31.478 17.297)">
        <g id="Grupo_327-2" data-name="Grupo 327" transform="translate(0 0)">
          <path id="Trazado_224-2" data-name="Trazado 224" d="M324.484,69.6a.878.878,0,0,0-.609-.19h-3.347l3.125-3.489.293-.324.19-.229a1.051,1.051,0,0,0,.127-.237.791.791,0,0,0,.055-.285.594.594,0,0,0-.293-.57,1.766,1.766,0,0,0-.831-.158H319.27a.854.854,0,0,0-.578.174.585.585,0,0,0-.206.467q0,.4.269.491a2.54,2.54,0,0,0,.791.095h2.532q-.158.221-.411.522l-.657.744-.855.949-1.021,1.131q-.53.593-.7.791a.744.744,0,0,0,.071,1.021,1.076,1.076,0,0,0,.728.214h4.613a.9.9,0,0,0,.633-.158.6.6,0,0,0,.206-.467A.633.633,0,0,0,324.484,69.6Z" transform="translate(-318.269 -64.112)" fill="#fff"/>
        </g>
      </g>
      <g id="Grupo_330-2" data-name="Grupo 330" transform="translate(0 12.158)">
        <g id="Grupo_329-2" data-name="Grupo 329" transform="translate(0 0)">
          <path id="Trazado_225-2" data-name="Trazado 225" d="M34.963,36.107a.791.791,0,0,0-.87-.182A16.806,16.806,0,0,1,12.437,13.288a.791.791,0,0,0-1.021-1.068,18.4,18.4,0,1,0,23.69,24.766A.791.791,0,0,0,34.963,36.107Zm-16.545,9.97a16.83,16.83,0,0,1-8.189-31.531,18.141,18.141,0,0,0-.949,5.816A18.412,18.412,0,0,0,32.732,38.069,16.893,16.893,0,0,1,18.418,46.076Z" transform="translate(0 -12.158)" fill="#fff"/>
        </g>
      </g>
    </g>
    <g id="door" transform="translate(188.956 -11.044)">
      <path id="Trazado_220" data-name="Trazado 220" d="M50.211,47.635H45.156V15.62a.649.649,0,0,0-.577-.645L27.51,13.048a.649.649,0,0,0-.722.645V14.97H19.4a.649.649,0,0,0-.649.649V47.635H13.693a.649.649,0,0,0,0,1.3H26.788v1.277a.649.649,0,0,0,.649.649.6.6,0,0,0,.074,0l17.032-1.922h5.668a.649.649,0,0,0,0-1.3ZM20.047,16.269h6.741v1.67H22.366a.649.649,0,0,0-.649.649V47.635h-1.67Zm2.969,31.366v-28.4h3.772v28.4ZM28.087,14.42,43.857,16.2V47.7l-15.77,1.781Z" transform="translate(0 0)" fill="#b2b2b2"/>
      <path id="Trazado_221" data-name="Trazado 221" d="M57.85,58.792a1.933,1.933,0,1,0,1.933,1.933,1.933,1.933,0,0,0-1.933-1.933Zm0,2.566a.634.634,0,1,1,.634-.634A.634.634,0,0,1,57.85,61.358Z" transform="translate(-26.964 -28.772)" fill="#b2b2b2"/>
    </g>
    <g id="door-2" data-name="door" transform="translate(188.956 28.956)">
      <path id="Trazado_220-2" data-name="Trazado 220" d="M50.211,47.635H45.156V15.62a.649.649,0,0,0-.577-.645L27.51,13.048a.649.649,0,0,0-.722.645V14.97H19.4a.649.649,0,0,0-.649.649V47.635H13.693a.649.649,0,0,0,0,1.3H26.788v1.277a.649.649,0,0,0,.649.649.6.6,0,0,0,.074,0l17.032-1.922h5.668a.649.649,0,0,0,0-1.3ZM20.047,16.269h6.741v1.67H22.366a.649.649,0,0,0-.649.649V47.635h-1.67Zm2.969,31.366v-28.4h3.772v28.4ZM28.087,14.42,43.857,16.2V47.7l-15.77,1.781Z" transform="translate(0 0)" fill="#fff"/>
      <path id="Trazado_221-2" data-name="Trazado 221" d="M57.85,58.792a1.933,1.933,0,1,0,1.933,1.933,1.933,1.933,0,0,0-1.933-1.933Zm0,2.566a.634.634,0,1,1,.634-.634A.634.634,0,0,1,57.85,61.358Z" transform="translate(-26.964 -28.772)" fill="#fff"/>
    </g>
    <g id="google-pay-primary-logo" transform="translate(7 87)">
      <g id="Grupo_23" data-name="Grupo 23" transform="translate(28.44 1.497)">
        <path id="Trazado_7" data-name="Trazado 7" d="M1043.31,65.912V73.5h-2.41V54.753h6.388a5.771,5.771,0,0,1,4.137,1.623,5.424,5.424,0,0,1,0,7.937,5.752,5.752,0,0,1-4.137,1.6l-3.978,0Zm0-8.85v6.546h4.038a3.263,3.263,0,0,0,2.445-5.489c-.022-.022-.041-.044-.063-.063a3.142,3.142,0,0,0-2.383-.995Zm15.394,3.194a5.973,5.973,0,0,1,4.216,1.426,5.063,5.063,0,0,1,1.544,3.913V73.5h-2.3V71.721h-.1a4.6,4.6,0,0,1-3.981,2.2,5.167,5.167,0,0,1-3.546-1.257,4.013,4.013,0,0,1-1.426-3.142,3.811,3.811,0,0,1,1.505-3.167,6.347,6.347,0,0,1,4.019-1.178,7.126,7.126,0,0,1,3.533.784v-.552a2.742,2.742,0,0,0-.995-2.131,3.409,3.409,0,0,0-2.325-.877,3.691,3.691,0,0,0-3.194,1.7l-2.12-1.336a5.9,5.9,0,0,1,5.178-2.511Zm-3.117,9.32a1.928,1.928,0,0,0,.8,1.571,2.939,2.939,0,0,0,1.872.628,3.848,3.848,0,0,0,2.71-1.126,3.519,3.519,0,0,0,1.2-2.645,4.921,4.921,0,0,0-3.142-.9,4.067,4.067,0,0,0-2.448.708,2.119,2.119,0,0,0-.986,1.762Zm22.1-8.9-8.041,18.484h-2.486l2.984-6.467-5.29-12.016h2.618l3.822,9.216h.052l3.719-9.216Z" transform="translate(-1040.9 -54.752)" fill="#5f6368"/>
      </g>
      <path id="Trazado_8" data-name="Trazado 8" d="M404.544,325.191a12.8,12.8,0,0,0-.186-2.191H394.2v4.148h5.817a4.982,4.982,0,0,1-2.15,3.273v2.694h3.473a10.527,10.527,0,0,0,3.2-7.923Z" transform="translate(-383.43 -314.174)" fill="#4285f4"/>
      <path id="Trazado_9" data-name="Trazado 9" d="M51.623,478.41a10.3,10.3,0,0,0,7.139-2.6l-3.473-2.694a6.532,6.532,0,0,1-9.713-3.415H42v2.776A10.768,10.768,0,0,0,51.623,478.41Z" transform="translate(-40.852 -456.866)" fill="#34a853"/>
      <path id="Trazado_10" data-name="Trazado 10" d="M4.724,224.1a6.453,6.453,0,0,1,0-4.123V217.2H1.148a10.77,10.77,0,0,0,0,9.675Z" transform="translate(0 -211.265)" fill="#fbbc04"/>
      <path id="Trazado_11" data-name="Trazado 11" d="M51.623,4.242a5.85,5.85,0,0,1,4.131,1.615l3.077-3.074A10.362,10.362,0,0,0,51.623-.023,10.773,10.773,0,0,0,42,5.911l3.577,2.776A6.442,6.442,0,0,1,51.623,4.242Z" transform="translate(-40.852 0.024)" fill="#ea4335"/>
    </g>
    <g id="apple-pay" transform="translate(90 87)">
      <path id="Trazado_5" data-name="Trazado 5" d="M11.169,3.237A4.518,4.518,0,0,0,12.2,0,4.661,4.661,0,0,0,9.207,1.52,4.264,4.264,0,0,0,8.128,4.61a3.522,3.522,0,0,0,3.041-1.373M12.2,4.9c-1.667-.1-3.09.932-3.874.932s-2.011-.883-3.335-.883A4.92,4.92,0,0,0,.82,7.5C-.945,10.593.33,15.154,2.1,17.656c.834,1.226,1.864,2.6,3.188,2.55,1.275-.049,1.766-.834,3.286-.834s1.962.834,3.335.785,2.256-1.226,3.09-2.5a9.877,9.877,0,0,0,1.373-2.845,4.443,4.443,0,0,1-.539-7.9A4.566,4.566,0,0,0,12.2,4.9" transform="translate(0.026)"/>
      <g id="Grupo_22" data-name="Grupo 22" transform="translate(19.679 1.422)">
        <path id="Trazado_6" data-name="Trazado 6" d="M47.064,2.9a5.832,5.832,0,0,1,6.13,6.081,5.9,5.9,0,0,1-6.229,6.13H42.994v6.327H40.1V2.9Zm-4.071,9.809h3.286c2.5,0,3.923-1.373,3.923-3.678,0-2.354-1.422-3.678-3.923-3.678H42.945v7.357ZM53.93,17.662c0-2.354,1.815-3.825,5.051-4.022l3.727-.2v-1.03c0-1.52-1.03-2.4-2.7-2.4a2.587,2.587,0,0,0-2.845,1.962H54.519c.147-2.452,2.256-4.267,5.591-4.267,3.286,0,5.395,1.717,5.395,4.463v9.318H62.856V19.281h-.049a4.806,4.806,0,0,1-4.267,2.452C55.794,21.733,53.93,20.065,53.93,17.662Zm8.779-1.226V15.357l-3.335.2c-1.667.1-2.6.834-2.6,2.011s.981,1.962,2.452,1.962a3.242,3.242,0,0,0,3.482-3.09ZM67.957,26.49V24.234a5.33,5.33,0,0,0,.883.049,2.268,2.268,0,0,0,2.4-1.913c0-.049.245-.834.245-.834L66.583,8h2.992l3.433,11.035h.049L76.49,8h2.943L74.381,22.272c-1.177,3.286-2.5,4.316-5.3,4.316C68.889,26.539,68.2,26.539,67.957,26.49Z" transform="translate(-40.1 -2.9)"/>
      </g>
    </g>
    <g id="Grupo_398" data-name="Grupo 398" transform="translate(168.709 87.186)">
      <path id="Trazado_230" data-name="Trazado 230" d="M8.32-2.14a4.937,4.937,0,0,0,2.1-.41,7.232,7.232,0,0,0,1.84-1.31L13.78-2.3A7,7,0,0,1,8.39.16,7.225,7.225,0,0,1,3.13-1.88,6.906,6.906,0,0,1,1.04-7.04a6.97,6.97,0,0,1,2.13-5.2,7.386,7.386,0,0,1,5.38-2.08,7.035,7.035,0,0,1,5.43,2.4l-1.5,1.64a6.55,6.55,0,0,0-1.89-1.34A5.293,5.293,0,0,0,8.5-12a4.966,4.966,0,0,0-3.56,1.37A4.619,4.619,0,0,0,3.5-7.13,4.832,4.832,0,0,0,4.93-3.57,4.633,4.633,0,0,0,8.32-2.14ZM24.04,0H22V-1.42A4.376,4.376,0,0,1,18.46.16a4.061,4.061,0,0,1-2.75-.94,3.148,3.148,0,0,1-1.09-2.51,2.642,2.642,0,0,1,1.16-2.35,5.556,5.556,0,0,1,3.14-.78h2.9v-.4q0-2.12-2.36-2.12a5.534,5.534,0,0,0-3.08,1.08l-1-1.4a6.888,6.888,0,0,1,4.4-1.54,4.769,4.769,0,0,1,3.07.95,3.6,3.6,0,0,1,1.19,2.99ZM21.8-3.96v-.9H19.28q-2.42,0-2.42,1.52a1.352,1.352,0,0,0,.6,1.19,2.931,2.931,0,0,0,1.67.41A3.03,3.03,0,0,0,21-2.34,1.92,1.92,0,0,0,21.8-3.96ZM31.82-8.54a2.972,2.972,0,0,0-2.5,1.08,4.6,4.6,0,0,0-.84,2.9V0H26.24V-10.64h2.24V-8.5a4.636,4.636,0,0,1,1.47-1.64,3.541,3.541,0,0,1,1.97-.66l.02,2.26ZM37.6.16a4.788,4.788,0,0,1-3.52-1.52,5.448,5.448,0,0,1-1.5-4,5.237,5.237,0,0,1,1.54-3.96,5.113,5.113,0,0,1,3.67-1.48A4.037,4.037,0,0,1,41.22-9v-5.84h2.24V0H41.22V-1.6A4.149,4.149,0,0,1,37.6.16ZM34.82-5.26a3.319,3.319,0,0,0,.98,2.48,3.181,3.181,0,0,0,2.3.96,2.971,2.971,0,0,0,2.24-.97,3.471,3.471,0,0,0,.92-2.49,3.651,3.651,0,0,0-.92-2.54,2.926,2.926,0,0,0-2.26-1.02,3.049,3.049,0,0,0-2.3,1.02A3.589,3.589,0,0,0,34.82-5.26Z" transform="translate(21 19.325)"/>
      <g id="surface1" transform="translate(-1.709 2.814)">
        <path id="Trazado_12" data-name="Trazado 12" d="M452.754,65.2l-3.648-3.655V76.191h4.883V68.166A4.186,4.186,0,0,0,452.754,65.2Zm0,0" transform="translate(-433.76 -59.45)" fill="#ffb782"/>
        <path id="Trazado_13" data-name="Trazado 13" d="M2.851,14.379.093,7.219a1.4,1.4,0,0,1,.8-1.8L13.912.4a1.4,1.4,0,0,1,1.8.8l2.758,7.16a1.4,1.4,0,0,1-.8,1.8L4.655,15.18A1.4,1.4,0,0,1,2.851,14.379Zm0,0" transform="translate(0 -0.308)" fill="#de4c3c"/>
        <path id="Trazado_14" data-name="Trazado 14" d="M47.8,101.961,32.2,108.011l1.039,2.7,15.61-6.048Zm0,0" transform="translate(-31.095 -98.487)" fill="#7a4930"/>
        <path id="Trazado_15" data-name="Trazado 15" d="M0,9.369V1.7A1.4,1.4,0,0,1,1.4.3h13.95a1.4,1.4,0,0,1,1.4,1.4V9.369a1.4,1.4,0,0,1-1.4,1.4H1.4A1.4,1.4,0,0,1,0,9.369Zm0,0" transform="translate(-0.004 -0.301)" fill="#4398d1"/>
        <path id="Trazado_16" data-name="Trazado 16" d="M111.465.3h-1.482L99.52,10.764h11.945a1.4,1.4,0,0,0,1.4-1.4V1.7A1.4,1.4,0,0,0,111.465.3Zm0,0" transform="translate(-96.119 -0.301)" fill="#3e8cc7"/>
        <path id="Trazado_17" data-name="Trazado 17" d="M40.832,163.609h1.4v.7h-1.4Zm0,0" transform="translate(-39.437 -158.029)" fill="#5eb3d1"/>
        <path id="Trazado_18" data-name="Trazado 18" d="M40.832,224.852h1.4v.7h-1.4Zm0,0" transform="translate(-39.437 -217.179)" fill="#5eb3d1"/>
        <path id="Trazado_19" data-name="Trazado 19" d="M224.555,224.852h1.4v.7h-1.4Zm0,0" transform="translate(-216.882 -217.179)" fill="#5eb3d1"/>
        <path id="Trazado_20" data-name="Trazado 20" d="M102.074,163.609h1.395v.7h-1.395Zm0,0" transform="translate(-98.586 -158.029)" fill="#5eb3d1"/>
        <path id="Trazado_21" data-name="Trazado 21" d="M163.313,163.609h1.4v.7h-1.4Zm0,0" transform="translate(-157.732 -158.029)" fill="#5eb3d1"/>
        <path id="Trazado_22" data-name="Trazado 22" d="M224.555,163.609h1.4v.7h-1.4Zm0,0" transform="translate(-216.882 -158.029)" fill="#5eb3d1"/>
        <path id="Trazado_23" data-name="Trazado 23" d="M418.484,41.129h.7v1.046h-.7Zm0,0" transform="translate(-404.185 -39.734)" fill="#5eb3d1"/>
        <path id="Trazado_24" data-name="Trazado 24" d="M377.656,41.129h.7v1.046h-.7Zm0,0" transform="translate(-364.752 -39.734)" fill="#5eb3d1"/>
        <path id="Trazado_25" data-name="Trazado 25" d="M336.828,41.129h.7v1.046h-.7Zm0,0" transform="translate(-325.319 -39.734)" fill="#5eb3d1"/>
        <path id="Trazado_26" data-name="Trazado 26" d="M296,41.129h.7v1.046H296Zm0,0" transform="translate(-285.89 -39.734)" fill="#5eb3d1"/>
        <path id="Trazado_27" data-name="Trazado 27" d="M408.277,490.23h6.278v3.487h-6.278Zm0,0" transform="translate(-394.327 -473.49)" fill="#88b337"/>
        <path id="Trazado_28" data-name="Trazado 28" d="M305.42,172.224a1.512,1.512,0,0,0-2.183,2.091l2.858,3.118a4.7,4.7,0,0,0,.1,4.826l.254.406h4.534v-4.883Zm0,0" transform="translate(-292.493 -165.924)" fill="#ffb782"/>
        <path id="Trazado_29" data-name="Trazado 29" d="M438.9,520.852h.7v.7h-.7Zm0,0" transform="translate(-423.902 -503.065)" fill="#6b962a"/>
        <path id="Trazado_30" data-name="Trazado 30" d="M40.832,43.361V41.687a.558.558,0,0,1,.558-.558h1.674a.558.558,0,0,1,.558.558v1.674a.558.558,0,0,1-.558.558H41.39A.558.558,0,0,1,40.832,43.361Zm0,0" transform="translate(-39.437 -39.734)" fill="#fdb62f"/>
        <path id="Trazado_31" data-name="Trazado 31" d="M40.832,71.75h1.046v.7H40.832Zm0,0" transform="translate(-39.437 -69.309)" fill="#fd7b2f"/>
        <path id="Trazado_32" data-name="Trazado 32" d="M91.867,71.75h1.046v.7H91.867Zm0,0" transform="translate(-88.728 -69.309)" fill="#fd7b2f"/>
        <path id="Trazado_33" data-name="Trazado 33" d="M481.589,288.308a.348.348,0,0,1-.247-.1l-1.4-1.4a.349.349,0,0,1,.493-.493l1.4,1.4a.349.349,0,0,1-.247.6Zm0,0" transform="translate(-463.453 -276.45)" fill="#f2a46f"/>
      </g>
    </g>
    <g id="Grupo_430" data-name="Grupo 430" transform="translate(-3629 -6214)">
      <g id="Trazado_273" data-name="Trazado 273" transform="translate(3876 6219)" fill="none">
        <path d="M14.5,0A14.5,14.5,0,0,1,29,14.5H14.5Z" stroke="none"/>
        <path d="M 16 1.585039138793945 L 16 13 L 27.41496086120605 13 C 27.08331871032715 10.09516334533691 25.79063415527344 7.405862808227539 23.69239044189453 5.307609558105469 C 21.59413719177246 3.209365844726562 18.90483665466309 1.916681289672852 16 1.585039138793945 M 14.5 0 C 22.50812911987305 0 29 6.491869926452637 29 14.5 L 14.5 14.5 L 14.5 0 Z" stroke="none" fill="#b2b2b2"/>
      </g>
      <g id="Trazado_272" data-name="Trazado 272" transform="translate(3874 6221)" fill="none">
        <path d="M14.5,0V14.5H29A14.5,14.5,0,1,1,14.5,0Z" stroke="none"/>
        <path d="M 13 1.585039138793945 C 10.09516334533691 1.916681289672852 7.405862808227539 3.209365844726562 5.307609558105469 5.307609558105469 C 2.852239608764648 7.762990951538086 1.5 11.0275707244873 1.5 14.5 C 1.5 17.97243118286133 2.852239608764648 21.23701095581055 5.307609558105469 23.69239044189453 C 7.762990951538086 26.14776039123535 11.0275707244873 27.5 14.5 27.5 C 17.97243118286133 27.5 21.23701095581055 26.14776039123535 23.69239044189453 23.69239044189453 C 25.79063415527344 21.59413719177246 27.08331871032715 18.90483665466309 27.41496086120605 16 L 14.5 16 L 13 16 L 13 14.5 L 13 1.585039138793945 M 14.5 0 L 14.5 14.5 L 29 14.5 C 29 22.50812911987305 22.50812911987305 29 14.5 29 C 6.491870880126953 29 0 22.50812911987305 0 14.5 C 0 6.491870880126953 6.491870880126953 0 14.5 0 Z" stroke="none" fill="#b2b2b2"/>
      </g>
    </g>
    <g id="Grupo_431" data-name="Grupo 431" transform="translate(-3629 -6174)">
      <g id="Trazado_273-2" data-name="Trazado 273" transform="translate(3876 6219)" fill="none">
        <path d="M14.5,0A14.5,14.5,0,0,1,29,14.5H14.5Z" stroke="none"/>
        <path d="M 16 1.585039138793945 L 16 13 L 27.41496086120605 13 C 27.08331871032715 10.09516334533691 25.79063415527344 7.405862808227539 23.69239044189453 5.307609558105469 C 21.59413719177246 3.209365844726562 18.90483665466309 1.916681289672852 16 1.585039138793945 M 14.5 0 C 22.50812911987305 0 29 6.491869926452637 29 14.5 L 14.5 14.5 L 14.5 0 Z" stroke="none" fill="#fff"/>
      </g>
      <g id="Trazado_272-2" data-name="Trazado 272" transform="translate(3874 6221)" fill="none">
        <path d="M14.5,0V14.5H29A14.5,14.5,0,1,1,14.5,0Z" stroke="none"/>
        <path d="M 13 1.585039138793945 C 10.09516334533691 1.916681289672852 7.405862808227539 3.209365844726562 5.307609558105469 5.307609558105469 C 2.852239608764648 7.762990951538086 1.5 11.0275707244873 1.5 14.5 C 1.5 17.97243118286133 2.852239608764648 21.23701095581055 5.307609558105469 23.69239044189453 C 7.762990951538086 26.14776039123535 11.0275707244873 27.5 14.5 27.5 C 17.97243118286133 27.5 21.23701095581055 26.14776039123535 23.69239044189453 23.69239044189453 C 25.79063415527344 21.59413719177246 27.08331871032715 18.90483665466309 27.41496086120605 16 L 14.5 16 L 13 16 L 13 14.5 L 13 1.585039138793945 M 14.5 0 L 14.5 14.5 L 29 14.5 C 29 22.50812911987305 22.50812911987305 29 14.5 29 C 6.491870880126953 29 0 22.50812911987305 0 14.5 C 0 6.491870880126953 6.491870880126953 0 14.5 0 Z" stroke="none" fill="#fff"/>
      </g>
    </g>
    <g id="bin" transform="translate(241.037 80.892)">
      <path id="Trazado_274" data-name="Trazado 274" d="M222.708,154.7a.31.31,0,0,0-.31.31v5.853a.31.31,0,0,0,.619,0v-5.853A.31.31,0,0,0,222.708,154.7Zm0,0" transform="translate(-215.515 -149.914)" fill="#e03563"/>
      <path id="Trazado_275" data-name="Trazado 275" d="M104.708,154.7a.31.31,0,0,0-.31.31v5.853a.31.31,0,1,0,.619,0v-5.853A.31.31,0,0,0,104.708,154.7Zm0,0" transform="translate(-101.169 -149.914)" fill="#e03563"/>
      <path id="Trazado_276" data-name="Trazado 276" d="M.876,3.935v7.629a1.708,1.708,0,0,0,.454,1.178,1.525,1.525,0,0,0,1.106.478H8.3A1.525,1.525,0,0,0,9.4,12.743a1.708,1.708,0,0,0,.454-1.178V3.935a1.183,1.183,0,0,0-.3-2.326H7.967V1.222A1.216,1.216,0,0,0,6.741,0H3.991A1.216,1.216,0,0,0,2.765,1.222v.387H1.18a1.183,1.183,0,0,0-.3,2.326ZM8.3,12.6H2.437A.981.981,0,0,1,1.5,11.564v-7.6H9.237v7.6A.981.981,0,0,1,8.3,12.6ZM3.385,1.222a.6.6,0,0,1,.607-.6h2.75a.6.6,0,0,1,.607.6v.387H3.385ZM1.18,2.228H9.553a.557.557,0,1,1,0,1.115H1.18a.557.557,0,0,1,0-1.115Zm0,0" transform="translate(0)" fill="#e03563"/>
      <path id="Trazado_277" data-name="Trazado 277" d="M163.708,154.7a.31.31,0,0,0-.31.31v5.853a.31.31,0,0,0,.619,0v-5.853A.31.31,0,0,0,163.708,154.7Zm0,0" transform="translate(-158.342 -149.914)" fill="#e03563"/>
    </g>
    <g id="robot_1_" data-name="robot (1)" transform="translate(283 5.168)">
      <path id="Trazado_281" data-name="Trazado 281" d="M.562,12.889H3.681a8.362,8.362,0,0,0,.792,1.905L2.266,17a.563.563,0,0,0,0,.8l2.385,2.386a.563.563,0,0,0,.8,0l2.208-2.208a8.356,8.356,0,0,0,1.9.792v3.119a.562.562,0,0,0,.562.562h3.374a.562.562,0,0,0,.562-.562V18.766a8.356,8.356,0,0,0,1.9-.792l2.208,2.208a.579.579,0,0,0,.8,0L21.35,17.8a.563.563,0,0,0,0-.8l-2.208-2.207a8.362,8.362,0,0,0,.792-1.905h3.119a.562.562,0,0,0,.562-.562V8.953a.562.562,0,0,0-.562-.562H19.933a8.364,8.364,0,0,0-.792-1.9l2.208-2.207a.563.563,0,0,0,0-.8L18.964,1.1a.562.562,0,0,0-.8,0L15.961,3.306a8.38,8.38,0,0,0-1.9-.792V-.606a.562.562,0,0,0-.562-.562H10.121a.562.562,0,0,0-.562.562V2.514a8.38,8.38,0,0,0-1.9.792L5.446,1.1a.579.579,0,0,0-.8,0L2.265,3.483a.563.563,0,0,0,0,.8L4.473,6.486a8.364,8.364,0,0,0-.792,1.9H.562A.562.562,0,0,0,0,8.953v3.374A.562.562,0,0,0,.562,12.889Zm.562-3.374h3a.562.562,0,0,0,.549-.442A7.234,7.234,0,0,1,5.656,6.7.562.562,0,0,0,5.58,6L3.458,3.881,5.048,2.29,7.17,4.412a.562.562,0,0,0,.7.076A7.245,7.245,0,0,1,10.241,3.5a.563.563,0,0,0,.442-.55v-3h2.249v3a.563.563,0,0,0,.442.55,7.245,7.245,0,0,1,2.369.985.562.562,0,0,0,.7-.076L18.566,2.29l1.59,1.591L18.035,6a.562.562,0,0,0-.076.7,7.232,7.232,0,0,1,.984,2.37.563.563,0,0,0,.549.442h3v2.249h-3a.563.563,0,0,0-.549.442,7.225,7.225,0,0,1-.984,2.369.563.563,0,0,0,.076.7L20.157,17.4l-1.591,1.591-2.121-2.122a.563.563,0,0,0-.7-.076,7.228,7.228,0,0,1-2.369.985.562.562,0,0,0-.443.549v3H10.683v-3a.562.562,0,0,0-.443-.549,7.228,7.228,0,0,1-2.369-.985.563.563,0,0,0-.7.076L5.048,18.989,3.458,17.4,5.58,15.277a.562.562,0,0,0,.076-.7,7.236,7.236,0,0,1-.985-2.37.562.562,0,0,0-.549-.441h-3Zm0,0" fill="#b2b2b2"/>
      <path id="Trazado_282" data-name="Trazado 282" d="M134.5,137.828a4.5,4.5,0,1,0-4.5-4.5A4.5,4.5,0,0,0,134.5,137.828Zm0-7.872a3.374,3.374,0,1,1-3.374,3.374A3.374,3.374,0,0,1,134.5,129.957Zm0,0" transform="translate(-122.691 -122.691)" fill="#b2b2b2"/>
      <path id="Trazado_283" data-name="Trazado 283" d="M106.185,111.2A6.185,6.185,0,1,0,100,105.017,6.185,6.185,0,0,0,106.185,111.2Zm0-11.245a5.06,5.06,0,1,1-5.06,5.06A5.06,5.06,0,0,1,106.185,99.957Zm0,0" transform="translate(-94.377 -94.377)" fill="#b2b2b2"/>
      <path id="Trazado_284" data-name="Trazado 284" d="M32.049,288.953v-4.5a.562.562,0,0,0-.562-.562H30.362v-4.5a.562.562,0,0,0-.562-.562h-5.06a.562.562,0,0,0-.562.562v4.5H21.366a.562.562,0,0,0-.562.562v4.5H2.811A2.815,2.815,0,0,0,0,291.764v1.125A2.814,2.814,0,0,0,2.811,295.7H32.049a2.814,2.814,0,0,0,2.811-2.811v-1.125A2.815,2.815,0,0,0,32.049,288.953Zm-1.125,0H26.989v-3.936h3.936Zm-5.623-9h3.936v3.936H25.3Zm-3.374,5.06h3.936v3.936H21.928Zm11.807,7.872a1.687,1.687,0,0,1-1.687,1.687H2.811a1.687,1.687,0,0,1-1.687-1.687v-1.125a1.687,1.687,0,0,1,1.687-1.687H32.049a1.687,1.687,0,0,1,1.687,1.687Zm0,0" transform="translate(0 -264.257)" fill="#b2b2b2"/>
      <path id="Trazado_285" data-name="Trazado 285" d="M281.687,488.832a1.687,1.687,0,1,0,1.687,1.687A1.687,1.687,0,0,0,281.687,488.832Zm0,2.249a.562.562,0,1,1,.562-.562A.562.562,0,0,1,281.687,491.081Zm0,0" transform="translate(-264.257 -462.449)" fill="#b2b2b2"/>
      <path id="Trazado_286" data-name="Trazado 286" d="M181.687,488.832a1.687,1.687,0,1,0,1.687,1.687A1.687,1.687,0,0,0,181.687,488.832Zm0,2.249a.562.562,0,1,1,.562-.562A.562.562,0,0,1,181.687,491.081Zm0,0" transform="translate(-169.879 -462.449)" fill="#b2b2b2"/>
      <path id="Trazado_287" data-name="Trazado 287" d="M381.687,488.832a1.687,1.687,0,1,0,1.687,1.687A1.687,1.687,0,0,0,381.687,488.832Zm0,2.249a.562.562,0,1,1,.562-.562A.562.562,0,0,1,381.687,491.081Zm0,0" transform="translate(-358.634 -462.449)" fill="#b2b2b2"/>
      <path id="Trazado_288" data-name="Trazado 288" d="M81.687,488.832a1.687,1.687,0,1,0,1.687,1.687A1.687,1.687,0,0,0,81.687,488.832Zm0,2.249a.562.562,0,1,1,.562-.562A.562.562,0,0,1,81.687,491.081Zm0,0" transform="translate(-75.502 -462.449)" fill="#b2b2b2"/>
      <path id="Trazado_289" data-name="Trazado 289" d="M481.687,488.832a1.687,1.687,0,1,0,1.687,1.687A1.687,1.687,0,0,0,481.687,488.832Zm0,2.249a.562.562,0,1,1,.562-.562A.562.562,0,0,1,481.687,491.081Zm0,0" transform="translate(-453.011 -462.449)" fill="#b2b2b2"/>
    </g>
    <g id="robot_1_2" data-name="robot (1)" transform="translate(283 45.168)">
      <path id="Trazado_281-2" data-name="Trazado 281" d="M.562,12.889H3.681a8.362,8.362,0,0,0,.792,1.905L2.266,17a.563.563,0,0,0,0,.8l2.385,2.386a.563.563,0,0,0,.8,0l2.208-2.208a8.356,8.356,0,0,0,1.9.792v3.119a.562.562,0,0,0,.562.562h3.374a.562.562,0,0,0,.562-.562V18.766a8.356,8.356,0,0,0,1.9-.792l2.208,2.208a.579.579,0,0,0,.8,0L21.35,17.8a.563.563,0,0,0,0-.8l-2.208-2.207a8.362,8.362,0,0,0,.792-1.905h3.119a.562.562,0,0,0,.562-.562V8.953a.562.562,0,0,0-.562-.562H19.933a8.364,8.364,0,0,0-.792-1.9l2.208-2.207a.563.563,0,0,0,0-.8L18.964,1.1a.562.562,0,0,0-.8,0L15.961,3.306a8.38,8.38,0,0,0-1.9-.792V-.606a.562.562,0,0,0-.562-.562H10.121a.562.562,0,0,0-.562.562V2.514a8.38,8.38,0,0,0-1.9.792L5.446,1.1a.579.579,0,0,0-.8,0L2.265,3.483a.563.563,0,0,0,0,.8L4.473,6.486a8.364,8.364,0,0,0-.792,1.9H.562A.562.562,0,0,0,0,8.953v3.374A.562.562,0,0,0,.562,12.889Zm.562-3.374h3a.562.562,0,0,0,.549-.442A7.234,7.234,0,0,1,5.656,6.7.562.562,0,0,0,5.58,6L3.458,3.881,5.048,2.29,7.17,4.412a.562.562,0,0,0,.7.076A7.245,7.245,0,0,1,10.241,3.5a.563.563,0,0,0,.442-.55v-3h2.249v3a.563.563,0,0,0,.442.55,7.245,7.245,0,0,1,2.369.985.562.562,0,0,0,.7-.076L18.566,2.29l1.59,1.591L18.035,6a.562.562,0,0,0-.076.7,7.232,7.232,0,0,1,.984,2.37.563.563,0,0,0,.549.442h3v2.249h-3a.563.563,0,0,0-.549.442,7.225,7.225,0,0,1-.984,2.369.563.563,0,0,0,.076.7L20.157,17.4l-1.591,1.591-2.121-2.122a.563.563,0,0,0-.7-.076,7.228,7.228,0,0,1-2.369.985.562.562,0,0,0-.443.549v3H10.683v-3a.562.562,0,0,0-.443-.549,7.228,7.228,0,0,1-2.369-.985.563.563,0,0,0-.7.076L5.048,18.989,3.458,17.4,5.58,15.277a.562.562,0,0,0,.076-.7,7.236,7.236,0,0,1-.985-2.37.562.562,0,0,0-.549-.441h-3Zm0,0" fill="#fff"/>
      <path id="Trazado_282-2" data-name="Trazado 282" d="M134.5,137.828a4.5,4.5,0,1,0-4.5-4.5A4.5,4.5,0,0,0,134.5,137.828Zm0-7.872a3.374,3.374,0,1,1-3.374,3.374A3.374,3.374,0,0,1,134.5,129.957Zm0,0" transform="translate(-122.691 -122.691)" fill="#fff"/>
      <path id="Trazado_283-2" data-name="Trazado 283" d="M106.185,111.2A6.185,6.185,0,1,0,100,105.017,6.185,6.185,0,0,0,106.185,111.2Zm0-11.245a5.06,5.06,0,1,1-5.06,5.06A5.06,5.06,0,0,1,106.185,99.957Zm0,0" transform="translate(-94.377 -94.377)" fill="#fff"/>
      <path id="Trazado_284-2" data-name="Trazado 284" d="M32.049,288.953v-4.5a.562.562,0,0,0-.562-.562H30.362v-4.5a.562.562,0,0,0-.562-.562h-5.06a.562.562,0,0,0-.562.562v4.5H21.366a.562.562,0,0,0-.562.562v4.5H2.811A2.815,2.815,0,0,0,0,291.764v1.125A2.814,2.814,0,0,0,2.811,295.7H32.049a2.814,2.814,0,0,0,2.811-2.811v-1.125A2.815,2.815,0,0,0,32.049,288.953Zm-1.125,0H26.989v-3.936h3.936Zm-5.623-9h3.936v3.936H25.3Zm-3.374,5.06h3.936v3.936H21.928Zm11.807,7.872a1.687,1.687,0,0,1-1.687,1.687H2.811a1.687,1.687,0,0,1-1.687-1.687v-1.125a1.687,1.687,0,0,1,1.687-1.687H32.049a1.687,1.687,0,0,1,1.687,1.687Zm0,0" transform="translate(0 -264.257)" fill="#fff"/>
      <path id="Trazado_285-2" data-name="Trazado 285" d="M281.687,488.832a1.687,1.687,0,1,0,1.687,1.687A1.687,1.687,0,0,0,281.687,488.832Zm0,2.249a.562.562,0,1,1,.562-.562A.562.562,0,0,1,281.687,491.081Zm0,0" transform="translate(-264.257 -462.449)" fill="#fff"/>
      <path id="Trazado_286-2" data-name="Trazado 286" d="M181.687,488.832a1.687,1.687,0,1,0,1.687,1.687A1.687,1.687,0,0,0,181.687,488.832Zm0,2.249a.562.562,0,1,1,.562-.562A.562.562,0,0,1,181.687,491.081Zm0,0" transform="translate(-169.879 -462.449)" fill="#fff"/>
      <path id="Trazado_287-2" data-name="Trazado 287" d="M381.687,488.832a1.687,1.687,0,1,0,1.687,1.687A1.687,1.687,0,0,0,381.687,488.832Zm0,2.249a.562.562,0,1,1,.562-.562A.562.562,0,0,1,381.687,491.081Zm0,0" transform="translate(-358.634 -462.449)" fill="#fff"/>
      <path id="Trazado_288-2" data-name="Trazado 288" d="M81.687,488.832a1.687,1.687,0,1,0,1.687,1.687A1.687,1.687,0,0,0,81.687,488.832Zm0,2.249a.562.562,0,1,1,.562-.562A.562.562,0,0,1,81.687,491.081Zm0,0" transform="translate(-75.502 -462.449)" fill="#fff"/>
      <path id="Trazado_289-2" data-name="Trazado 289" d="M481.687,488.832a1.687,1.687,0,1,0,1.687,1.687A1.687,1.687,0,0,0,481.687,488.832Zm0,2.249a.562.562,0,1,1,.562-.562A.562.562,0,0,1,481.687,491.081Zm0,0" transform="translate(-453.011 -462.449)" fill="#fff"/>
    </g>
    <g id="przelewy24-vector-logo" transform="translate(134.9 -45.732)">
      <path id="Trazado_410" data-name="Trazado 410" d="M-16.938,291.512l5.992-.012-.217,1.365-5.013,4.772h4.2l-.242,1.462H-18.4l.254-1.51,4.8-4.6h-3.83Z" transform="translate(-99.789 -102.459)" fill="#d13239"/>
      <path id="Trazado_411" data-name="Trazado 411" d="M-123.262,267.816a1.59,1.59,0,0,0-.519-.326,4.263,4.263,0,0,0-.7-.193c-.3-.048-.592-.072-.8-.085s-.314-.012-.314-.012h-4.566l-1.74,10.534h1.631l.64-3.9,3.165.012a4.868,4.868,0,0,0,2.1-.411,2.5,2.5,0,0,0,1.111-1.51s.1-.387.181-.87c.085-.519.181-1.148.217-1.486.024-.145.036-.242.036-.242a1.41,1.41,0,0,0,.024-.278,1.964,1.964,0,0,0-.217-.918A3.2,3.2,0,0,0-123.262,267.816Zm-1.256,1.86c0,.024-.145.87-.338,1.872a.833.833,0,0,1-.7.664,5.3,5.3,0,0,1-1.16.1l-2.646-.012.58-3.5,2.392.012H-126a7.6,7.6,0,0,1,.882.048.971.971,0,0,1,.5.157.614.614,0,0,1,.121.35A1.649,1.649,0,0,1-124.519,269.676Z" transform="translate(0 -81.094)" fill="#d13239"/>
      <path id="Trazado_412" data-name="Trazado 412" d="M97.652,267.2h1.57L97.47,277.734H95.9Z" transform="translate(-200.281 -81.094)" fill="#d13239"/>
      <path id="Trazado_413" data-name="Trazado 413" d="M179.7,291.512l1.51-.012.532,5.352,2.307-5.352h1.86l.544,5.376,2.307-5.376h1.57l-3.322,7.6H185.16l-.532-5.315-2.344,5.315h-1.812Z" transform="translate(-273.957 -102.459)" fill="#d13239"/>
      <g id="Grupo_713" data-name="Grupo 713" transform="translate(-111.359 188.945)">
        <path id="Trazado_414" data-name="Trazado 414" d="M43.979,290.869a6.977,6.977,0,0,0-1.848-.169,6.422,6.422,0,0,0-1.148.085,3.017,3.017,0,0,0-1.74.942,6.134,6.134,0,0,0-.821,2.489,11.847,11.847,0,0,0-.266,2.513,1.68,1.68,0,0,0,1.015,1.486,3.8,3.8,0,0,0,1.317.266,8.975,8.975,0,0,0,2.223-.121,2.7,2.7,0,0,0,1.462-.894,3.426,3.426,0,0,0,.387-.64,3.74,3.74,0,0,0,.217-.616l.1-.411H43.242s-.085,1.075-.966,1.172a7.894,7.894,0,0,1-1.522.048c-.169-.012-1.111.036-1.039-.749v-.048a3.584,3.584,0,0,1,.145-1.123l5.11-.012.217-1.268C45.465,292.379,45.283,291.292,43.979,290.869Zm-.35,2.766h-3.5l.133-.556a1.364,1.364,0,0,1,.362-.616,1.6,1.6,0,0,1,.846-.242,6.451,6.451,0,0,1,1.7.048.555.555,0,0,1,.459.338A2.45,2.45,0,0,1,43.628,293.636Z" transform="translate(-38.136 -290.7)" fill="#d13239"/>
        <path id="Trazado_415" data-name="Trazado 415" d="M51.461,336.5v.036C51.449,336.6,51.461,336.5,51.461,336.5Z" transform="translate(-49.846 -330.967)" fill="#d13239"/>
      </g>
      <g id="Grupo_714" data-name="Grupo 714" transform="translate(-101.731 188.945)">
        <path id="Trazado_416" data-name="Trazado 416" d="M131.2,336.592v0Z" transform="translate(-129.586 -331.047)" fill="#d13239"/>
        <path id="Trazado_417" data-name="Trazado 417" d="M123.679,290.869a6.977,6.977,0,0,0-1.848-.169,6.422,6.422,0,0,0-1.148.085,3.017,3.017,0,0,0-1.74.942,6.134,6.134,0,0,0-.821,2.489,11.847,11.847,0,0,0-.266,2.513,1.68,1.68,0,0,0,1.015,1.486,3.8,3.8,0,0,0,1.317.266,8.975,8.975,0,0,0,2.223-.121,2.777,2.777,0,0,0,1.462-.894,3.426,3.426,0,0,0,.387-.64,3.741,3.741,0,0,0,.217-.616l.1-.411h-1.631s-.085,1.075-.966,1.172a9.912,9.912,0,0,1-1.522.06c-.169-.012-1.111.036-1.039-.749v-.048a3.584,3.584,0,0,1,.145-1.123l5.11-.012.217-1.268C125.165,292.391,125,291.292,123.679,290.869Zm-.35,2.766h-3.5l.133-.556a1.364,1.364,0,0,1,.362-.616,1.6,1.6,0,0,1,.846-.242,6.451,6.451,0,0,1,1.7.048.555.555,0,0,1,.459.338A2.45,2.45,0,0,1,123.328,293.636Z" transform="translate(-117.836 -290.7)" fill="#d13239"/>
      </g>
      <path id="Trazado_418" data-name="Trazado 418" d="M266.335,291.424l1,5.557,2.839-5.557,1.595.012-4.1,7.937a8.283,8.283,0,0,1-1.2,1.8,2.072,2.072,0,0,1-1.111.568,2.7,2.7,0,0,1-.882,0l-.387-.072.242-1.413a2.237,2.237,0,0,0,1.015-.036c.375-.145.677-.8.677-.8l.193-.326-1.486-7.7,1.595.024Z" transform="translate(-348.161 -102.371)" fill="#d13239"/>
      <path id="Trazado_419" data-name="Trazado 419" d="M324.148,269.909h1.643l.1-.64s.181-1.16.568-1.377a1.957,1.957,0,0,1,.568-.181,8,8,0,0,1,1.426-.073c.689.024.942.036,1.643.109a.573.573,0,0,1,.519.749l-.133,1a2.463,2.463,0,0,1-.217.725,1.424,1.424,0,0,1-.761.5c-.544.181-2.4.652-2.4.652l-1.462.423a3.637,3.637,0,0,0-1.4.809,3.317,3.317,0,0,0-.773,1.522c-.072.326-.459,2.609-.459,2.609h7.889l.266-1.57-6.234.012.109-.64s.073-.664.338-.882a1.329,1.329,0,0,1,.628-.338c.3-.109,1.317-.374,1.317-.374l2.356-.64a3.7,3.7,0,0,0,1.788-1.039,5.7,5.7,0,0,0,.7-2.042,9.043,9.043,0,0,0,.036-1.715,1.9,1.9,0,0,0-.954-1.111,5.081,5.081,0,0,0-2.38-.314,8.186,8.186,0,0,0-2.839.35,2.28,2.28,0,0,0-1.4,1.426,9.524,9.524,0,0,0-.471,2.054Z" transform="translate(-399.946 -80.106)" fill="#b3b2b1"/>
      <path id="Trazado_420" data-name="Trazado 420" d="M402.824,273.92l1.111-6.62h-1.957l-6.1,6.548L395.6,275.5h5.327l-.387,2.332h1.643l.387-2.332h1.51l.266-1.583Zm-1.619,0h-3.443l4.192-4.47Z" transform="translate(-463.775 -81.182)" fill="#b3b2b1"/>
      <path id="Trazado_421" data-name="Trazado 421" d="M-31.8,242.837h5.026s1.123-.906,1.921-1.5,2.259-1.51,2.259-1.51l-2.839-1.329s-2.4,1.486-3.419,2.187c-.991.652-2.948,2.15-2.948,2.15Z" transform="translate(-88.007 -55.861)" fill="#b3b2b1"/>
      <path id="Trazado_422" data-name="Trazado 422" d="M40.532,201.973,38.2,200.4a44.067,44.067,0,0,1,4.917-2.319c2.8-1.111,4.3-1.583,4.3-1.583l.471,2.223s-2.694.906-4.24,1.631a28.667,28.667,0,0,0-3.117,1.619Z" transform="translate(-149.551 -18.935)" fill="#b3b2b1"/>
      <path id="Trazado_423" data-name="Trazado 423" d="M129.711,179.952l-.411-2.271s2.875-.761,5.509-1.256,6.125-.725,6.125-.725l-1.16,3.515a25.108,25.108,0,0,0-5.956-.024,33.434,33.434,0,0,0-4.107.761Z" transform="translate(-229.646 -0.648)" fill="#b3b2b1"/>
      <path id="Trazado_424" data-name="Trazado 424" d="M231.2,178.87l1.945-3.9a53.824,53.824,0,0,1,7.925.483,55.514,55.514,0,0,1,6.958,1.474l-9.314,4.868a23.108,23.108,0,0,0-4.881-2.223c-1.522-.447-2.634-.7-2.634-.7Z" transform="translate(-319.236 0)" fill="#b3b2b1"/>
      <path id="Trazado_425" data-name="Trazado 425" d="M307.3,207.682l2.042,1.558h16.816a3.377,3.377,0,0,0-.483-1.317,8.408,8.408,0,0,0-1.317-1.522,13.738,13.738,0,0,0-1.546-1.172,23.6,23.6,0,0,0-3.854-2.03L307.3,207.682Z" transform="translate(-386.142 -24.826)" fill="#b3b2b1"/>
      <path id="Trazado_426" data-name="Trazado 426" d="M-56.737,291.5a3.719,3.719,0,0,0-1.74.532l.085-.532h-1.667l-1.341,7.562h1.679l.737-4.192a2.141,2.141,0,0,1,2.03-1.9h.87l.266-1.474Z" transform="translate(-61.983 -102.459)" fill="#d13239"/>
    </g>
  </g>
</svg>
