<svg xmlns="http://www.w3.org/2000/svg" xmlns:xlink="http://www.w3.org/1999/xlink" width="120" height="40" viewBox="0 0 120 40">
  <defs>
    <clipPath id="clip-sprite">
      <rect width="120" height="40"/>
    </clipPath>
  </defs>
  <g id="sprite" clip-path="url(#clip-sprite)">
    <rect id="Rectángulo_9" data-name="Rectángulo 9" width="40" height="40" fill="none"/>
    <rect id="Rectángulo_10" data-name="Rectángulo 10" width="40" height="40" transform="translate(40)" fill="none"/>
    <rect id="Rectángulo_17" data-name="Rectángulo 17" width="40" height="40" transform="translate(80)" fill="none"/>
    <path id="Trazado_5" data-name="Trazado 5" d="M-3.3,39.284a7.693,7.693,0,0,1-2.087-1.006A7.01,7.01,0,0,1-7,36.75a6.252,6.252,0,0,1-1-1.927A6.251,6.251,0,0,1-7,32.9a7.005,7.005,0,0,1,1.613-1.528A7.692,7.692,0,0,1-3.3,30.362,8.2,8.2,0,0,1-.873,30a8.2,8.2,0,0,1,2.425.363,7.682,7.682,0,0,1,2.087,1.006A7.007,7.007,0,0,1,5.251,32.9a6.251,6.251,0,0,1,1,1.927,6.249,6.249,0,0,1-1,1.927,7,7,0,0,1-1.613,1.527,7.683,7.683,0,0,1-2.087,1.006,8.2,8.2,0,0,1-2.425.362A8.2,8.2,0,0,1-3.3,39.284Zm-.843-4.461A3.219,3.219,0,0,0-.926,38.038,3.219,3.219,0,0,0,2.29,34.823,3.219,3.219,0,0,0-.926,31.608,3.219,3.219,0,0,0-4.142,34.823Zm.643,0a2.608,2.608,0,0,1,.057-.541,1.453,1.453,0,0,0,.9.312,1.447,1.447,0,0,0,.929-.339,1.449,1.449,0,0,0,.236-1.964,2.571,2.571,0,0,1,.451-.04,2.575,2.575,0,0,1,2.572,2.572A2.575,2.575,0,0,1-.926,37.4,2.575,2.575,0,0,1-3.5,34.823Z" transform="translate(21 -14.407)" fill="#1c4586"/>
    <g id="Grupo_1" data-name="Grupo 1" transform="translate(52 13.76)">
      <path id="Trazado_7" data-name="Trazado 7" d="M41.008-5.234,25.6-17.271a.515.515,0,0,1-.088-.722l.317-.406a.514.514,0,0,1,.722-.088l3.462,2.705a7.788,7.788,0,0,1,1.428-.6,8.2,8.2,0,0,1,2.425-.363,8.2,8.2,0,0,1,2.425.363,7.679,7.679,0,0,1,2.087,1.006,6.993,6.993,0,0,1,1.613,1.528,6.235,6.235,0,0,1,1,1.927,6.229,6.229,0,0,1-1,1.927,6.888,6.888,0,0,1-1.1,1.145l3.072,2.4a.514.514,0,0,1,.089.722l-.317.406a.513.513,0,0,1-.406.2A.512.512,0,0,1,41.008-5.234Zm-4.29-5.31a3.206,3.206,0,0,0,.311-1.378,3.219,3.219,0,0,0-3.215-3.215,3.2,3.2,0,0,0-1.714.5,3.252,3.252,0,0,0-.326.236l1.754,1.37a1.448,1.448,0,0,0-.166-1.419,2.6,2.6,0,0,1,.451-.039,2.575,2.575,0,0,1,2.572,2.572,2.57,2.57,0,0,1-.189.971ZM31.441-7.462a7.708,7.708,0,0,1-2.087-1.006A7.022,7.022,0,0,1,27.741-10a6.26,6.26,0,0,1-1-1.927,6.25,6.25,0,0,1,1-1.927l.02-.026L30.61-11.65a3.206,3.206,0,0,0,1.024,2.088,3.2,3.2,0,0,0,2.18.854,3.238,3.238,0,0,0,.511-.041l1.733,1.354a8.245,8.245,0,0,1-2.192.295A8.215,8.215,0,0,1,31.441-7.462Zm2.091-1.9A2.591,2.591,0,0,1,31.4-11.033l2.132,1.666h0Z" transform="translate(-25.404 18.596)" fill="#7c7c7c"/>
    </g>
    <path id="Trazado_8" data-name="Trazado 8" d="M28-1158H25v-13H38v3H28v10Z" transform="translate(945.892 -783.96) rotate(-135)"/>
  </g>
</svg>
