<svg xmlns="http://www.w3.org/2000/svg" width="400" height="829.999" viewBox="0 0 400 829.999">
  <g id="goalsio-example-1" transform="translate(-1036.184 -2828.627)">
    <g id="Grupo_101" data-name="Grupo 101" transform="translate(1036 2829)">
      <g id="Grupo_69" data-name="Grupo 69" transform="translate(0)">
        <path id="Sustracci칩n_1" data-name="Sustracci칩n 1" d="M340.183,829.626h-280a59.72,59.72,0,0,1-33.546-10.247A60.174,60.174,0,0,1,4.9,792.982,59.623,59.623,0,0,1,.184,769.627v-710A59.72,59.72,0,0,1,10.43,26.08a60.174,60.174,0,0,1,26.4-21.738A59.622,59.622,0,0,1,60.183-.373h280A59.72,59.72,0,0,1,373.73,9.874a60.175,60.175,0,0,1,21.738,26.4,59.623,59.623,0,0,1,4.715,23.355v710a59.72,59.72,0,0,1-10.247,33.546,60.175,60.175,0,0,1-26.4,21.738A59.624,59.624,0,0,1,340.183,829.626Zm-275-810a44.962,44.962,0,0,0-45,45v700a44.962,44.962,0,0,0,45,45h270a44.962,44.962,0,0,0,45-45v-700a44.962,44.962,0,0,0-45-45Z" transform="translate(0 0)" fill="#eff3f4"/>
        <path id="Trazado_61" data-name="Trazado 61" d="M-7.895-.025l215.92.109s-8.28-2.123-8.157,8.376a18.664,18.664,0,0,1-18.811,18.811H18.342C7.953,27.271-.469,16.832-.469,8.459S-7.895-.025-7.895-.025Z" transform="translate(100.078 19.192)" fill="#eff3f4"/>
        <rect id="Rect치ngulo_5134" data-name="Rect치ngulo 5134" width="364" height="45" transform="translate(20.183 18.627)" fill="#eff3f4"/>
      </g>
      <path id="Trazado_590" data-name="Trazado 590" d="M6.283,0A6.283,6.283,0,1,1,0,6.283,6.283,6.283,0,0,1,6.283,0Z" transform="translate(238.64 25.626)" fill="#e2e2e2"/>
      <path id="Trazado_589" data-name="Trazado 589" d="M3.427,0H47.982a3.427,3.427,0,1,1,0,6.855H3.427A3.427,3.427,0,0,1,3.427,0Z" transform="translate(175.184 28.627)" fill="#e2e2e2"/>
    </g>
  </g>
</svg>
