<svg xmlns="http://www.w3.org/2000/svg" width="389.665" height="70.369" viewBox="0 0 389.665 70.369">
  <g id="Grupo_853" data-name="Grupo 853" transform="translate(-777.433 -1062.837)">
    <path id="Trazado_609" data-name="Trazado 609" d="M5.613-68H26.162q7.793,0,11.759,1.74A19.7,19.7,0,0,1,45.227-60.4,30.162,30.162,0,0,1,50.469-49.68a59.964,59.964,0,0,1,1.9,16.375,52.611,52.611,0,0,1-1.995,15.331A30.739,30.739,0,0,1,45.32-7.654a19.6,19.6,0,0,1-7.4,5.729A27.686,27.686,0,0,1,26.765,0H5.613ZM16.838-56.5v45.042h8.442q5.427,0,7.863-1.021a9.487,9.487,0,0,0,3.989-3.085,17.677,17.677,0,0,0,2.574-6.517,54.413,54.413,0,0,0,1.021-11.736,53.553,53.553,0,0,0-1.044-11.921A15.8,15.8,0,0,0,36.437-52.6,10.334,10.334,0,0,0,31.079-55.9a44.482,44.482,0,0,0-9.138-.6ZM63.826,0V-68H105.2v11.5H75.052v15.076h28.018v11.458H75.052v18.508h31.172V0Zm53.853,0V-68h41.377v11.5H128.9v15.076h28.018v11.458H128.9v18.508h31.172V0Zm53.853,0V-68h23.7q9.092,0,12.988,1.832a14.405,14.405,0,0,1,6.4,6.355,22.034,22.034,0,0,1,2.5,10.831q0,7.979-3.827,12.849a17.021,17.021,0,0,1-10.878,6.123,28.127,28.127,0,0,1,5.984,5.682,80.373,80.373,0,0,1,6.448,11.063L221.63,0H208.224L200.06-14.8a97.715,97.715,0,0,0-5.984-10.043,8.829,8.829,0,0,0-3.34-2.783,15.266,15.266,0,0,0-5.659-.765h-2.319V0Zm11.226-39.243h8.35q7.654,0,9.741-.673a6.222,6.222,0,0,0,3.386-2.714,10,10,0,0,0,1.3-5.427,9.35,9.35,0,0,0-1.3-5.219,6.619,6.619,0,0,0-3.525-2.714q-1.577-.51-9.138-.51h-8.813Zm44.019,17.117,10.994-1.3q1.855,13.035,12.153,13.035,5.1,0,8.025-2.667a8.589,8.589,0,0,0,2.922-6.61,7.263,7.263,0,0,0-1.021-3.943,7.512,7.512,0,0,0-3.108-2.667,86.942,86.942,0,0,0-10.112-3.5q-7.19-2.18-10.53-4.731a17.946,17.946,0,0,1-5.311-6.7,20.551,20.551,0,0,1-1.971-8.929,19.934,19.934,0,0,1,2.528-10.02,16.534,16.534,0,0,1,6.981-6.726,24.008,24.008,0,0,1,10.994-2.273q9.834,0,15.354,5.334t5.845,15.261l-11.272.6q-.742-5.474-3.2-7.654t-7-2.18q-4.546,0-7,1.9a5.77,5.77,0,0,0-2.458,4.731,5.928,5.928,0,0,0,2.227,4.685q2.227,1.9,10.251,4.175,8.489,2.458,12.269,5.172a17.6,17.6,0,0,1,5.775,7A24.582,24.582,0,0,1,272.1-19.714a21.389,21.389,0,0,1-5.45,14.89q-5.45,6.03-17.047,6.03Q229.1,1.206,226.777-22.126Z" transform="translate(895 1132)" fill="#876b48"/>
    <path id="Trazado_608" data-name="Trazado 608" d="M3.433-33.584q0-12.153,3.595-20.016t9.393-11.713a24.834,24.834,0,0,1,14.055-3.85,24.115,24.115,0,0,1,19.506,9.138Q57.52-50.886,57.52-34q0,17.07-7.979,26.672-7,8.489-19.019,8.489-12.107,0-19.111-8.4Q3.433-16.838,3.433-33.584Zm11.6-.464q0,11.736,4.453,17.6t11.04,5.868q6.633,0,10.994-5.822t4.36-17.882q0-11.829-4.244-17.488a13.25,13.25,0,0,0-11.11-5.659,13.4,13.4,0,0,0-11.179,5.706Q15.029-46.016,15.029-34.048ZM68.233,0V-68h23.7q9.092,0,12.988,1.832a14.405,14.405,0,0,1,6.4,6.355,22.034,22.034,0,0,1,2.5,10.831q0,7.979-3.827,12.849a17.021,17.021,0,0,1-10.878,6.123,28.127,28.127,0,0,1,5.984,5.682,80.373,80.373,0,0,1,6.448,11.063L118.331,0H104.925L96.761-14.8A97.718,97.718,0,0,0,90.777-24.84a8.829,8.829,0,0,0-3.34-2.783,15.266,15.266,0,0,0-5.659-.765H79.459V0ZM79.459-39.243h8.35q7.654,0,9.741-.673a6.222,6.222,0,0,0,3.386-2.714,10,10,0,0,0,1.3-5.427,9.35,9.35,0,0,0-1.3-5.219,6.619,6.619,0,0,0-3.525-2.714q-1.577-.51-9.138-.51H79.459Z" transform="translate(774 1132)" fill="#90b0b9"/>
  </g>
</svg>
