<svg xmlns="http://www.w3.org/2000/svg" width="136.63" height="365.385" viewBox="0 0 136.63 365.385">
  <g id="Grupo_843" data-name="Grupo 843" transform="translate(9739.878 -6626.557)">
    <path id="Trazado_454" data-name="Trazado 454" d="M-9618.313,6992.942s2.476-1.048,1.632-7.072c-5.137-17.278-8.066-26.292-6.133-46.319,1.228-19.509,15.172-23.878,16.971-37.977-11.1,2.139-21.115,15.408-23.58,8.654-7.766-17.473,37.227-57.58,23.58-62.786a10.928,10.928,0,0,0-12.895,1.561c-4.582,4.081-8.205,12.17-12.08,14.574-2.8,6.161-7.4,11.044-10,6.366-9.187-11.242,30.493-48.265,28.292-53.914s1.469-15.83,0-19.655c-12.523.794-17.773,14.684-17.773,14.684s1.33-10.825-3.938-10.65c-8.149,2.838-9.68,37.208-19.278,8.571-8.9-28.056,24.012-33.423,17.6-62.5-4.951-2.233-12.708,5.63-14.9,7.293-3.986,10.461-5.086,11.521-11.4,11.345-6.111-11.879-3.828-25.659,1.856-30.711,3.478-3.09,7.919-2.767,11.71-2.687,3,.063,5.648-.218,6.1-1.129,1.862-3.758-3.98-3.394-4.2-7.586-.072-1.442,1.992-2.129,3.767-5.55,3.271-6.306,6.831-16.572,2.265-19.593-2.225-.142-4.838,6.985-8.463,11.17-1.721,1.986-2.91,1.075-4.656,2.679-3.623,3.325-4.863,7.937-7.294,8.165s-.679-13.106-3.358-14.067-2.361,11.99-8.678,12.873c-2.881.4-8.332-5.832-7.663-16.1.792-12.141,15.74-20.142,8.057-28.715-1.744-1.946-1.045,8.781-10.19,8.514-3.019-.088-11-.522-9.807-18.115-3.678-5.827-8.86-10.325-17.373-18.072-6.016-6.784-13.381-18.563-14.582-18.629-2.017,1.092-2.543,8.809-1.867,16.791.3,3.573,1.867,6.555,1.867,10.2,0,11.576-.416,17.491,1.795,21.15s24.959,16.938,21.946,25.833c-11.409,9.876-18.981-1.816-24.931-4.232-11,.728-13.968,11.424-13.968,11.424s3.834-.245,11.515,4.788c7.5.794,17.012-.535,23.814,2.408,8.82,3.815,10.9,7.716,10.607,15.2-.1,2.612-.025,9.2-4.278,9-7.678-.374-17.882-12.146-21.53-9s.766,5.116,0,9.546-13.781,4.013-11.422,10.072,16.29,9.515,28.9,5.04,24.933,22.961,17.979,28.076-13.449-8.683-17.164-10.958c-1.281-.784-3.994.789-3.537,3.374.822,4.659,7.506,7.494,4.645,12.52-4.051,6.5-16.836-.669-16.092,7.583-.718,12.507,29.17,7.331,29.377,11.4s-5.688,7.552-5.613,10.253c2.551,4.388,11.162.16,14.423,2.2,11.171,11.529,20.052,19.53,19.72,31.108-.334,2.72-5.226,5.088-12.6,2.87-10.506-5.051-24.3-11.774-24.777-9.83-.385,1.56.065,8.625,5,16.093,2.927,4.429,14.314,6.247,18.405,9.921,5.981,6.283,19.677,17.577,18.193,25.158-.581,2.971,1.265,5.594,0,7.332-1.827,2.514-5.479-1.088-7.38,1.428-.262.348-1.4,3.269,1,6.821,2.213,3.278,6.373,6.181,9.864,9.773,3.328,3.425.264.232,7.5,9.052C-9641.031,6932.625-9618.313,6992.942-9618.313,6992.942Z" transform="translate(0 -1)" fill="#3c6238"/>
    <path id="Trazado_455" data-name="Trazado 455" d="M-9678.623,6639.454l28.5,78.394s-12.893-.431-15.11.563c3.369.325,15.711,1.117,16.1,2.252,2.508,7.243,12.795,37.012,17.777,52.354,4.021,12.382,7.507,24.663,10.379,35.506.146.554-11.984-7.887-29.3-6.067,13.986-.3,30.092,9.07,30.271,9.762,4.415,16.973,7.139,29.6,7.727,31.586,2.727,9.19,2.3,16.431,5.627,33.94.045.241-5.27-.345-10.182-2.37-3.442-1.418-5.93-4.08-9.705-5.432-6.6-2.361-11.821-3.2-11.879-2.9-.021.1-.391.938,1.66,1.887,2.537,1.175,5.268,1.386,9.6,3.17,5.492,2.263,11.053,5.42,15.406,7.521,2.655,1.281,5.4,2.038,5.578,2.23,3.16,16.026,7.209,31.986,7.209,31.986l24.775,85.341v-2.664s-10.492-38.462-21.8-87.286a91.006,91.006,0,0,1,6.108-14.488c6.7-11.992,16.84-26.364,16.778-26.624-.107-.466-9.673,9.459-16.778,19.816-4.336,6.318-7.535,15.156-7.617,14.808-1.968-8.312-4.279-17.505-5.8-26.489-1.106-6.557-1.511-11.77-2.876-18.21-.111-.525,5.233-11.7,9.482-17.3,8.585-9.716,17.365-18.351,17.127-19.37-.061-.259-2.858,3.388-7.115,7.581-2.928,2.884-6.831,5.656-10.012,9.307-5.98,6.865-10.644,14.46-10.734,14.093-5.238-21.163-7.2-32.854-13.184-53.455-4.393-15.126-8.936-29.671-13.5-43.55a22.605,22.605,0,0,1,5.441-9.3c1.918-2.009,9.9-6.714,12.3-8.968,8.7-8.168,13.123-14.124,13.019-14.441a170.548,170.548,0,0,1-14.025,13.4c-4.226,3.464-9.778,5.563-13.118,8.757-4.477,4.283-4.475,7.958-4.521,7.816-21.619-65.258-42.322-111.269-42.322-111.269Z" transform="translate(-43.323 -9.122)" fill="#77a758"/>
  </g>
</svg>
