<svg xmlns="http://www.w3.org/2000/svg" width="163.472" height="171.756" viewBox="0 0 163.472 171.756">
  <g id="Grupo_764" data-name="Grupo 764" transform="translate(8666.701 -7151.335)">
    <path id="Trazado_456" data-name="Trazado 456" d="M83.037,2.335c42.968,0,69.621,34.3,69.621,80.581S119.158,168.9,76.19,168.9,2.486,136.615-2.9,92.067C-2.9,81.1-1.849,63.288,2.324,53.71,15.638,23.15,50.253,2.335,83.037,2.335Z" transform="translate(-8655.888 7149)" fill="#ef5740"/>
    <g id="Grupo_763" data-name="Grupo 763" transform="translate(-8666.701 7165.717)">
      <path id="Trazado_457" data-name="Trazado 457" d="M-8535.785,7186.877c-6.851-6.254-30.448-2.945-45.371,6.668-11.98,7.718-23.217,20.8-20.715,29.784,2.5,9.545,36.239,22.85,52,13.378S-8528.934,7193.131-8535.785,7186.877Z" transform="translate(8630.889 -7183.685)" fill="#c12327"/>
      <path id="Trazado_460" data-name="Trazado 460" d="M2.962,3.192C9.813-3.062,33.41.247,48.333,9.86c11.98,7.717,23.216,20.8,20.715,29.784,1.9,7.081-36.24,22.849-52,13.378S-3.889,9.446,2.962,3.192Z" transform="matrix(-0.574, 0.819, -0.819, -0.574, 149.175, 100.525)" fill="#c12327"/>
      <path id="Trazado_458" data-name="Trazado 458" d="M-8435.257,7208.252c-10.661,11.491-15.295,39.508-14.058,46.06s31.679,28.654,49.531,20.954c8.891-3.835,14.646-16.084,2.529-47.583C-8413.613,7197.713-8429.9,7202.483-8435.257,7208.252Z" transform="translate(8546.066 -7194.946)" fill="#c12327"/>
      <path id="Trazado_459" data-name="Trazado 459" d="M44.909,4.293C55.57,15.784,60.2,43.8,58.967,50.353S27.288,79.007,9.436,71.307C.545,67.472-5.21,55.223,6.906,23.724,23.266-6.246,39.557-1.475,44.909,4.293Z" transform="matrix(0.545, -0.839, 0.839, 0.545, 0, 91.768)" fill="#c12327"/>
    </g>
    <g id="Grupo_762" data-name="Grupo 762" transform="translate(-8643.286 7174.201)">
      <path id="Trazado_461" data-name="Trazado 461" d="M-8479.349,7213.733c1.556-.321,3.383-4.267,3.85-8.756s-4.872-1.1-5.835,1.089S-8480.9,7214.054-8479.349,7213.733Z" transform="translate(8540.505 -7202.769)" fill="#f77c61"/>
      <path id="Trazado_462" data-name="Trazado 462" d="M-8506.213,7218.356c-1.5.479-3.395-2.694-3.852-5.68s.521-5.784,2.022-6.263,3.53,1.2,3.988,4.348S-8504.71,7217.878-8506.213,7218.356Z" transform="translate(8556.349 -7204.749)" fill="#f77c61"/>
      <path id="Trazado_463" data-name="Trazado 463" d="M-8543.146,7219.609c-1.079.954-.408,4.893,1.291,7.5s4.428,3.874,5.507,2.919.508-4.131-1.191-6.735S-8542.066,7218.656-8543.146,7219.609Z" transform="translate(8574.95 -7211.99)" fill="#f77c61"/>
      <path id="Trazado_464" data-name="Trazado 464" d="M-8568.529,7242.069c-1.2,3.576.8,3.8,2.93,5.81s4.6,3.243,5.588,2.228.508-4.28-1.621-6.289S-8567.329,7238.494-8568.529,7242.069Z" transform="translate(8588.959 -7223.717)" fill="#f77c61"/>
      <path id="Trazado_465" data-name="Trazado 465" d="M-8588.883,7265.017c-2.018,2.913,1.273,4.195,3.865,5.931s6.063,2.335,6.5,1.014-2.146-4.561-4.738-6.3S-8586.867,7262.1-8588.883,7265.017Z" transform="translate(8600.411 -7236.491)" fill="#f77c61"/>
      <path id="Trazado_466" data-name="Trazado 466" d="M-8414.049,7225.087c-1.117-1.333-1.117-5.535,0-7.966s4.871-2.725,5.988-1.392-.023,4.385-1.521,6.725S-8412.932,7226.42-8414.049,7225.087Z" transform="translate(8503.422 -7209.53)" fill="#f77c61"/>
      <path id="Trazado_467" data-name="Trazado 467" d="M-8396.488,7237.173c-.257-1.585,2.639-6.161,4.652-7.477s3.214,1.229,3.4,2.215-.365,2.809-2.38,4.124S-8396.232,7238.757-8396.488,7237.173Z" transform="translate(8493.211 -7217.52)" fill="#f77c61"/>
      <path id="Trazado_468" data-name="Trazado 468" d="M-8381.277,7254.361c-1.482-1.668,2.973-5.944,5.646-6.833s5.415,2.26,3.277,4.163S-8379.795,7256.029-8381.277,7254.361Z" transform="translate(8484.918 -7227.544)" fill="#f77c61"/>
      <path id="Trazado_469" data-name="Trazado 469" d="M-8371.38,7279.98c2.229-1.353,5.779-3.7,7.705-3.309s3.241,1.956,1.011,3.309-4.332,3.095-6.259,2.707S-8373.61,7281.333-8371.38,7279.98Z" transform="translate(8479.718 -7243.793)" fill="#f77c61"/>
      <path id="Trazado_470" data-name="Trazado 470" d="M-8360.193,7304.652c-.465-3,5.366-4.723,7.672-4.466s3.469,4.375,1.551,5.491S-8359.729,7307.652-8360.193,7304.652Z" transform="translate(8473.058 -7256.863)" fill="#f77c61"/>
      <path id="Trazado_471" data-name="Trazado 471" d="M-8362.34,7335.76c.97-1.726,5.531-2.584,8.248-2.26s3.587,1.83,2.617,3.556a7.258,7.258,0,0,1-6.5,3.347C-8360.687,7340.078-8363.31,7337.485-8362.34,7335.76Z" transform="translate(8474.35 -7275.343)" fill="#f77c61"/>
      <path id="Trazado_472" data-name="Trazado 472" d="M2.3,10.964c1.556-.321,3.383-4.267,3.85-8.756S1.28,1.109.318,3.3.747,11.285,2.3,10.964Z" transform="translate(65.558 120.444) rotate(-175)" fill="#f77c61"/>
      <path id="Trazado_473" data-name="Trazado 473" d="M3.965,12.023C2.463,12.5.571,9.328.113,6.343S.634.559,2.136.081s3.531,1.2,3.988,4.348S5.468,11.544,3.965,12.023Z" transform="translate(78.33 119.971) rotate(-175)" fill="#f77c61"/>
      <path id="Trazado_474" data-name="Trazado 474" d="M.522.24c-1.079.954-.408,4.892,1.292,7.5s4.427,3.873,5.506,2.919S7.828,6.524,6.129,3.92,1.6-.714.522.24Z" transform="translate(93.667 115.495) rotate(-175)" fill="#f77c61"/>
      <path id="Trazado_475" data-name="Trazado 475" d="M.361,1.584c-1.2,3.575.8,3.8,2.929,5.809s4.6,3.243,5.587,2.228.508-4.28-1.621-6.289S1.56-1.991.361,1.584Z" transform="translate(105.655 107.12) rotate(-175)" fill="#f77c61"/>
      <path id="Trazado_476" data-name="Trazado 476" d="M.624,1.534C-1.392,4.447,1.9,5.729,4.49,7.465s6.062,2.334,6.5,1.013-2.146-4.561-4.738-6.3S2.641-1.38.624,1.534Z" transform="translate(115.678 97.734) rotate(-175)" fill="#f77c61"/>
      <path id="Trazado_477" data-name="Trazado 477" d="M.805,9.748C-.268,8.467-.268,4.429.805,2.094S5.486-.525,6.559.756,6.537,4.97,5.1,7.218,1.878,11.029.805,9.748Z" transform="matrix(-0.993, 0.122, -0.122, -0.993, 40.106, 108.666)" fill="#f77c61"/>
      <path id="Trazado_478" data-name="Trazado 478" d="M.015,7.539C-.231,6.016,2.551,1.619,4.486.355S7.574,1.537,7.757,2.483s-.351,2.7-2.287,3.963S.261,9.061.015,7.539Z" transform="matrix(-0.993, 0.122, -0.122, -0.993, 31.563, 103.523)" fill="#f77c61"/>
      <path id="Trazado_479" data-name="Trazado 479" d="M.283,6.714C-1.141,5.111,3.139,1,5.708.149s5.2,2.171,3.149,4S1.707,8.317.283,6.714Z" transform="matrix(-0.993, 0.122, -0.122, -0.993, 24.292, 96.649)" fill="#f77c61"/>
      <path id="Trazado_480" data-name="Trazado 480" d="M.8,3.22C2.94,1.92,6.351-.332,8.2.041s3.114,1.879.971,3.179S5.01,6.194,3.159,5.821-1.345,4.52.8,3.22Z" transform="matrix(-0.993, 0.122, -0.122, -0.993, 18.799, 84.731)" fill="#f77c61"/>
      <path id="Trazado_481" data-name="Trazado 481" d="M.025,4.316C-.422,1.433,5.181-.222,7.4.024s3.333,4.2,1.49,5.277S.472,7.2.025,4.316Z" transform="matrix(-0.993, 0.122, -0.122, -0.993, 12.49, 75.378)" fill="#f77c61"/>
      <path id="Trazado_482" data-name="Trazado 482" d="M.2,2.236C1.13.578,5.513-.247,8.123.065s3.447,1.759,2.515,3.417A6.974,6.974,0,0,1,4.4,6.7C1.786,6.386-.734,3.895.2,2.236Z" transform="matrix(-0.993, 0.122, -0.122, -0.993, 11.745, 61.15)" fill="#f77c61"/>
    </g>
    <path id="Trazado_483" data-name="Trazado 483" d="M-8541.278,7248.684c-7.331,3.906-8.353,11.834-7.113,15.339,2.429,6.875,15.888,9.086,13.231,18.768-2.8,10.324-10.5,5.321-16.918,6.782-7.006,1.593-11.437,6.152-4.958,16.566,5.843,9.391,13.084,7.063,16.831,2.869,3.916-4.381,7.016-9.992,14.177-7.36,6.874,2.527,4.026,12.425,5.86,19.854,1.762,7.134,8.194,11.839,17.9,4.771,19.491-14.194-11.633-19.757-7.34-33.7s33.362,4.586,24.516-22.083-18.692,8.262-32.57,3.21c-7.826-2.849-1.652-13.337-3.67-20.7C-8522.836,7247.5-8531.473,7243.46-8541.278,7248.684Z" transform="translate(-59.161 -52.723)" fill="#f77c61"/>
  </g>
</svg>
