<svg id="Grupo_842" data-name="Grupo 842" xmlns="http://www.w3.org/2000/svg" width="114.875" height="307.206" viewBox="0 0 114.875 307.206">
  <path id="Trazado_454" data-name="Trazado 454" d="M102.208,0s2.081.881,1.372,5.946C99.262,20.473,96.8,28.052,98.424,44.89c1.032,16.4,12.756,20.076,14.269,31.93-9.336-1.8-17.753-12.955-19.826-7.276-6.529,14.691,31.3,48.411,19.825,52.788a9.188,9.188,0,0,1-10.841-1.312c-3.852-3.431-6.9-10.233-10.157-12.254-2.358-5.18-6.222-9.286-8.41-5.352-7.724,9.452,25.638,40.58,23.787,45.33s1.235,13.309,0,16.526c-10.529-.667-14.943-12.346-14.943-12.346s1.118,9.1-3.311,8.955c-6.852-2.386-8.138-31.284-16.209-7.206-7.48,23.588,20.188,28.1,14.8,52.549-4.163,1.877-10.685-4.734-12.526-6.132-3.352-8.8-4.276-9.686-9.583-9.539-5.138,9.987-3.219,21.574,1.561,25.821,2.924,2.6,6.658,2.326,9.845,2.259,2.521-.053,4.749.183,5.128.949,1.566,3.159-3.347,2.854-3.527,6.378-.061,1.212,1.675,1.79,3.167,4.667,2.75,5.3,5.743,13.934,1.9,16.473-1.87.119-4.068-5.873-7.115-9.391-1.447-1.67-2.447-.9-3.915-2.252-3.046-2.8-4.089-6.673-6.133-6.865s-.571,11.019-2.824,11.827-1.985-10.081-7.3-10.823c-2.422-.339-7.005,4.9-6.443,13.539.666,10.208,13.234,16.935,6.774,24.143-1.466,1.636-.879-7.383-8.568-7.158-2.538.074-9.245.439-8.245,15.231-3.092,4.9-7.45,8.681-14.607,15.195-5.058,5.7-11.25,15.607-12.26,15.663-1.7-.918-2.138-7.406-1.57-14.117.255-3,1.57-5.511,1.57-8.577,0-9.733-.35-14.706,1.509-17.783S35.238,252.489,32.7,245.01c-9.593-8.3-15.959,1.527-20.961,3.558C2.5,247.957,0,238.964,0,238.964s3.224.206,9.681-4.026c6.3-.668,14.3.45,20.023-2.024,7.416-3.207,9.162-6.488,8.918-12.781-.085-2.2-.021-7.739-3.6-7.565-6.455.314-15.035,10.212-18.1,7.565s.644-4.3,0-8.026-11.587-3.374-9.6-8.468,13.7-8,24.3-4.238,20.963-19.3,15.116-23.606-11.308,7.3-14.431,9.213c-1.077.659-3.358-.663-2.974-2.837.691-3.917,6.311-6.3,3.905-10.526-3.406-5.463-14.155.562-13.53-6.376-.6-10.516,24.525-6.163,24.7-9.587s-4.783-6.35-4.719-8.621c2.145-3.689,9.385-.135,12.126-1.847,9.392-9.693,16.859-16.421,16.58-26.155-.281-2.287-4.394-4.278-10.592-2.413-8.833,4.247-20.429,9.9-20.832,8.264-.323-1.312.055-7.251,4.206-13.531,2.461-3.724,12.035-5.252,15.475-8.341,5.029-5.283,16.544-14.778,15.3-21.152-.489-2.5,1.063-4.7,0-6.165-1.536-2.114-4.607.915-6.2-1.2-.22-.292-1.181-2.748.837-5.735,1.861-2.756,5.358-5.2,8.294-8.217,2.8-2.88.222-.2,6.31-7.611C83.108,50.713,102.208,0,102.208,0Z" transform="translate(0 0)" fill="#5c8a34"/>
  <path id="Trazado_455" data-name="Trazado 455" d="M0,302.449l23.961-65.911s-10.84.362-12.7-.473c2.833-.273,13.209-.939,13.539-1.893,2.109-6.09,10.758-31.118,14.947-44.018,3.381-10.41,6.312-20.736,8.726-29.852.123-.466-10.076,6.631-24.637,5.1,11.759.253,25.3-7.626,25.451-8.207,3.712-14.27,6-24.891,6.5-26.557,2.292-7.727,1.933-13.814,4.731-28.536.038-.2-4.43.29-8.56,1.993-2.894,1.193-4.986,3.43-8.16,4.567-5.545,1.985-9.939,2.692-9.987,2.435-.018-.087-.328-.788,1.4-1.587,2.133-.988,4.429-1.165,8.069-2.665,4.618-1.9,9.293-4.557,12.953-6.323,2.232-1.077,4.542-1.714,4.69-1.875,2.657-13.475,6.061-26.893,6.061-26.893L87.8,0V2.24s-8.822,32.338-18.33,73.388a76.515,76.515,0,0,0,5.136,12.181c5.636,10.083,14.158,22.166,14.107,22.385-.09.392-8.133-7.953-14.107-16.661-3.646-5.312-6.335-12.743-6.4-12.45-1.654,6.989-3.6,14.718-4.875,22.271-.93,5.513-1.27,9.9-2.418,15.31-.094.442,4.4,9.841,7.973,14.548,7.218,8.169,14.6,15.429,14.4,16.285-.051.218-2.4-2.848-5.982-6.374-2.462-2.425-5.743-4.756-8.418-7.825-5.028-5.772-8.949-12.158-9.025-11.849-4.4,17.793-6.055,27.622-11.084,44.943-3.693,12.718-7.513,24.947-11.35,36.616A19.006,19.006,0,0,0,42,212.831c1.613,1.689,8.326,5.645,10.342,7.54,7.312,6.867,11.033,11.875,10.946,12.142a143.394,143.394,0,0,0-11.792-11.268c-3.553-2.912-8.221-4.677-11.029-7.363-3.764-3.6-3.762-6.69-3.8-6.571C18.487,262.178,1.081,300.864,1.081,300.864Z" transform="translate(15.076 1.583)" fill="#76a959"/>
</svg>
