<svg xmlns="http://www.w3.org/2000/svg" width="367.706" height="386.342" viewBox="0 0 367.706 386.342">
  <g id="Grupo_765" data-name="Grupo 765" transform="translate(8666.701 -7151.335)">
    <path id="Trazado_456" data-name="Trazado 456" d="M190.4,2.335c96.65,0,156.6,77.151,156.6,181.256S271.65,377,175,377,9.213,304.38-2.9,204.174C-2.9,179.5-.539,139.44,8.848,117.9,38.8,49.155,116.659,2.335,190.4,2.335Z" transform="translate(-8646 7149)" fill="#ffc625"/>
    <g id="Grupo_763" data-name="Grupo 763">
      <path id="Trazado_457" data-name="Trazado 457" d="M-8452.779,7190.865c-15.41-14.067-68.489-6.625-102.057,15-26.947,17.359-52.222,46.791-46.6,67,5.627,21.469,81.517,51.4,116.974,30.091S-8437.369,7204.933-8452.779,7190.865Z" fill="#e88b0c"/>
      <path id="Trazado_460" data-name="Trazado 460" d="M-8595.561,7190.865c15.41-14.067,68.489-6.625,102.057,15,26.947,17.359,52.222,46.791,46.6,67,4.273,15.928-81.517,51.4-116.974,30.091S-8610.971,7204.933-8595.561,7190.865Z" transform="matrix(-0.574, 0.819, -0.819, -0.574, -7380.654, 18576.723)" fill="#e88b0c"/>
      <path id="Trazado_458" data-name="Trazado 458" d="M-8417.449,7213.616c-23.98,25.848-34.405,88.867-31.62,103.6s71.256,64.453,111.413,47.133c20-8.625,32.942-36.178,5.689-107.03C-8368.766,7189.911-8405.411,7200.641-8417.449,7213.616Z" fill="#e88b0c"/>
      <path id="Trazado_459" data-name="Trazado 459" d="M-8348.492,7213.616c23.98,25.848,34.405,88.867,31.62,103.6s-71.256,64.453-111.413,47.133c-20-8.625-32.942-36.178-5.689-107.03C-8397.176,7189.911-8360.53,7200.641-8348.492,7213.616Z" transform="matrix(0.545, -0.839, 0.839, 0.545, -10106.517, -3619.806)" fill="#e88b0c"/>
    </g>
    <g id="Grupo_762" data-name="Grupo 762">
      <path id="Trazado_461" data-name="Trazado 461" d="M-8476.472,7227.432c3.5-.722,7.609-9.6,8.659-19.7s-10.96-2.474-13.125,2.45S-8479.972,7228.153-8476.472,7227.432Z" fill="#ffe378"/>
      <path id="Trazado_462" data-name="Trazado 462" d="M-8501.259,7233.377c-3.38,1.077-7.636-6.061-8.664-12.776s1.17-13.01,4.55-14.086,7.941,2.7,8.97,9.78S-8497.879,7232.3-8501.259,7233.377Z" fill="#ffe378"/>
      <path id="Trazado_463" data-name="Trazado 463" d="M-8542.493,7219.909c-2.427,2.146-.917,11,2.905,16.862s9.958,8.712,12.385,6.567,1.144-9.292-2.679-15.149S-8540.066,7217.764-8542.493,7219.909Z" fill="#ffe378"/>
      <path id="Trazado_464" data-name="Trazado 464" d="M-8568.078,7244.049c-2.7,8.042,1.8,8.547,6.589,13.066s10.338,7.295,12.568,5.011,1.143-9.627-3.646-14.146S-8565.38,7236.007-8568.078,7244.049Z" fill="#ffe378"/>
      <path id="Trazado_465" data-name="Trazado 465" d="M-8588.1,7266.933c-4.536,6.553,2.865,9.436,8.7,13.341s13.636,5.251,14.628,2.28-4.827-10.26-10.658-14.165S-8583.567,7260.379-8588.1,7266.933Z" fill="#ffe378"/>
      <path id="Trazado_466" data-name="Trazado 466" d="M-8413,7237.761c-2.513-3-2.513-12.451,0-17.917s10.957-6.13,13.47-3.131-.053,9.865-3.42,15.127S-8410.489,7240.76-8413,7237.761Z" fill="#ffe378"/>
      <path id="Trazado_467" data-name="Trazado 467" d="M-8396.469,7246.975c-.576-3.564,5.936-13.857,10.466-16.816s7.229,2.766,7.657,4.981-.822,6.317-5.354,9.276S-8395.893,7250.539-8396.469,7246.975Z" fill="#ffe378"/>
      <path id="Trazado_468" data-name="Trazado 468" d="M-8380.909,7263.091c-3.334-3.752,6.686-13.372,12.7-15.37s12.181,5.082,7.372,9.364S-8377.575,7266.844-8380.909,7263.091Z" fill="#ffe378"/>
      <path id="Trazado_469" data-name="Trazado 469" d="M-8370.344,7284.167c5.016-3.043,13-8.314,17.333-7.442s7.289,4.4,2.272,7.442-9.745,6.961-14.078,6.089S-8375.359,7287.211-8370.344,7284.167Z" fill="#ffe378"/>
      <path id="Trazado_470" data-name="Trazado 470" d="M-8360.16,7310.264c-1.046-6.748,12.07-10.624,17.257-10.047s7.8,9.841,3.488,12.353S-8359.114,7317.012-8360.16,7310.264Z" fill="#ffe378"/>
      <path id="Trazado_471" data-name="Trazado 471" d="M-8362.083,7338.667c2.182-3.882,12.442-5.812,18.553-5.083s8.068,4.117,5.887,8-8.5,8.257-14.612,7.528S-8364.265,7342.549-8362.083,7338.667Z" fill="#ffe378"/>
      <path id="Trazado_472" data-name="Trazado 472" d="M-8476.472,7227.432c3.5-.722,7.609-9.6,8.659-19.7s-10.96-2.474-13.125,2.45S-8479.972,7228.153-8476.472,7227.432Z" transform="translate(-17543.709 13909.826) rotate(-175)" fill="#ffe378"/>
      <path id="Trazado_473" data-name="Trazado 473" d="M-8501.259,7233.377c-3.38,1.077-7.636-6.061-8.664-12.776s1.17-13.01,4.55-14.086,7.941,2.7,8.97,9.78S-8497.879,7232.3-8501.259,7233.377Z" transform="translate(-17543.709 13909.826) rotate(-175)" fill="#ffe378"/>
      <path id="Trazado_474" data-name="Trazado 474" d="M-8542.493,7219.909c-2.427,2.146-.917,11,2.905,16.862s9.958,8.712,12.385,6.567,1.144-9.292-2.679-15.149S-8540.066,7217.764-8542.493,7219.909Z" transform="translate(-17543.709 13909.826) rotate(-175)" fill="#ffe378"/>
      <path id="Trazado_475" data-name="Trazado 475" d="M-8568.078,7244.049c-2.7,8.042,1.8,8.547,6.589,13.066s10.338,7.295,12.568,5.011,1.143-9.627-3.646-14.146S-8565.38,7236.007-8568.078,7244.049Z" transform="translate(-17543.709 13909.826) rotate(-175)" fill="#ffe378"/>
      <path id="Trazado_476" data-name="Trazado 476" d="M-8588.1,7266.933c-4.536,6.553,2.865,9.436,8.7,13.341s13.636,5.251,14.628,2.28-4.827-10.26-10.658-14.165S-8583.567,7260.379-8588.1,7266.933Z" transform="translate(-17543.709 13909.826) rotate(-175)" fill="#ffe378"/>
      <path id="Trazado_477" data-name="Trazado 477" d="M1.811,21.926C-.6,19.044-.6,9.962,1.811,4.709S12.339-1.181,14.754,1.7,14.7,11.18,11.468,16.236,4.225,24.808,1.811,21.926Z" transform="matrix(-0.993, 0.122, -0.122, -0.993, -8523.821, 7447.196)" fill="#ffe378"/>
      <path id="Trazado_478" data-name="Trazado 478" d="M.035,16.958C-.519,13.532,5.738,3.642,10.091.8s6.947,2.658,7.358,4.787-.79,6.071-5.144,8.914S.588,20.382.035,16.958Z" transform="matrix(-0.993, 0.122, -0.122, -0.993, -8543.037, 7435.629)" fill="#ffe378"/>
      <path id="Trazado_479" data-name="Trazado 479" d="M.637,15.1C-2.567,11.5,7.061,2.254,12.839.334s11.7,4.883,7.084,9S3.84,18.708.637,15.1Z" transform="matrix(-0.993, 0.122, -0.122, -0.993, -8559.392, 7420.166)" fill="#ffe378"/>
      <path id="Trazado_480" data-name="Trazado 480" d="M1.792,7.244C6.612,4.319,14.284-.746,18.448.093s7,4.226,2.184,7.151S11.268,13.932,7.1,13.094-3.027,10.168,1.792,7.244Z" transform="matrix(-0.993, 0.122, -0.122, -0.993, -8571.747, 7393.36)" fill="#ffe378"/>
      <path id="Trazado_481" data-name="Trazado 481" d="M.057,9.708C-.948,3.224,11.655-.5,16.639.055s7.5,9.457,3.352,11.87S1.062,16.193.057,9.708Z" transform="matrix(-0.993, 0.122, -0.122, -0.993, -8585.938, 7372.322)" fill="#ffe378"/>
      <path id="Trazado_482" data-name="Trazado 482" d="M.444,5.031C2.541,1.3,12.4-.555,18.271.146S26.024,4.1,23.928,7.832s-8.17,7.934-14.041,7.233S-1.652,8.761.444,5.031Z" transform="matrix(-0.993, 0.122, -0.122, -0.993, -8587.616, 7340.317)" fill="#ffe378"/>
    </g>
    <path id="Trazado_483" data-name="Trazado 483" d="M-8517.651,7251.714c-16.491,8.786-18.789,26.62-16,34.5,5.463,15.466,35.736,20.439,29.764,42.216-6.309,23.224-23.611,11.97-38.056,15.255-15.76,3.584-25.729,13.839-11.152,37.265,13.144,21.123,29.43,15.888,37.859,6.454,8.807-9.854,15.781-22.477,31.889-16.556,15.461,5.684,9.056,27.947,13.183,44.658,3.963,16.048,18.431,26.631,40.264,10.731,43.842-31.928-26.168-44.439-16.51-75.809s75.044,10.317,55.144-49.672-42.046,18.584-73.261,7.221c-17.605-6.409-3.719-30-8.255-46.561C-8476.169,7249.056-8495.6,7239.964-8517.651,7251.714Z" fill="#ffe178"/>
  </g>
</svg>
