<svg xmlns="http://www.w3.org/2000/svg" xmlns:xlink="http://www.w3.org/1999/xlink" width="155.564" height="155.563" viewBox="0 0 155.564 155.563">
  <defs>
    <linearGradient id="linear-gradient" x1="0.5" y1="1" x2="0.5" gradientUnits="objectBoundingBox">
      <stop offset="0" stop-color="#1d76f2"/>
      <stop offset="1" stop-color="#1ac2fb"/>
    </linearGradient>
  </defs>
  <g id="Grupo_839" data-name="Grupo 839" transform="translate(-532.218 -1750.218)">
    <g id="app-store-1" transform="translate(550 1769)">
      <path id="Trazado_496" data-name="Trazado 496" d="M0,0H109.6V109.6H0Z" fill="url(#linear-gradient)"/>
      <path id="Trazado_497" data-name="Trazado 497" d="M172.562,255.169l.01,0-3.7,6.4a4.888,4.888,0,0,1-8.466-4.888l2.724-4.718.261-.453a4.033,4.033,0,0,1,3.923-1.611s5.423.589,5.815,3.407A3.3,3.3,0,0,1,172.562,255.169Zm52.445-16.358H213.477a1.7,1.7,0,0,1-1.263-.5l-.009-.015-12.343-21.379-.016.011-.74-1.061c-1.213-1.855-3.14,2.89-3.14,2.89-2.3,5.287.326,11.3,1.242,13.116l17.144,29.694a4.888,4.888,0,1,0,8.466-4.888l-4.287-7.425c-.083-.18-.228-.668.652-.67h5.824a4.888,4.888,0,1,0,0-9.776Zm-22.4,6.645s.615,3.131-1.766,3.131H158.22a4.888,4.888,0,0,1,0-9.776h10.959c1.769-.1,2.189-1.124,2.189-1.124l.01,0,14.3-24.776h0a1.091,1.091,0,0,0,.006-1l-4.724-8.182a4.888,4.888,0,0,1,8.466-4.888l2.191,3.795,2.187-3.788a4.888,4.888,0,1,1,8.466,4.888l-19.905,34.477c-.087.21-.114.539.534.6h11.9l0,.116S201.675,239.034,202.611,245.456Z" transform="translate(-136.921 -175.377)" fill="#fff"/>
    </g>
    <g id="Grupo_787" data-name="Grupo 787">
      <path id="Trazado_502" data-name="Trazado 502" d="M6,0H202a6,6,0,0,1,0,12H6A6,6,0,0,1,6,0Z" transform="translate(540.704 1750.218) rotate(45)" fill="#d90000"/>
      <path id="Trazado_503" data-name="Trazado 503" d="M6,12H202a6,6,0,1,0,0-12H6A6,6,0,0,0,6,12Z" transform="translate(687.781 1758.703) rotate(135)" fill="#d90000"/>
    </g>
  </g>
</svg>
