<svg xmlns="http://www.w3.org/2000/svg" xmlns:xlink="http://www.w3.org/1999/xlink" width="155.564" height="155.563" viewBox="0 0 155.564 155.563">
  <defs>
    <linearGradient id="linear-gradient" y1="0.5" x2="1" y2="0.5" gradientUnits="objectBoundingBox">
      <stop offset="0" stop-color="#63be6b"/>
      <stop offset="0.506" stop-color="#5bbc6a"/>
      <stop offset="1" stop-color="#4ab96a"/>
    </linearGradient>
    <linearGradient id="linear-gradient-2" y1="0.5" x2="0.999" y2="0.5" gradientUnits="objectBoundingBox">
      <stop offset="0" stop-color="#3ec6f2"/>
      <stop offset="1" stop-color="#45afe3"/>
    </linearGradient>
    <linearGradient id="linear-gradient-3" y1="0.5" x2="1" y2="0.5" gradientUnits="objectBoundingBox">
      <stop offset="0" stop-color="#faa51a"/>
      <stop offset="0.387" stop-color="#fab716"/>
      <stop offset="0.741" stop-color="#fac412"/>
      <stop offset="1" stop-color="#fac80f"/>
    </linearGradient>
    <linearGradient id="linear-gradient-4" y1="0.5" x2="1" y2="0.5" gradientUnits="objectBoundingBox">
      <stop offset="0" stop-color="#ec3b50"/>
      <stop offset="1" stop-color="#e7515b"/>
    </linearGradient>
  </defs>
  <g id="Grupo_840" data-name="Grupo 840" transform="translate(-718.218 -1750.218)">
    <g id="google-play-store" transform="translate(755 1769.001)">
      <path id="Trazado_492" data-name="Trazado 492" d="M61.438,33.406,3.521.3A2.332,2.332,0,0,0,1.174.328,2.318,2.318,0,0,0,0,2.347S.023,5.4.047,10.423L42.234,52.61Z" transform="translate(0 0)" fill="url(#linear-gradient)"/>
      <path id="Trazado_493" data-name="Trazado 493" d="M.2,44.4c.07,18.124.282,62.119.376,84.023L42.411,86.587Z" transform="translate(-0.153 -33.977)" fill="url(#linear-gradient-2)"/>
      <path id="Trazado_494" data-name="Trazado 494" d="M232.176,161.246,199.027,142.3,179.8,161.5,201.492,183.2,232.2,165.307a2.347,2.347,0,0,0,1.174-2.019A2.378,2.378,0,0,0,232.176,161.246Z" transform="translate(-137.589 -108.894)" fill="url(#linear-gradient-3)"/>
      <path id="Trazado_495" data-name="Trazado 495" d="M1.7,266.012c.047,7.818.07,12.818.07,12.818a2.29,2.29,0,0,0,1.174,2.019,2.332,2.332,0,0,0,2.348,0l59.936-34.957L43.535,224.2Z" transform="translate(-1.301 -171.566)" fill="url(#linear-gradient-4)"/>
    </g>
    <g id="Grupo_786" data-name="Grupo 786" transform="translate(30 9)">
      <rect id="Rect치ngulo_5112" data-name="Rect치ngulo 5112" width="208" height="12" rx="6" transform="translate(696.704 1741.218) rotate(45)" fill="#d90000"/>
      <rect id="Rect치ngulo_5113" data-name="Rect치ngulo 5113" width="208" height="12" rx="6" transform="translate(843.781 1749.703) rotate(135)" fill="#d90000"/>
    </g>
  </g>
</svg>
