<svg xmlns="http://www.w3.org/2000/svg" width="145.545" height="176.066" viewBox="0 0 145.545 176.066">
  <g id="Grupo_851" data-name="Grupo 851" transform="translate(-450.302 -3897.316)">
    <path id="Trazado_447" data-name="Trazado 447" d="M24.288,0l-.755,15.353L36.62,9.816l2.894,8.557-13.591,3.9,9.564,11.955-7.3,5.285L19.757,26.553,11.326,39.515l-7.3-5.285,9.564-11.955L0,18.373,2.894,9.816l13.088,5.537L15.227,0Z" transform="matrix(0.951, 0.309, -0.309, 0.951, 558.267, 4023.592)" fill="#ffacdf"/>
    <path id="Trazado_448" data-name="Trazado 448" d="M36.445,0,35.312,23.038l19.639-8.309L59.294,27.57,38.9,33.424,53.251,51.363,42.3,59.294,29.647,39.844,17,59.294,6.043,51.363,20.394,33.424,0,27.57,4.343,14.729l19.639,8.309L22.849,0Z" transform="translate(450.302 4000.269) rotate(-20)" fill="#ffc400"/>
    <path id="Trazado_449" data-name="Trazado 449" d="M15.925-50.947l-.848,17.239,14.7-6.217,3.25,9.608-15.26,4.38L28.5-12.514l-8.2,5.935L10.838-21.133,1.371-6.579l-8.2-5.935L3.915-25.937l-15.26-4.38,3.25-9.608L6.6-33.709,5.752-50.947Z" transform="translate(513 3948.264)" fill="#75c2d4"/>
  </g>
</svg>
