<svg xmlns="http://www.w3.org/2000/svg" width="572" height="782.206" viewBox="0 0 572 782.206">
  <g id="Grupo_715" data-name="Grupo 715" transform="translate(-2123 -195.999)">
    <path id="Trazado_396" data-name="Trazado 396" d="M11570,4481a288.128,288.128,0,0,1-57.639-5.811,284.45,284.45,0,0,1-102.267-43.033,286.828,286.828,0,0,1-103.618-125.831,284.563,284.563,0,0,1-16.665-53.685,288.783,288.783,0,0,1,0-115.277,284.463,284.463,0,0,1,43.033-102.267,287.584,287.584,0,0,1,74.841-75.606c.656-.453-6.482-9.854-5.6-10.447,1.605-1.084,11.235,6.649,13.092,5.449a285.159,285.159,0,0,1,43.5-23.017c.317-.135.4-7.386-8.363-11.6-28.76.821-56.413,10.212-108.721-64.836,80.873,45.454,150.154,59.7,110.347-27.84,3.138-1.2,50.384,27.449,23.507,82.29,2.466,8.4,4.524,13.969,5.656,13.6a283.039,283.039,0,0,1,31.259-8.279c6.52-1.334,13.1-2.44,19.99-3.351.848-.112,1.814-8.853,3-9,.889-.109,2.018,8.379,3.367,8.23a289.72,289.72,0,0,1,64.326.2c.6.069,3.366.4,4.237.517,6.531.84,13.48,1.994,20.357,3.4a285.539,285.539,0,0,1,31.907,8.492s-3.545,5.031,2.178-16.628c-7.965-21.726-24.032-41.844,28.3-82.726-8.563,19.605-43.615,124.769,109.3,32.993-67.866,99.283-106.5,48.958-107.636,61.564-.744,8.263-10.992,12.706-10.366,12.97a286.857,286.857,0,0,1,43.851,23.241c1.417.914,11.1-5.906,12.75-4.79.742.5-6.535,8.925-5.578,9.585a286.814,286.814,0,0,1,101.179,124.166,284.514,284.514,0,0,1,16.665,53.685,288.783,288.783,0,0,1,0,115.277,284.449,284.449,0,0,1-43.033,102.266,286.813,286.813,0,0,1-125.833,103.619,284.547,284.547,0,0,1-53.685,16.665A288.138,288.138,0,0,1,11570,4481Zm0-560a278.626,278.626,0,0,0-30.573,1.694c-.92.1-2.733-10.395-4.075-10.231-.84.1-1.221,10.866-2.424,11.027-5.921.794-12.064,1.832-18.148,3.077a273.692,273.692,0,0,0-30.238,8.027c-1.649.539,3.262,14.722-5.062-26.043,19.46-51.314-23-79.126-24.973-78.39,36.345,89.552-51.488,69.347-107.24,29.29,38.953,71.607,80.646,60.8,104.673,58.119,7.031,13.475,11.982,24.72,11.407,24.963a274.85,274.85,0,0,0-35.218,18.011c-2.235,1.352-17.4-9.258-19.978-7.587-1.227.795,10.137,13.837,8.653,14.839a274.8,274.8,0,0,0-99.271,120.553,272.653,272.653,0,0,0-15.966,51.433,276.688,276.688,0,0,0,0,110.441,272.508,272.508,0,0,0,41.229,97.975,274.8,274.8,0,0,0,120.551,99.271,272.671,272.671,0,0,0,51.433,15.966,276.688,276.688,0,0,0,110.441,0,272.516,272.516,0,0,0,97.976-41.228,274.791,274.791,0,0,0,99.272-120.551,272.667,272.667,0,0,0,15.966-51.432,276.688,276.688,0,0,0,0-110.441,272.508,272.508,0,0,0-41.229-97.976,275.518,275.518,0,0,0-74.01-74.01c-1.239-.837,11.609-13.717,10.084-14.711-1.844-1.2-18.1,9.488-20.372,8.092a272.9,272.9,0,0,0-36.255-18.643c-.748-.316,9.37-10.267,11.085-25.076,1.548-13.373,44.659,36.808,104.446-57.232-159.6,91.184-111.145-23-104.446-30.046-53.783,46.293-31.2,54.6-22.147,78.411-4.091,15.3-7.592,26.848-9.042,26.364a271.281,271.281,0,0,0-31.328-8.386c-5.361-1.1-10.77-2.034-16.474-2.845-1.274-.181-1.139-7.5-2.781-7.71-.811-.1-3.384,6.9-4.609,6.763A276.268,276.268,0,0,0,11570,3921Z" transform="translate(-9161 -3621)" fill="#fff"/>
    <g id="Grupo_675" data-name="Grupo 675" transform="translate(2254.653 618.506)">
      <g id="Grupo_650" data-name="Grupo 650" transform="translate(0 54.139)">
        <path id="Sustracción_12" data-name="Sustracción 12" d="M5605.888-883.6a21.005,21.005,0,0,1-6.2-1.047c-5.523-1.7-6.9-3.235-8.64-5.172-1.979-2.2-4.442-4.944-13.71-9.2-4.1-1.883-9.452-2.838-15.917-2.838A111.247,111.247,0,0,0,5537-898.585c-6.775,1.612-11.608,3.262-11.656,3.279l.02-.018a158.56,158.56,0,0,1,18.066-11.652A116.542,116.542,0,0,1,5560.986-915a57.53,57.53,0,0,1,18.737-3.647,32.669,32.669,0,0,1,6.469.618,96.8,96.8,0,0,1,16.745,5.4,13.659,13.659,0,0,1,4.276,3.165,28.338,28.338,0,0,1,4.33,5.934c-10.544-5.032-18.739-8.405-24.359-10.024a32.169,32.169,0,0,0-8.9-1.194,46.647,46.647,0,0,0-11.142,1.455,66.594,66.594,0,0,0-9.587,3.2,68.047,68.047,0,0,0-9.25,4.657l.016-.006a69.793,69.793,0,0,1,15.019-1.677,47.729,47.729,0,0,1,13.15,1.683c7.086,2.04,10.612,5.275,14.022,8.4,2.906,2.666,5.65,5.184,10.378,6.732a16.419,16.419,0,0,0,5.141.9,18.77,18.77,0,0,0,5.61-1.031l.141-.042a28.341,28.341,0,0,1,3.485-.857,26.917,26.917,0,0,1-.246,6.25,27.8,27.8,0,0,0-3.85.707A22,22,0,0,1,5605.888-883.6Z" transform="translate(-5525.347 918.645)" fill="#fff"/>
      </g>
      <g id="Grupo_651" data-name="Grupo 651" transform="translate(129.821 95.042) rotate(-158)">
        <path id="Sustracción_13" data-name="Sustracción 13" d="M5605.242-826.692h0A40.268,40.268,0,0,1,5594.766-828c-6.755-1.822-15.618-5.462-26.343-10.818-.393-2.081-.725-3.932-.989-5.5,11.306,5.825,20.051,9.825,26,11.887a39.443,39.443,0,0,0,12.953,2.074,59.97,59.97,0,0,0,18.738-3.317,59.133,59.133,0,0,0,7.974-3.314l-.02,0a69.19,69.19,0,0,1-9.307.588,71.494,71.494,0,0,1-9.395-.6,53.5,53.5,0,0,1-10.436-2.411c-7.472-2.591-11.344-6.039-15.088-9.374-3.191-2.842-6.2-5.526-11.2-7.436a18.16,18.16,0,0,0-6.587-1.368,22.231,22.231,0,0,0-4.528.57l-.093.018c-.295.058-.562.111-.839.164-.312-1.429-.75-3.314-1.342-5.764.832-.065,1.627-.175,2.4-.281a27.5,27.5,0,0,1,3.9-.342,22.937,22.937,0,0,1,7.958,1.614c5.833,2.131,7.361,3.737,9.3,5.77,2.2,2.312,4.938,5.188,14.819,10.125,5.85,2.922,13.84,4.4,23.75,4.4a131.518,131.518,0,0,0,20.637-1.78c5.494-.884,9.113-1.771,9.149-1.78l-.019.015a133.677,133.677,0,0,1-16.358,9.072,112.335,112.335,0,0,1-16.367,6.248A66.262,66.262,0,0,1,5605.242-826.692Z" transform="translate(-5520.668 869.294)" fill="#fff"/>
      </g>
    </g>
    <path id="Sustracción_9" data-name="Sustracción 9" d="M7846.216-59.2h0a241.835,241.835,0,0,1-25.422-5.471c-6.975-1.883-14.069-4.1-21.086-6.576-11.965-4.231-19.63-7.812-19.706-7.847.028-.016,3.033-1.677,7.215-8.33a87.412,87.412,0,0,0,7.021-14.318,185.89,185.89,0,0,0,7.519-24.558c5.6-23.369,10.492-58.177,13.6-83.263.009,0,.91.141,2.523.382-2.333,3.584-1.7,8.13,1.886,13.512-3.818,27.225-7.532,48.9-11.04,64.427a246.6,246.6,0,0,1-7.123,25.61,128.437,128.437,0,0,1-6.507,15.79c-3.816,7.58-6.554,10.181-6.581,10.206.056.019,7.854,2.747,18.994,6.073a402.1,402.1,0,0,0,40.083,9.954c-1.5,1.331-1.96,2.813-1.378,4.409Zm56.885-.43,0,0a4.6,4.6,0,0,0,1.691-3.154,3.051,3.051,0,0,0-1.1-2.189c7.47-1.566,19.808-4.466,36.168-9.394,9.572-2.883,16.213-5.17,16.491-5.266-.264-.278-2.681-2.908-6.087-10.208a135.216,135.216,0,0,1-6.039-15.79,264.017,264.017,0,0,1-6.636-25.61c-3.331-15.786-6.854-37.757-10.472-65.3.31-1.582-.352-3.219-1.968-4.866,3.542-.729,5.682-1.815,6.359-3.23,2.6,23.4,6.768,55.987,11.854,78.339a179.124,179.124,0,0,0,7.265,24.558,84.422,84.422,0,0,0,6.951,14.318c4.173,6.648,7.236,8.314,7.267,8.33l-.027.015c-1.221.59-7.829,3.722-17.993,7.476-6.476,2.392-13.076,4.549-19.618,6.411a237.7,237.7,0,0,1-24.1,5.563Z" transform="translate(-5463.449 846)" fill="#fff"/>
    <g id="Grupo_677" data-name="Grupo 677" transform="translate(2251.107 390.008)">
      <g id="Grupo_647" data-name="Grupo 647">
        <path id="Sustracción_7" data-name="Sustracción 7" d="M5596.311-559.526c-11.189-.3-37.677-1.135-41.958-2.561-2.662-.887-5.934-4.147-9.463-9.429A119.149,119.149,0,0,1,5534.051-593a76.867,76.867,0,0,1-5.03-22.589c-.508-7.9.48-14.122,2.782-17.519a5.913,5.913,0,0,1,5.042-2.9c.2,0,.4.009.6.027,3.905.35,15.685,6.435,35.012,18.087,15.745,9.492,32.5,20.279,41.081,25.864l-17.229,32.5Zm-55.234-66.818a3.923,3.923,0,0,0-3.458,1.727c-1.527,2.253-1.606,6.662-.236,13.1a121.853,121.853,0,0,0,5.9,18.525,64.777,64.777,0,0,0,9.733,17.157c2.932,3.532,6.051,6.037,8.557,6.872,4.448,1.482,31.705,2.242,31.98,2.25l16.618-19.557c-.123-.081-14.831-9.841-30.713-19.708-9.255-5.75-17.029-10.368-23.106-13.727-7.591-4.2-12.533-6.422-14.686-6.614C5541.467-626.334,5541.268-626.343,5541.077-626.343Z" transform="translate(-5531.697 632)" fill="#fff"/>
        <path id="Trazado_344" data-name="Trazado 344" d="M-8535.638-1205.665c1.66-.467,15.684,6.417,26.085,15.494s16.2,18.638,15.521,20.815-16.3,2.134-20.912.439-9.471-7.482-14.645-16.669S-8537.3-1205.2-8535.638-1205.665Z" transform="translate(8551.113 1224.07)" fill="#fff"/>
      </g>
    </g>
    <g id="Grupo_685" data-name="Grupo 685" transform="translate(2483.303 386)">
      <g id="Grupo_647-2" data-name="Grupo 647">
        <path id="Sustracción_5" data-name="Sustracción 5" d="M5324.457-555.635v0h0l-8.024-14.763,6.542,7.7c.273-.007,27.571-.781,31.98-2.251,2.506-.835,5.625-3.339,8.557-6.872a64.753,64.753,0,0,0,9.733-17.157,121.964,121.964,0,0,0,5.9-18.526c1.371-6.443,1.292-10.851-.235-13.1a3.921,3.921,0,0,0-3.457-1.725c-.191,0-.39.009-.592.027-3.5.314-14.147,5.883-31.643,16.555-14.04,8.563-28.587,18.051-34.19,21.732l-3.183-5.856c19.142-12.4,64.6-41.322,73.236-42.1.2-.018.406-.027.6-.027a5.914,5.914,0,0,1,5.042,2.9c2.3,3.4,3.29,9.618,2.782,17.519a76.88,76.88,0,0,1-5.03,22.59,119.138,119.138,0,0,1-10.839,21.486c-3.53,5.282-6.8,8.542-9.463,9.429C5358.379-556.814,5336.914-556,5324.457-555.635Z" transform="translate(-5296.697 632)" fill="#fff"/>
        <path id="Trazado_344-2" data-name="Trazado 344" d="M-8494.483-1205.665c-1.66-.467-15.684,6.417-26.085,15.494s-16.2,18.638-15.521,20.815,16.3,2.134,20.912.439,9.471-7.482,14.645-16.669S-8492.822-1205.2-8494.483-1205.665Z" transform="translate(8567.144 1228.078)" fill="#fff"/>
      </g>
    </g>
    <g id="Grupo_678" data-name="Grupo 678" transform="translate(1072 -52.419)">
      <path id="Sustracción_1" data-name="Sustracción 1" d="M6755.235,30.6h0l-7.876-2.454,27.882-56.219a152.989,152.989,0,0,0,15.39.757,125.041,125.041,0,0,0,14.823-.82,65.3,65.3,0,0,0,14.692-3.3,44.228,44.228,0,0,0,11.368-6.28,50.787,50.787,0,0,0,7.888-7.478,47.028,47.028,0,0,0,6.086-8.883.2.2,0,0,1-.033.021c-.944.556-5.988,3.485-12.623,6.53a117.985,117.985,0,0,1-12.175,4.844,60.816,60.816,0,0,1-12.835,2.917c-1.253.123-2.529.185-3.791.185a40.337,40.337,0,0,1-9.917-1.256,43.7,43.7,0,0,1-7.722-2.764,36.463,36.463,0,0,1-6.8-4.02L6802.609-96.8c.025.006,2.7.654,7.059,1.3a119.446,119.446,0,0,0,17.092,1.278,93.165,93.165,0,0,0,16.522-1.4,64.334,64.334,0,0,0,16.8-5.345,71.915,71.915,0,0,0,17.055-12.079,120.208,120.208,0,0,0,13.273-14.718,141.971,141.971,0,0,0,11.676-17.677.485.485,0,0,1-.059.036c-1.419.816-9,5.141-18.914,10.109-6.411,3.213-12.564,6.082-18.289,8.529a181.325,181.325,0,0,1-19.335,7.142c-13.009,3.854-23.628,5.808-31.562,5.808-4.828,0-8.636-.724-11.316-2.152a20,20,0,0,1-4.3-3.109,23.631,23.631,0,0,1-4.011-5.026c-2.736-4.547-4.376-10.354-4.877-17.262a46.524,46.524,0,0,1,.908-11.94,88.742,88.742,0,0,1,3.072-11.453,110.609,110.609,0,0,1,4.807-12A94.219,94.219,0,0,0,6788.05-166a78.624,78.624,0,0,0-7.728,11.3,45.512,45.512,0,0,0-5.082,13.337,41.633,41.633,0,0,0-.116,13.843,64.659,64.659,0,0,0,3.195,12.412,75.23,75.23,0,0,0,5.731,12.376c-.014.069-1.418,6.979-3.948,16.353a232.606,232.606,0,0,1-11.054,32.3,148.213,148.213,0,0,1-7.575,14.664c-2.294,3.906-4.793,7.782-7.427,11.522-4.46,6.333-7.863,10.2-7.9,10.233a.1.1,0,0,1-.018-.021c-.522-.688-3.3-4.4-6.708-9.871a129.758,129.758,0,0,1-11.551-23.14,130.539,130.539,0,0,1-6.146-25.432c-1.052-7.128-1.317-12.137-1.32-12.185a141.722,141.722,0,0,0-3.944,16.756A115.353,115.353,0,0,0,6714.75-55.8a61.585,61.585,0,0,0,1.318,16.041,45.6,45.6,0,0,0,5.631,13.4,58.376,58.376,0,0,0,7.774,9.932,59.119,59.119,0,0,0,9.857,8.3l-16.05,28.781-6.379-1.988,13.7-23.892a32.917,32.917,0,0,1-10.393-7.357,39.925,39.925,0,0,1-7.6-11.026,50.175,50.175,0,0,1-4.409-17.551,115.952,115.952,0,0,1,1.246-24.006c1.055-7.583,2.684-16.07,4.841-25.226,3.66-15.532,7.662-27.89,7.7-28.011.007.048,1.033,7.987,2.75,18.493,1.59,9.725,4.124,23.768,7.166,35.445a194.994,194.994,0,0,0,9.023,26.71c2.533,5.964,4.4,9.386,4.606,9.756a58.951,58.951,0,0,0,4.774-6.687A123.468,123.468,0,0,0,6760.5-55.022c7.162-18.04,13.854-45.443,13.92-45.718a73.461,73.461,0,0,1-6.348-15.724,63.035,63.035,0,0,1-2.406-15.706,44.5,44.5,0,0,1,3.021-17.425,61.568,61.568,0,0,1,10.614-16.665,125.849,125.849,0,0,1,14.3-14.033,168.184,168.184,0,0,1,17.953-13.29c-.027.066-3.525,8.374-7.115,18.777-2.1,6.094-3.823,11.7-5.113,16.658a83.9,83.9,0,0,0-2.79,15.448,26.28,26.28,0,0,0,2.2,11.99c1.36,3.008,3.959,6.942,8.615,8.606a24.774,24.774,0,0,0,8.275,1.234c10.547,0,24.483-4.414,37.973-9.183,6.594-2.332,14.348-5.537,23.046-9.525,6.957-3.189,14.529-6.885,22.508-10.983,13.556-6.963,23.768-12.781,23.867-12.838l-.014.029a277.454,277.454,0,0,1-16.114,24.972A217.929,217.929,0,0,1,6889.7-117.3a111.248,111.248,0,0,1-20.629,17.793,74.773,74.773,0,0,1-22.945,9.671,88.2,88.2,0,0,1-20.558,2.371,82.062,82.062,0,0,1-18.219-1.877l-17.578,37.8a7.628,7.628,0,0,0,2.595,2.233c1.748,1.019,4.9,2.233,10.019,2.233a45.444,45.444,0,0,0,9.164-1.043c4.985-1.039,14.348-3.68,30.64-10.363,9.748-4,17.449-7.594,17.526-7.63l-.007.022a109.726,109.726,0,0,1-7.975,14.554A96.551,96.551,0,0,1,6842.157-39a61.4,61.4,0,0,1-12.947,11c-5.715,3.523-13.022,6.09-21.718,7.632a116.116,116.116,0,0,1-20.036,1.66c-5.292,0-8.783-.33-8.818-.333l-23.4,49.648Z" transform="translate(-5348.556 442)" fill="#fff"/>
    </g>
    <g id="Grupo_679" data-name="Grupo 679" transform="translate(2172.444 196)">
      <path id="Sustracción_6" data-name="Sustracción 6" d="M5777.717-212.777l-25.778-54.686-.011,0c-.376.034-3.819.331-8.8.331a117.965,117.965,0,0,1-20.037-1.659c-8.7-1.541-16-4.109-21.721-7.632a61.4,61.4,0,0,1-12.947-11,96.547,96.547,0,0,1-9.578-12.542,107.915,107.915,0,0,1-7.983-14.576c.054.025,7.732,3.613,17.525,7.63,8.992,3.689,21.607,8.481,30.64,10.362a45.452,45.452,0,0,0,9.166,1.043c5.114,0,8.27-1.214,10.018-2.233a7.74,7.74,0,0,0,2.594-2.233l-17.578-37.8,0,0a83.135,83.135,0,0,1-18.214,1.875,88.189,88.189,0,0,1-20.558-2.371,74.787,74.787,0,0,1-22.947-9.672,111.227,111.227,0,0,1-20.628-17.792,217.894,217.894,0,0,1-17.188-21.094,273.613,273.613,0,0,1-16.128-25c.074.042,10.327,5.883,23.867,12.838,7.979,4.1,15.552,7.794,22.508,10.983,8.7,3.987,16.45,7.191,23.047,9.525,22.825,8.071,31.74,9.183,37.973,9.183a24.773,24.773,0,0,0,8.273-1.234c4.657-1.663,7.255-5.6,8.615-8.605a26.28,26.28,0,0,0,2.2-11.991,83.852,83.852,0,0,0-2.789-15.448c-1.29-4.959-3.01-10.563-5.113-16.657-3.5-10.148-6.967-18.423-7.113-18.77l0-.006.023.013a170.838,170.838,0,0,1,17.93,13.276,125.836,125.836,0,0,1,14.3,14.032,61.569,61.569,0,0,1,10.615,16.665,44.505,44.505,0,0,1,3.021,17.425,63.036,63.036,0,0,1-2.406,15.706,73.371,73.371,0,0,1-6.349,15.724c.066.273,6.83,27.86,13.922,45.718a123.57,123.57,0,0,0,10.188,20.328,60.373,60.373,0,0,0,4.771,6.689c.015-.025,1.945-3.483,4.609-9.758a194.958,194.958,0,0,0,9.023-26.71c1.679-6.447,4.285-17.829,7.166-35.444,1.65-10.088,2.642-17.654,2.75-18.484v-.009l.016.043c.422,1.314,4.221,13.263,7.686,27.968,2.157,9.157,3.786,17.644,4.84,25.225a115.949,115.949,0,0,1,1.246,24.005,50.178,50.178,0,0,1-4.408,17.552,39.919,39.919,0,0,1-7.6,11.026,32.48,32.48,0,0,1-10.393,7.357l13.7,23.893-5.925,2.8-16.5-29.593a59.322,59.322,0,0,0,9.858-8.3,58.359,58.359,0,0,0,7.774-9.932,45.6,45.6,0,0,0,5.63-13.4,61.566,61.566,0,0,0,1.317-16.04,115.3,115.3,0,0,0-1.713-15.747,142.711,142.711,0,0,0-3.943-16.753.257.257,0,0,1,0,.034c-.053.895-.365,5.684-1.319,12.148a134.367,134.367,0,0,1-6.146,25.432,126.322,126.322,0,0,1-11.551,23.14c-3.743,6.015-6.7,9.856-6.726,9.893l-.017-.017c-.592-.678-3.754-4.36-7.879-10.216a159.144,159.144,0,0,1-15-26.185,223.182,223.182,0,0,1-11.055-32.3c-2.553-9.455-3.936-16.287-3.949-16.353a74.766,74.766,0,0,0,5.732-12.376,64.637,64.637,0,0,0,3.195-12.412,41.62,41.62,0,0,0-.117-13.843,45.507,45.507,0,0,0-5.081-13.337,78.647,78.647,0,0,0-7.728-11.3,95.789,95.789,0,0,0-10.152-10.754.179.179,0,0,1,.011.022,111.869,111.869,0,0,1,4.793,11.973,88.734,88.734,0,0,1,3.072,11.453,46.526,46.526,0,0,1,.908,11.941c-.5,6.907-2.142,12.715-4.877,17.261a23.61,23.61,0,0,1-4.011,5.026,20.009,20.009,0,0,1-4.3,3.109c-2.681,1.428-6.488,2.152-11.316,2.152-7.932,0-18.551-1.954-31.562-5.808a181.377,181.377,0,0,1-19.335-7.142c-5.728-2.448-11.881-5.318-18.29-8.529-10.879-5.452-18.9-10.1-18.973-10.145a142.488,142.488,0,0,0,11.677,17.676,120.229,120.229,0,0,0,13.273,14.718,71.932,71.932,0,0,0,17.055,12.08,64.342,64.342,0,0,0,16.8,5.344,93.166,93.166,0,0,0,16.521,1.4,113.164,113.164,0,0,0,24.153-2.577l23.013,49.18h0l0,0a36.771,36.771,0,0,1-6.792,4.016,43.723,43.723,0,0,1-7.721,2.764,40.339,40.339,0,0,1-9.916,1.256c-1.262,0-2.538-.062-3.792-.185a60.827,60.827,0,0,1-12.835-2.917,118.083,118.083,0,0,1-12.175-4.844c-7.176-3.293-12.435-6.419-12.655-6.551a46.218,46.218,0,0,0,6.085,8.882,50.8,50.8,0,0,0,7.888,7.478,44.241,44.241,0,0,0,11.369,6.281,65.327,65.327,0,0,0,14.693,3.3,125.062,125.062,0,0,0,14.823.82,152.056,152.056,0,0,0,15.387-.757l29.849,60.184-7.467,3.527h0Z" transform="translate(-5607.556 442)" fill="#fff"/>
    </g>
    <path id="Sustracción_2" data-name="Sustracción 2" d="M7935.922-1.458v0a6.861,6.861,0,0,0-.887-4.169,6.427,6.427,0,0,0,2.574-5.657,108.589,108.589,0,0,0,19.105-19.371,125.68,125.68,0,0,0,14.69-24.544,140.278,140.278,0,0,0,9.432-28.664,151.408,151.408,0,0,0,3.331-31.731c0-2.109,0-4.255.006-6.149.029-19.385.056-37.694-2.568-53.738a92.269,92.269,0,0,0-6.255-22.275,62.926,62.926,0,0,0-5.239-9.652,56.172,56.172,0,0,0-6.978-8.534,59.874,59.874,0,0,0-12.588-9.558,81.477,81.477,0,0,0-16.8-7.118,130.048,130.048,0,0,0-21.622-4.443,220.249,220.249,0,0,0-27.05-1.533,220.259,220.259,0,0,0-27.051,1.533,130.057,130.057,0,0,0-21.622,4.443,81.5,81.5,0,0,0-16.8,7.118,59.881,59.881,0,0,0-12.588,9.558,56.159,56.159,0,0,0-6.978,8.534,62.92,62.92,0,0,0-5.239,9.652,92.266,92.266,0,0,0-6.255,22.275c-2.624,16.044-2.6,34.354-2.568,53.738,0,1.79.006,4.018.006,6.149a152.282,152.282,0,0,0,2.747,28.893,142.558,142.558,0,0,0,7.8,26.425,129.241,129.241,0,0,0,12.2,23.146,112.637,112.637,0,0,0,15.942,19.055,7.292,7.292,0,0,0,1.309,3.989,7.586,7.586,0,0,0-1.995,4.6,116.867,116.867,0,0,1-18.062-20.3,135.4,135.4,0,0,1-13.872-25.1,150.41,150.41,0,0,1-8.9-28.924,161.27,161.27,0,0,1-3.14-31.786c0-1.971,0-3.962-.005-5.888v-.628c-.03-20.556-.059-39.967,2.723-56.974a97.845,97.845,0,0,1,6.631-23.616,66.74,66.74,0,0,1,5.555-10.233,59.515,59.515,0,0,1,7.4-9.047,63.461,63.461,0,0,1,13.346-10.133,86.4,86.4,0,0,1,17.813-7.547,137.9,137.9,0,0,1,22.924-4.711A233.507,233.507,0,0,1,7885.073-246a233.506,233.506,0,0,1,28.678,1.626,137.894,137.894,0,0,1,22.924,4.711,86.418,86.418,0,0,1,17.813,7.547,63.47,63.47,0,0,1,13.345,10.133,59.522,59.522,0,0,1,7.4,9.047,66.725,66.725,0,0,1,5.554,10.233,97.853,97.853,0,0,1,6.631,23.615c2.782,17.006,2.753,36.417,2.723,56.967v.633c0,1.927-.005,3.919-.005,5.891a160.22,160.22,0,0,1-3.915,35.379,147.532,147.532,0,0,1-11.042,31.693c-9.511,19.625-23.084,35.9-39.252,47.066Z" transform="translate(-5471.572 649.597)" fill="#fff"/>
    <g id="Grupo_680" data-name="Grupo 680" transform="translate(9408.788 960.079)">
      <path id="Sustracción_4" data-name="Sustracción 4" d="M5497.212-612.079a44.719,44.719,0,0,1-17.516-3.536,44.844,44.844,0,0,1-14.3-9.644,44.848,44.848,0,0,1-9.645-14.3,44.727,44.727,0,0,1-3.536-17.516,44.727,44.727,0,0,1,3.536-17.516,44.848,44.848,0,0,1,9.645-14.3,44.844,44.844,0,0,1,14.3-9.644,44.721,44.721,0,0,1,17.516-3.536,44.964,44.964,0,0,1,12.466,1.752,44.623,44.623,0,0,1,11.135,4.948,45.83,45.83,0,0,1,16.377,17.623,40.826,40.826,0,0,0-3.077,11.572,37.728,37.728,0,0,0-4.978-11.514,38.111,38.111,0,0,0-8.31-9.155,37.857,37.857,0,0,0-10.893-6.045,37.9,37.9,0,0,0-12.722-2.182,37.758,37.758,0,0,0-14.791,2.986,37.868,37.868,0,0,0-12.079,8.144,37.875,37.875,0,0,0-8.144,12.079,37.765,37.765,0,0,0-2.986,14.791,37.765,37.765,0,0,0,2.986,14.791,37.874,37.874,0,0,0,8.144,12.079,37.869,37.869,0,0,0,12.079,8.144,37.758,37.758,0,0,0,14.791,2.986,37.906,37.906,0,0,0,12.617-2.145,37.85,37.85,0,0,0,10.827-5.947,38.123,38.123,0,0,0,8.3-9.016A37.735,37.735,0,0,0,5534-647.54a50.566,50.566,0,0,0,2.9,11.689,44.574,44.574,0,0,1-16.148,17.151A45.034,45.034,0,0,1,5497.212-612.079Z" transform="translate(-12533 198)" fill="#fff"/>
      <g id="Grupo_644" data-name="Grupo 644" transform="translate(-7005.418 -504)">
        <path id="Sustracción_3" data-name="Sustracción 3" d="M5421.63-612.079a44.716,44.716,0,0,1-17.516-3.536,44.852,44.852,0,0,1-14.3-9.644,44.852,44.852,0,0,1-9.644-14.3,44.727,44.727,0,0,1-3.536-17.516,44.728,44.728,0,0,1,3.536-17.516,44.856,44.856,0,0,1,9.644-14.3,44.853,44.853,0,0,1,14.3-9.644,44.719,44.719,0,0,1,17.516-3.536,44.719,44.719,0,0,1,17.516,3.536,44.849,44.849,0,0,1,14.3,9.644,44.856,44.856,0,0,1,9.644,14.3,44.728,44.728,0,0,1,3.536,17.516,44.727,44.727,0,0,1-3.536,17.516,44.854,44.854,0,0,1-9.644,14.3,44.845,44.845,0,0,1-14.3,9.644A44.719,44.719,0,0,1,5421.63-612.079Zm0-83a37.764,37.764,0,0,0-14.792,2.986,37.881,37.881,0,0,0-12.079,8.144,37.877,37.877,0,0,0-8.144,12.079,37.766,37.766,0,0,0-2.986,14.791,37.766,37.766,0,0,0,2.986,14.791,37.884,37.884,0,0,0,8.144,12.079,37.88,37.88,0,0,0,12.079,8.144,37.761,37.761,0,0,0,14.792,2.986,37.76,37.76,0,0,0,14.791-2.986,37.879,37.879,0,0,0,12.079-8.144,37.876,37.876,0,0,0,8.144-12.079,37.765,37.765,0,0,0,2.986-14.791,37.765,37.765,0,0,0-2.986-14.791,37.877,37.877,0,0,0-8.144-12.079,37.881,37.881,0,0,0-12.079-8.144A37.762,37.762,0,0,0,5421.63-695.079Z" transform="translate(-5377 702)" fill="#fff"/>
        <path id="Trazado_389" data-name="Trazado 389" d="M10.5,0C16.3,0,21,3.806,21,8.5S16.3,17,10.5,17,0,13.194,0,8.5,4.7,0,10.5,0Z" transform="translate(17.63 40.921)" fill="#fff"/>
      </g>
      <g id="Grupo_643" data-name="Grupo 643" transform="translate(-7081 -504)">
        <path id="Trazado_392" data-name="Trazado 392" d="M10.5,0C16.3,0,21,3.806,21,8.5S16.3,17,10.5,17,0,13.194,0,8.5,4.7,0,10.5,0Z" transform="translate(48.212 40.921)" fill="#fff"/>
      </g>
    </g>
    <g id="Grupo_681" data-name="Grupo 681" transform="translate(11032 1600)">
      <path id="Sustracción_8" data-name="Sustracción 8" d="M-3191.505-1749.637h0a153.97,153.97,0,0,1-18.137-.979,86.052,86.052,0,0,1-14.146-2.807,50.022,50.022,0,0,1-10.64-4.442,33.89,33.89,0,0,1-7.618-5.883,33.033,33.033,0,0,1-8.11-15.315c-1.274-5.087-1.842-10.871-1.842-18.755a39.631,39.631,0,0,1,4.754-18.755,46.192,46.192,0,0,1,5.578-8.184,52.961,52.961,0,0,1,7.387-7.131,62.972,62.972,0,0,1,19.229-10.326,73.6,73.6,0,0,1,23.547-3.786,73.6,73.6,0,0,1,23.547,3.786,62.973,62.973,0,0,1,19.229,10.326,52.961,52.961,0,0,1,7.387,7.131,46.176,46.176,0,0,1,5.578,8.184,39.631,39.631,0,0,1,4.754,18.755,97.336,97.336,0,0,1-.651,12.228,47.4,47.4,0,0,1-2.631,11.082,31.983,31.983,0,0,1-15.265,17.186,20.276,20.276,0,0,0-5.6-4.485,27.963,27.963,0,0,0,13.957-15.126c2.662-6.8,3-14.732,3-20.884a34.926,34.926,0,0,0-4.189-16.527,43.243,43.243,0,0,0-11.425-13.5,55.49,55.49,0,0,0-16.946-9.1,64.861,64.861,0,0,0-20.751-3.337,64.859,64.859,0,0,0-20.751,3.337,55.491,55.491,0,0,0-16.945,9.1,43.237,43.237,0,0,0-11.425,13.5,34.923,34.923,0,0,0-4.189,16.527,67.21,67.21,0,0,0,1.623,16.528,29.109,29.109,0,0,0,7.147,13.5,29.849,29.849,0,0,0,6.713,5.185,44.076,44.076,0,0,0,9.376,3.915,75.834,75.834,0,0,0,12.467,2.474,135.685,135.685,0,0,0,15.984.863c.963,0,1.921-.008,2.846-.023a14.886,14.886,0,0,0-2.846,5.744Z" transform="translate(-5430.995 825.818)" fill="#fff"/>
      <path id="Trazado_340" data-name="Trazado 340" d="M36.142,0C56.24,0,80.4,6.255,72.667,19.113S47.544,49,36.142,49,6.413,29.976.439,19.113,16.045,0,36.142,0Z" transform="translate(-8660.58 -1000)" fill="#fff"/>
    </g>
    <path id="Sustracción_11" data-name="Sustracción 11" d="M7850.033-91.582v0l-.005-.013c-.369-.861-3.723-8.677-7.911-17.7-7.357-15.856-11.583-23.181-13.832-26.533a50.35,50.35,0,0,1-6.633-14.65c-1.422-4.555-2.764-8.855-6.739-14.034-2.217-2.889-7.552-8.386-20.372-18.166-7.608-5.8-14.471-10.52-14.538-10.566L7792.645-246l125.05,12.42,13.4,51.015c-.153.124-17.281,14.006-31.915,26.355a97.631,97.631,0,0,1-12.131,8.872c-4.717,2.987-7.833,4.961-15.457,14.986-3.5,4.607-9.015,12.935-15.385,26.444-3.772,8-6.074,14.069-6.17,14.323Zm-55.882-147.01c-.02.127-1.873,11.737-4.253,21.827-2.365,10.014-5.3,18.68-5.329,18.766l.014.007c.583.323,5.893,3.289,12.487,7.769,4.085,2.775,7.871,5.588,11.252,8.361a92.567,92.567,0,0,1,10.7,10.137c7.82,8.872,9.035,12.7,10.716,18a74.1,74.1,0,0,0,5.237,12.907c7.881,15.374,15.618,30.684,15.69,30.828a.1.1,0,0,1,.009-.03,105.708,105.708,0,0,1,4.44-10.2,104.181,104.181,0,0,1,13.23-20.6c7.82-9.237,11.526-11.807,17.667-16.063,3.085-2.139,6.583-4.563,11.49-8.435,14.645-11.552,29.316-21.838,29.463-21.941l-.006-.016c-.316-.908-3.157-9.145-5.657-18.495-2.621-9.8-4.494-21.318-4.512-21.433l-122.639-11.393Z" transform="translate(-5444.159 934.354)" fill="#fff"/>
    <g id="Grupo_682" data-name="Grupo 682" transform="translate(1074.415 -38)">
      <path id="Sustracción_10" data-name="Sustracción 10" d="M6714.693-163.84h0c-3.078,0-5.213-.425-6.346-1.262-1.412-1.044-2.326-3.46-2.643-6.989a43.332,43.332,0,0,1,.815-11.783,46.251,46.251,0,0,1,5.581-14.961,24.072,24.072,0,0,1,4.652-5.623,14.414,14.414,0,0,1,5.876-3.17,12.385,12.385,0,0,1,3.035-.372,16.657,16.657,0,0,1,6.635,1.515,30.078,30.078,0,0,1,6.461,3.97,54.855,54.855,0,0,1,10.87,11.855,45.37,45.37,0,0,1,4.705,8.541c1.035,2.622,1.348,4.616.9,5.766s-2.292,2.562-5.326,4.041a75.79,75.79,0,0,1-10.822,4.07,121.244,121.244,0,0,1-12.884,3.143A66.406,66.406,0,0,1,6714.693-163.84Zm12.031-39.31a9.663,9.663,0,0,0-2.367.29,11.252,11.252,0,0,0-4.586,2.474,18.788,18.788,0,0,0-3.63,4.387,36.084,36.084,0,0,0-4.355,11.675,33.814,33.814,0,0,0-.636,9.2c.248,2.754.961,4.64,2.063,5.454.885.654,2.55.985,4.95.985,4.75,0,12.045-1.316,19.038-3.436a59.113,59.113,0,0,0,8.445-3.176c2.368-1.154,3.805-2.245,4.156-3.154s.1-2.454-.7-4.5a35.412,35.412,0,0,0-3.672-6.666,42.814,42.814,0,0,0-8.482-9.251,23.469,23.469,0,0,0-5.042-3.1A13,13,0,0,0,6726.724-203.15Z" transform="translate(-5373.285 893.924)" fill="#fff"/>
    </g>
    <path id="Trazado_427" data-name="Trazado 427" d="M11496.746,4383.223l-22.93-47.578c-6.173-.685-12.6-1.695-18.945-2.993a212.835,212.835,0,0,1-76.521-32.2,214.629,214.629,0,0,1-77.532-94.153,212.942,212.942,0,0,1-12.47-40.17,216.089,216.089,0,0,1,0-86.257,212.84,212.84,0,0,1,32.2-76.521,215.584,215.584,0,0,1,26.131-31.672c4.053-4.053-6.835-31.712-2.214-35.642,4.186-3.561,23.881,16.607,28.654,13.159,1.555-1.123,3.384-2.4,5.23-3.649a214.041,214.041,0,0,1,36.352-19.731c1.847-.781,22.27,41.611,24.4,40.78,7.434-2.9,24.817-7.978,24.817-7.978s-16.72-28.161-12.939-28.934c4.795-.981,13.526-18.135,18.693-18.825a216.449,216.449,0,0,1,62.671.882c2.76.441,16.827,18.229,16.827,18.229s-22.767,24.391-9.853,29.853c.519.219,27.048,4.373,27.048,4.373s17.844-37.123,18.6-36.786a213.378,213.378,0,0,1,32.683,18.138c2.935,1.983,5.824,4.042,8.9,6.35,5.144-4.141,27.186-17.452,33.26-13.571,7.838,5.006-2.51,33.659-4.92,39.134a213.973,213.973,0,0,1-113.762,355.191c-4.356.892-8.752,1.647-13.46,2.305C11518.494,4343.025,11496.746,4383.223,11496.746,4383.223Zm1.253-465.245a207.923,207.923,0,0,0-34.98,2.974c-1.924.327-7.15,10.309-9.352,10.76-1.97.4,12.614,26.908,12.614,26.908l-29.347,10.732s-16.375-36.261-18.738-35.261a204.987,204.987,0,0,0-34.825,18.9c-.891.6-1.776,1.21-2.886,1.986-4.743,3.314-28.14-18.32-32.892-14.342-4.984,4.818-4.2,14.384,5.435,37.391a205.324,205.324,0,0,0-43.937,65.168,203.971,203.971,0,0,0-11.946,38.485,207.032,207.032,0,0,0,0,82.638,203.908,203.908,0,0,0,30.849,73.31,205.622,205.622,0,0,0,90.2,74.279,204.009,204.009,0,0,0,38.484,11.947c4.862,1,9.776,1.813,15.035,2.494l25.03,52.284s20.208-34.8,42.572-54.778a203.928,203.928,0,0,0,73.311-30.849,205.606,205.606,0,0,0,74.28-90.2,204,204,0,0,0,11.947-38.484,207.032,207.032,0,0,0,0-82.638,203.937,203.937,0,0,0-30.85-73.311,207.453,207.453,0,0,0-17.808-22.735c2.428-4.972,11.809-35.777,6.887-42.453-6.062-8.225-26.6,7.351-38.116,14.272-1.917-1.408-4.115-2.958-6.341-4.461a206.082,206.082,0,0,0-30.975-17.227c-.472-.212-15.288,30.482-15.288,30.482s-28.5-6.094-29.287-6.425c-12.371-5.233,21.081-24.931,2.239-37.679A206.551,206.551,0,0,0,11498,3917.978Z" transform="translate(-9091 -3548)" fill="#fff"/>
    <g id="Grupo_854" data-name="Grupo 854" transform="translate(1434 -155.001)">
      <path id="Trazado_597" data-name="Trazado 597" d="M5.613-68H26.162q7.793,0,11.759,1.74A19.7,19.7,0,0,1,45.227-60.4,30.162,30.162,0,0,1,50.469-49.68a59.964,59.964,0,0,1,1.9,16.375,52.611,52.611,0,0,1-1.995,15.331A30.739,30.739,0,0,1,45.32-7.654a19.6,19.6,0,0,1-7.4,5.729A27.686,27.686,0,0,1,26.765,0H5.613ZM16.838-56.5v45.042h8.442q5.427,0,7.863-1.021a9.487,9.487,0,0,0,3.989-3.085,17.677,17.677,0,0,0,2.574-6.517,54.413,54.413,0,0,0,1.021-11.736,53.553,53.553,0,0,0-1.044-11.921A15.8,15.8,0,0,0,36.437-52.6,10.334,10.334,0,0,0,31.079-55.9a44.482,44.482,0,0,0-9.138-.6ZM63.826,0V-68H105.2v11.5H75.052v15.076h28.018v11.458H75.052v18.508h31.172V0Zm53.853,0V-68h41.377v11.5H128.9v15.076h28.018v11.458H128.9v18.508h31.172V0Zm53.853,0V-68h23.7q9.092,0,12.988,1.832a14.405,14.405,0,0,1,6.4,6.355,22.034,22.034,0,0,1,2.5,10.831q0,7.979-3.827,12.849a17.021,17.021,0,0,1-10.878,6.123,28.127,28.127,0,0,1,5.984,5.682,80.373,80.373,0,0,1,6.448,11.063L221.63,0H208.224L200.06-14.8a97.715,97.715,0,0,0-5.984-10.043,8.829,8.829,0,0,0-3.34-2.783,15.266,15.266,0,0,0-5.659-.765h-2.319V0Zm11.226-39.243h8.35q7.654,0,9.741-.673a6.222,6.222,0,0,0,3.386-2.714,10,10,0,0,0,1.3-5.427,9.35,9.35,0,0,0-1.3-5.219,6.619,6.619,0,0,0-3.525-2.714q-1.577-.51-9.138-.51h-8.813Zm44.019,17.117,10.994-1.3q1.855,13.035,12.153,13.035,5.1,0,8.025-2.667a8.589,8.589,0,0,0,2.922-6.61,7.263,7.263,0,0,0-1.021-3.943,7.512,7.512,0,0,0-3.108-2.667,86.942,86.942,0,0,0-10.112-3.5q-7.19-2.18-10.53-4.731a17.946,17.946,0,0,1-5.311-6.7,20.551,20.551,0,0,1-1.971-8.929,19.934,19.934,0,0,1,2.528-10.02,16.534,16.534,0,0,1,6.981-6.726,24.008,24.008,0,0,1,10.994-2.273q9.834,0,15.354,5.334t5.845,15.261l-11.272.6q-.742-5.474-3.2-7.654t-7-2.18q-4.546,0-7,1.9a5.77,5.77,0,0,0-2.458,4.731,5.928,5.928,0,0,0,2.227,4.685q2.227,1.9,10.251,4.175,8.489,2.458,12.269,5.172a17.6,17.6,0,0,1,5.775,7A24.582,24.582,0,0,1,272.1-19.714a21.389,21.389,0,0,1-5.45,14.89q-5.45,6.03-17.047,6.03Q229.1,1.206,226.777-22.126Z" transform="translate(895 1132)" fill="#fff"/>
      <path id="Trazado_596" data-name="Trazado 596" d="M3.433-33.584q0-12.153,3.595-20.016t9.393-11.713a24.834,24.834,0,0,1,14.055-3.85,24.115,24.115,0,0,1,19.506,9.138Q57.52-50.886,57.52-34q0,17.07-7.979,26.672-7,8.489-19.019,8.489-12.107,0-19.111-8.4Q3.433-16.838,3.433-33.584Zm11.6-.464q0,11.736,4.453,17.6t11.04,5.868q6.633,0,10.994-5.822t4.36-17.882q0-11.829-4.244-17.488a13.25,13.25,0,0,0-11.11-5.659,13.4,13.4,0,0,0-11.179,5.706Q15.029-46.016,15.029-34.048ZM68.233,0V-68h23.7q9.092,0,12.988,1.832a14.405,14.405,0,0,1,6.4,6.355,22.034,22.034,0,0,1,2.5,10.831q0,7.979-3.827,12.849a17.021,17.021,0,0,1-10.878,6.123,28.127,28.127,0,0,1,5.984,5.682,80.373,80.373,0,0,1,6.448,11.063L118.331,0H104.925L96.761-14.8A97.718,97.718,0,0,0,90.777-24.84a8.829,8.829,0,0,0-3.34-2.783,15.266,15.266,0,0,0-5.659-.765H79.459V0ZM79.459-39.243h8.35q7.654,0,9.741-.673a6.222,6.222,0,0,0,3.386-2.714,10,10,0,0,0,1.3-5.427,9.35,9.35,0,0,0-1.3-5.219,6.619,6.619,0,0,0-3.525-2.714q-1.577-.51-9.138-.51H79.459Z" transform="translate(774 1132)" fill="#fff"/>
    </g>
  </g>
</svg>
