<svg xmlns="http://www.w3.org/2000/svg" xmlns:xlink="http://www.w3.org/1999/xlink" width="110" height="110" viewBox="0 0 110 110">
  <defs>
    <clipPath id="clip-Mesa_de_trabajo_33">
      <rect width="110" height="110"/>
    </clipPath>
  </defs>
  <g id="Mesa_de_trabajo_33" data-name="Mesa de trabajo – 33" clip-path="url(#clip-Mesa_de_trabajo_33)">
    <g id="Trazado_229" data-name="Trazado 229" transform="matrix(0.914, 0.407, -0.407, 0.914, 90.352, 84.783)" fill="none">
      <path d="M7.956,0,9.834,5.78h6.078L10.995,9.353l1.878,5.78L7.956,11.56,3.039,15.133l1.878-5.78L0,5.78H6.078Z" stroke="none"/>
      <path d="M 7.955787181854248 3.236083030700684 L 7.028744697570801 6.089232444763184 L 6.804224967956543 6.780213356018066 L 6.07768440246582 6.780213356018066 L 3.077655792236328 6.780213356018066 L 5.504694938659668 8.543573379516602 L 6.092474937438965 8.970613479614258 L 5.867964744567871 9.661592483520508 L 4.940936088562012 12.51475620269775 L 7.367995262145996 10.75139236450195 L 7.955784797668457 10.32434272766113 L 8.543575286865234 10.75139236450195 L 10.9706335067749 12.51475620269775 L 10.04360485076904 9.661592483520508 L 9.819094657897949 8.970613479614258 L 10.40687465667725 8.543573379516602 L 12.833909034729 6.780213356018066 L 9.833894729614258 6.780213356018066 L 9.107355117797852 6.780213356018066 L 8.882835388183594 6.089232444763184 L 7.955787181854248 3.236083030700684 M 7.955784797668457 2.86102294921875e-06 L 9.833894729614258 5.780213356018066 L 15.91156482696533 5.780213356018066 L 10.99466514587402 9.352582931518555 L 12.87272453308105 15.13278293609619 L 7.955784797668457 11.5604133605957 L 3.038845062255859 15.13278293609619 L 4.916904449462891 9.352582931518555 L -4.76837158203125e-06 5.780213356018066 L 6.07768440246582 5.780213356018066 L 7.955784797668457 2.86102294921875e-06 Z" stroke="none" fill="#fff"/>
    </g>
    <g id="Trazado_229-2" data-name="Trazado 229" transform="matrix(0.914, -0.407, 0.407, 0.914, 0.25, 33.583)" fill="none">
      <path d="M9.4,0l2.219,6.829H18.8L12.99,11.05l2.219,6.829L9.4,13.658,3.59,17.879,5.809,11.05,0,6.829H7.181Z" stroke="none"/>
      <path d="M 9.399415016174316 3.236078262329102 L 8.131574630737305 7.138087272644043 L 7.907054901123047 7.829067230224609 L 7.180515289306641 7.829067230224609 L 3.077671051025391 7.829067230224609 L 6.396904945373535 10.240647315979 L 6.984675407409668 10.66769790649414 L 6.760174751281738 11.35867691040039 L 5.492361068725586 15.26071071624756 L 8.811625480651855 12.84911727905273 L 9.399415016174316 12.42206764221191 L 9.987204551696777 12.84911727905273 L 13.30648040771484 15.26071453094482 L 12.03866481781006 11.35867691040039 L 11.81416511535645 10.66769790649414 L 12.40193557739258 10.24065780639648 L 15.72117042541504 7.829067230224609 L 11.61831474304199 7.829067230224609 L 10.89177513122559 7.829067230224609 L 10.66725540161133 7.138087272644043 L 9.399415016174316 3.236078262329102 M 9.399415016174316 -1.9073486328125e-06 L 11.61831474304199 6.829067230224609 L 18.79882431030273 6.829067230224609 L 12.98972511291504 11.04966735839844 L 15.20856475830078 17.87873649597168 L 9.399415016174316 13.65813732147217 L 3.590274810791016 17.87873649597168 L 5.809115409851074 11.04966735839844 L -5.7220458984375e-06 6.829067230224609 L 7.180515289306641 6.829067230224609 L 9.399415016174316 -1.9073486328125e-06 Z" stroke="none" fill="#fff"/>
    </g>
    <g id="Trazado_229-3" data-name="Trazado 229" transform="translate(12.279 75.044) rotate(-8)" fill="none">
      <path d="M5.393,0,6.666,3.918h4.12L7.452,6.339l1.273,3.918L5.393,7.836,2.06,10.257,3.333,6.339,0,3.918H4.12Z" stroke="none"/>
      <path d="M 5.392570018768311 3.236073970794678 L 5.070613861083984 4.226947784423828 L 4.846093654632568 4.917927742004395 L 4.119554042816162 4.917927742004395 L 3.077663898468018 4.917927742004395 L 3.920553684234619 5.530327796936035 L 4.508333683013916 5.957367897033691 L 4.28382396697998 6.648347854614258 L 3.961868286132812 7.639247894287109 L 4.804793834686279 7.026827812194824 L 5.392573833465576 6.599777698516846 L 5.980363845825195 7.026827812194824 L 6.823264122009277 7.63923168182373 L 6.50131368637085 6.648347854614258 L 6.276803970336914 5.957367897033691 L 6.864583969116211 5.530327796936035 L 7.707471370697021 4.917927742004395 L 6.665583610534668 4.917927742004395 L 5.939043998718262 4.917927742004395 L 5.714523792266846 4.226947784423828 L 5.392570018768311 3.236073970794678 M 5.392573833465576 -1.9073486328125e-06 L 6.665583610534668 3.917927742004395 L 10.78512382507324 3.917927742004395 L 7.452373504638672 6.339337825775146 L 8.725353240966797 10.25725746154785 L 5.392573833465576 7.835847854614258 L 2.059783935546875 10.25725746154785 L 3.332763671875 6.339337825775146 L 3.814697265625e-06 3.917927742004395 L 4.119554042816162 3.917927742004395 L 5.392573833465576 -1.9073486328125e-06 Z" stroke="none" fill="#fff"/>
    </g>
    <g id="Trazado_229-4" data-name="Trazado 229" transform="translate(94.356 17.005) rotate(-8)" fill="none">
      <path d="M4.644,0l1.1,3.374H9.288L6.418,5.459l1.1,3.374L4.644,6.748,1.774,8.833l1.1-3.374L0,3.374H3.548Z" stroke="none"/>
      <path d="M 4.643875598907471 3.236066818237305 L 4.498661518096924 3.682990074157715 L 4.274141311645508 4.373970031738281 L 3.547601222991943 4.373970031738281 L 3.077685832977295 4.373970031738281 L 3.457841396331787 4.65017032623291 L 4.045621395111084 5.07721996307373 L 3.82111120223999 5.768199920654297 L 3.675899028778076 6.215129852294922 L 4.056081295013428 5.938910484313965 L 4.643871307373047 5.511859893798828 L 5.231661319732666 5.938910484313965 L 5.611856460571289 6.21513843536377 L 5.466641426086426 5.768199920654297 L 5.242141246795654 5.07721996307373 L 5.829911231994629 4.65017032623291 L 6.210065364837646 4.373970031738281 L 5.740151405334473 4.373970031738281 L 5.013611316680908 4.373970031738281 L 4.789091110229492 3.682990074157715 L 4.643875598907471 3.236066818237305 M 4.643871307373047 0 L 5.740151405334473 3.373970031738281 L 9.287741661071777 3.373970031738281 L 6.417701244354248 5.459190368652344 L 7.513941287994385 8.833160400390625 L 4.643871307373047 6.747930526733398 L 1.773811340332031 8.833160400390625 L 2.870051383972168 5.459190368652344 L 9.5367431640625e-07 3.373970031738281 L 3.547601222991943 3.373970031738281 L 4.643871307373047 0 Z" stroke="none" fill="#fff"/>
    </g>
    <g id="Trazado_229-5" data-name="Trazado 229" transform="translate(20.231 2.4) rotate(-8)" fill="none">
      <path d="M3.751,0l.886,2.725H7.5L5.184,4.41,6.07,7.135,3.751,5.451,1.433,7.135,2.318,4.41,0,2.725H2.866Z" stroke="none"/>
      <path d="M 3.751216888427734 3.236080884933472 L 3.592216968536377 3.725417375564575 L 3.077657699584961 3.725417375564575 L 3.493916988372803 4.027847290039062 L 3.334919452667236 4.517219066619873 L 3.751216888427734 4.214757442474365 L 4.167507171630859 4.517207145690918 L 4.008506774902344 4.027847290039062 L 4.424773216247559 3.725417375564575 L 3.910216808319092 3.725417375564575 L 3.751216888427734 3.236080884933472 M 3.751216888427734 -2.384185791015625e-06 L 4.636756896972656 2.725417613983154 L 7.502437114715576 2.725417613983154 L 5.18407678604126 4.409817695617676 L 6.069596767425537 7.135237216949463 L 3.751216888427734 5.450827598571777 L 1.432847023010254 7.135237216949463 L 2.318356990814209 4.409817695617676 L -3.337860107421875e-06 2.725417613983154 L 2.865676879882812 2.725417613983154 L 3.751216888427734 -2.384185791015625e-06 Z" stroke="none" fill="#fff"/>
    </g>
    <g id="Grupo_848" data-name="Grupo 848" transform="translate(0.364 -4.721)">
      <g id="Unión_1" data-name="Unión 1" transform="translate(28.635 13.721)" fill="none">
        <path d="M9.659,91.95A9.651,9.651,0,0,1,0,82.29V9.659A9.65,9.65,0,0,1,9.659,0H42.585a9.65,9.65,0,0,1,9.659,9.659V82.29a9.653,9.653,0,0,1-9.659,9.661ZM5.016,5.434A5.666,5.666,0,0,0,3.344,9.469V82.481a5.709,5.709,0,0,0,5.709,5.706H43.194A5.709,5.709,0,0,0,48.9,82.481V9.469a5.708,5.708,0,0,0-5.708-5.706h-1a5.016,5.016,0,0,1-5,4.6H15.882a5.016,5.016,0,0,1-5-4.6H9.052A5.671,5.671,0,0,0,5.016,5.434Z" stroke="none"/>
        <path d="M 42.58530044555664 90.95030212402344 C 43.7535514831543 90.95030212402344 44.88730239868164 90.7213134765625 45.95477676391602 90.26981353759766 C 46.98620223999023 89.83319091796875 47.91262435913086 89.20836639404297 48.70829010009766 88.41268920898438 C 49.50535202026367 87.61563873291016 50.12975311279297 86.68981170654297 50.56415176391602 85.66094207763672 C 51.01532745361328 84.59230041503906 51.24410247802734 83.45805358886719 51.24410247802734 82.28970336914062 L 51.24410247802734 9.658801078796387 C 51.24410247802734 8.491050720214844 51.01532745361328 7.357100963592529 50.56425094604492 6.288713455200195 C 50.12935256958008 5.259450912475586 49.50480270385742 4.333126068115234 48.70865249633789 3.536163568496704 C 47.91097640991211 2.739300966262817 46.98464965820312 2.114751100540161 45.95505142211914 1.679701089859009 C 44.88871383666992 1.228688597679138 43.75496292114258 1.000001072883606 42.58530044555664 1.000001072883606 L 9.658801078796387 1.000001072883606 C 8.489138603210449 1.000001072883606 7.355388641357422 1.228688597679138 6.288713932037354 1.679851055145264 C 5.259451389312744 2.114751100540161 4.333126068115234 2.739300966262817 3.536163806915283 3.535451173782349 C 2.739301204681396 4.333126068115234 2.11475133895874 5.259450912475586 1.679701209068298 6.289051055908203 C 1.228688716888428 7.355388641357422 1.000001192092896 8.489138603210449 1.000001192092896 9.658801078796387 L 1.000001192092896 82.28970336914062 C 1.000001192092896 83.4599609375 1.228688716888428 84.59401702880859 1.679951190948486 85.66094207763672 C 2.114351272583008 86.68981170654297 2.738751173019409 87.61563873291016 3.535813808441162 88.41268920898438 C 4.331476211547852 89.20836639404297 5.257901191711426 89.83319091796875 6.289051055908203 90.26969909667969 C 7.35680103302002 90.7213134765625 8.490550994873047 90.95030212402344 9.658801078796387 90.95030212402344 L 42.58530044555664 90.95030212402344 M 9.052201271057129 2.762901067733765 L 10.88391399383545 2.762901067733765 L 11.80466365814209 2.762901067733765 L 11.88051414489746 3.680513620376587 C 11.96313858032227 4.680100917816162 12.4161262512207 5.607563495635986 13.15602588653564 6.292050838470459 C 13.89988899230957 6.980213642120361 14.86810111999512 7.359200954437256 15.88230133056641 7.359200954437256 L 37.19790267944336 7.359200954437256 C 38.21210098266602 7.359200954437256 39.18031311035156 6.980213642120361 39.92416381835938 6.292050838470459 C 40.6640625 5.607563495635986 41.11705017089844 4.680100917816162 41.19967651367188 3.680513620376587 L 41.27552795410156 2.762901067733765 L 42.1962776184082 2.762901067733765 L 43.19370269775391 2.762901067733765 C 44.98545074462891 2.762901067733765 46.66977691650391 3.460463523864746 47.93611526489258 4.726800918579102 C 49.20351409912109 5.993138790130615 49.9015007019043 7.677250862121582 49.9015007019043 9.468900680541992 L 49.9015007019043 82.48139953613281 C 49.9015007019043 84.27352905273438 49.20341491699219 85.95742797851562 47.9364128112793 87.22231292724609 C 46.6692008972168 88.48951721191406 44.9848747253418 89.18740081787109 43.19370269775391 89.18740081787109 L 9.052201271057129 89.18740081787109 C 7.25938892364502 89.18740081787109 5.574638843536377 88.48941040039062 4.309188842773438 87.222900390625 C 3.04158878326416 85.95742797851562 2.343501329421997 84.27352905273438 2.343501329421997 82.48139953613281 L 2.343501329421997 9.468900680541992 C 2.343501329421997 7.677250862121582 3.041488647460938 5.993138790130615 4.30858850479126 4.727088451385498 C 5.575226306915283 3.460463523864746 7.25986385345459 2.762901067733765 9.052201271057129 2.762901067733765 M 42.58530044555664 91.95030212402344 L 9.658801078796387 91.95030212402344 C 8.35560131072998 91.95030212402344 7.091101169586182 91.6947021484375 5.899501323699951 91.19070434570312 C 4.749301433563232 90.70380401611328 3.716101169586182 90.0072021484375 2.828701257705688 89.11980438232422 C 1.942201256752014 88.23329925537109 1.244701266288757 87.20100402832031 0.7587012648582458 86.04990386962891 C 0.2547012269496918 84.85829925537109 1.239013727172278e-06 83.59470367431641 1.239013727172278e-06 82.28970336914062 L 1.239013727172278e-06 9.658801078796387 C 1.239013727172278e-06 8.35560131072998 0.2547012269496918 7.091101169586182 0.7587012648582458 5.899500846862793 C 1.244701266288757 4.749300956726074 1.942201256752014 3.716101169586182 2.828701257705688 2.828701019287109 C 3.716101169586182 1.942201018333435 4.749301433563232 1.244701027870178 5.899501323699951 0.7587010860443115 C 7.091101169586182 0.2547010481357574 8.35560131072998 1.062011733665713e-06 9.658801078796387 1.062011733665713e-06 L 42.58530044555664 1.062011733665713e-06 C 43.88850021362305 1.062011733665713e-06 45.15299987792969 0.2547010481357574 46.34460067749023 0.7587010860443115 C 47.49480056762695 1.244701027870178 48.52799987792969 1.942201018333435 49.41540145874023 2.828701019287109 C 50.30190277099609 3.716101169586182 50.9994010925293 4.749300956726074 51.48540115356445 5.899500846862793 C 51.98850250244141 7.091101169586182 52.24410247802734 8.35560131072998 52.24410247802734 9.658801078796387 L 52.24410247802734 82.28970336914062 C 52.24410247802734 83.59470367431641 51.98850250244141 84.85829925537109 51.48540115356445 86.04990386962891 C 50.9994010925293 87.20100402832031 50.30190277099609 88.23329925537109 49.41540145874023 89.11980438232422 C 48.52799987792969 90.0072021484375 47.49480056762695 90.70380401611328 46.34460067749023 91.19070434570312 C 45.15299987792969 91.6947021484375 43.88850021362305 91.95030212402344 42.58530044555664 91.95030212402344 Z M 9.052201271057129 3.762901067733765 C 7.52760124206543 3.762901067733765 6.09390115737915 4.356000900268555 5.015701293945312 5.434201240539551 C 3.937501192092896 6.511500835418701 3.343501329421997 7.944301128387451 3.343501329421997 9.468900680541992 L 3.343501329421997 82.48139953613281 C 3.343501329421997 84.00510406494141 3.937501192092896 85.43880462646484 5.015701293945312 86.51519775390625 C 6.093001365661621 87.59339904785156 7.5267014503479 88.18740081787109 9.052201271057129 88.18740081787109 L 43.19370269775391 88.18740081787109 C 44.71739959716797 88.18740081787109 46.15110015869141 87.59339904785156 47.22930145263672 86.51519775390625 C 48.30750274658203 85.43880462646484 48.9015007019043 84.00510406494141 48.9015007019043 82.48139953613281 L 48.9015007019043 9.468900680541992 C 48.9015007019043 7.944301128387451 48.30750274658203 6.511500835418701 47.22930145263672 5.434201240539551 C 46.15110015869141 4.356000900268555 44.71739959716797 3.762901067733765 43.19370269775391 3.762901067733765 L 42.1962776184082 3.762901067733765 C 41.98353958129883 6.33638858795166 39.82708740234375 8.359201431274414 37.19790267944336 8.359201431274414 L 15.88230133056641 8.359201431274414 C 13.25311374664307 8.359201431274414 11.09665107727051 6.33638858795166 10.88391399383545 3.762901067733765 L 9.052201271057129 3.762901067733765 Z" stroke="none" fill="#fff"/>
      </g>
      <g id="Trazado_593" data-name="Trazado 593" transform="translate(48.803 17.065)" fill="none">
        <path d="M.627,0H11.076a.627.627,0,0,1,0,1.254H.627A.627.627,0,1,1,.627,0Z" stroke="none"/>
        <path d="M 0.6269235610961914 -4.649162292480469e-06 L 11.07568359375 -4.649162292480469e-06 C 11.42192268371582 -4.649162292480469e-06 11.70260334014893 0.2806853652000427 11.70260334014893 0.6269253492355347 C 11.70260334014893 0.9731653928756714 11.42192268371582 1.253855347633362 11.07568359375 1.253855347633362 L 0.6269235610961914 1.253855347633362 C 0.2806835174560547 1.253855347633362 2.86102294921875e-06 0.9731653928756714 2.86102294921875e-06 0.6269253492355347 C 2.86102294921875e-06 0.2806853652000427 0.2806835174560547 -4.649162292480469e-06 0.6269235610961914 -4.649162292480469e-06 Z" stroke="none" fill="#fff"/>
      </g>
      <g id="Trazado_594" data-name="Trazado 594" transform="translate(63.389 15.811)" fill="none">
        <path d="M1.672,0A1.672,1.672,0,1,1,0,1.672,1.672,1.672,0,0,1,1.672,0Z" stroke="none"/>
        <path d="M 1.671800971031189 1.000000953674316 C 1.301370859146118 1.000000953674316 1.000000953674316 1.301370859146118 1.000000953674316 1.671800971031189 C 1.000000953674316 2.04223108291626 1.301370859146118 2.343600988388062 1.671800971031189 2.343600988388062 C 2.04223108291626 2.343600988388062 2.343600988388062 2.04223108291626 2.343600988388062 1.671800971031189 C 2.343600988388062 1.301370859146118 2.04223108291626 1.000000953674316 1.671800971031189 1.000000953674316 M 1.671800971031189 9.5367431640625e-07 C 2.595110893249512 9.5367431640625e-07 3.343600988388062 0.7484910488128662 3.343600988388062 1.671800971031189 C 3.343600988388062 2.595110893249512 2.595110893249512 3.343600988388062 1.671800971031189 3.343600988388062 C 0.7484910488128662 3.343600988388062 9.5367431640625e-07 2.595110893249512 9.5367431640625e-07 1.671800971031189 C 9.5367431640625e-07 0.7484910488128662 0.7484910488128662 9.5367431640625e-07 1.671800971031189 9.5367431640625e-07 Z" stroke="none" fill="#fff"/>
      </g>
      <g id="Trazado_229-6" data-name="Trazado 229" transform="translate(35.262 65.043)" fill="none">
        <path d="M3.515,0l.83,2.554H7.03L4.858,4.132l.83,2.554L3.515,5.108,1.343,6.686l.83-2.554L0,2.554H2.685Z" stroke="none"/>
        <path d="M 3.515028715133667 3.236115455627441 L 3.411788702011108 3.553864240646362 L 3.077620029449463 3.553864240646362 L 3.347948789596558 3.750274181365967 L 3.244701623916626 4.068045616149902 L 3.515028715133667 3.871634244918823 L 3.785355806350708 4.068045616149902 L 3.682108640670776 3.750274181365967 L 3.952437400817871 3.553864240646362 L 3.618268728256226 3.553864240646362 L 3.515028715133667 3.236115455627441 M 3.515028715133667 4.291534423828125e-06 L 4.344819068908691 2.553864479064941 L 7.030058860778809 2.553864479064941 L 4.857668876647949 4.132234573364258 L 5.68742847442627 6.686084270477295 L 3.515028715133667 5.107714176177979 L 1.342628479003906 6.686084270477295 L 2.172388553619385 4.132234573364258 L -1.430511474609375e-06 2.553864479064941 L 2.685238838195801 2.553864479064941 L 3.515028715133667 4.291534423828125e-06 Z" stroke="none" fill="#fff"/>
      </g>
      <g id="Trazado_229-7" data-name="Trazado 229" transform="translate(43.255 65.043)" fill="none">
        <path d="M3.515,0l.83,2.554H7.03L4.858,4.132l.83,2.554L3.515,5.108,1.343,6.686l.83-2.554L0,2.554H2.685Z" stroke="none"/>
        <path d="M 3.515028715133667 3.236115455627441 L 3.411788702011108 3.553864240646362 L 3.077620029449463 3.553864240646362 L 3.347948789596558 3.750274181365967 L 3.244701623916626 4.068045616149902 L 3.515028715133667 3.871634244918823 L 3.785355806350708 4.068045616149902 L 3.682108640670776 3.750274181365967 L 3.952437400817871 3.553864240646362 L 3.618268728256226 3.553864240646362 L 3.515028715133667 3.236115455627441 M 3.515028715133667 4.291534423828125e-06 L 4.344819068908691 2.553864479064941 L 7.030058860778809 2.553864479064941 L 4.857668876647949 4.132234573364258 L 5.68742847442627 6.686084270477295 L 3.515028715133667 5.107714176177979 L 1.342628479003906 6.686084270477295 L 2.172388553619385 4.132234573364258 L -1.430511474609375e-06 2.553864479064941 L 2.685238838195801 2.553864479064941 L 3.515028715133667 4.291534423828125e-06 Z" stroke="none" fill="#fff"/>
      </g>
      <g id="Trazado_229-8" data-name="Trazado 229" transform="translate(51.247 65.043)" fill="none">
        <path d="M3.515,0l.83,2.554H7.03L4.858,4.132l.83,2.554L3.515,5.108,1.343,6.686l.83-2.554L0,2.554H2.685Z" stroke="none"/>
        <path d="M 3.515028715133667 3.236115455627441 L 3.411788702011108 3.553864240646362 L 3.077620029449463 3.553864240646362 L 3.347948789596558 3.750274181365967 L 3.244701623916626 4.068045616149902 L 3.515028715133667 3.871634244918823 L 3.785355806350708 4.068045616149902 L 3.682108640670776 3.750274181365967 L 3.952437400817871 3.553864240646362 L 3.618268728256226 3.553864240646362 L 3.515028715133667 3.236115455627441 M 3.515028715133667 4.291534423828125e-06 L 4.344819068908691 2.553864479064941 L 7.030058860778809 2.553864479064941 L 4.857668876647949 4.132234573364258 L 5.68742847442627 6.686084270477295 L 3.515028715133667 5.107714176177979 L 1.342628479003906 6.686084270477295 L 2.172388553619385 4.132234573364258 L -1.430511474609375e-06 2.553864479064941 L 2.685238838195801 2.553864479064941 L 3.515028715133667 4.291534423828125e-06 Z" stroke="none" fill="#fff"/>
      </g>
      <g id="Trazado_229-9" data-name="Trazado 229" transform="translate(59.24 65.043)" fill="none">
        <path d="M3.515,0l.83,2.554H7.03L4.858,4.132l.83,2.554L3.515,5.108,1.343,6.686l.83-2.554L0,2.554H2.685Z" stroke="none"/>
        <path d="M 3.515028715133667 3.236115455627441 L 3.411788702011108 3.553864240646362 L 3.077620029449463 3.553864240646362 L 3.347948789596558 3.750274181365967 L 3.244701623916626 4.068045616149902 L 3.515028715133667 3.871634244918823 L 3.785355806350708 4.068045616149902 L 3.682108640670776 3.750274181365967 L 3.952437400817871 3.553864240646362 L 3.618268728256226 3.553864240646362 L 3.515028715133667 3.236115455627441 M 3.515028715133667 4.291534423828125e-06 L 4.344819068908691 2.553864479064941 L 7.030058860778809 2.553864479064941 L 4.857668876647949 4.132234573364258 L 5.68742847442627 6.686084270477295 L 3.515028715133667 5.107714176177979 L 1.342628479003906 6.686084270477295 L 2.172388553619385 4.132234573364258 L -1.430511474609375e-06 2.553864479064941 L 2.685238838195801 2.553864479064941 L 3.515028715133667 4.291534423828125e-06 Z" stroke="none" fill="#fff"/>
      </g>
      <g id="Trazado_229-10" data-name="Trazado 229" transform="translate(67.233 65.043)" fill="none">
        <path d="M3.515,0l.83,2.554H7.03L4.858,4.132l.83,2.554L3.515,5.108,1.343,6.686l.83-2.554L0,2.554H2.685Z" stroke="none"/>
        <path d="M 3.515028715133667 3.236115455627441 L 3.411788702011108 3.553864240646362 L 3.077620029449463 3.553864240646362 L 3.347948789596558 3.750274181365967 L 3.244701623916626 4.068045616149902 L 3.515028715133667 3.871634244918823 L 3.785355806350708 4.068045616149902 L 3.682108640670776 3.750274181365967 L 3.952437400817871 3.553864240646362 L 3.618268728256226 3.553864240646362 L 3.515028715133667 3.236115455627441 M 3.515028715133667 4.291534423828125e-06 L 4.344819068908691 2.553864479064941 L 7.030058860778809 2.553864479064941 L 4.857668876647949 4.132234573364258 L 5.68742847442627 6.686084270477295 L 3.515028715133667 5.107714176177979 L 1.342628479003906 6.686084270477295 L 2.172388553619385 4.132234573364258 L -1.430511474609375e-06 2.553864479064941 L 2.685238838195801 2.553864479064941 L 3.515028715133667 4.291534423828125e-06 Z" stroke="none" fill="#fff"/>
      </g>
      <g id="Trazado_595" data-name="Trazado 595" transform="translate(35.29 40.68)" fill="none">
        <path d="M2.186,0H36.72a2.186,2.186,0,0,1,2.186,2.186V17.049a2.186,2.186,0,0,1-2.186,2.186H2.186A2.186,2.186,0,0,1,0,17.049V2.186A2.186,2.186,0,0,1,2.186,0Z" stroke="none"/>
        <path d="M 2.185745239257812 1 C 1.531925201416016 1 0.9999961853027344 1.531919479370117 0.9999961853027344 2.185739517211914 L 0.9999961853027344 17.04878044128418 C 0.9999961853027344 17.70260047912598 1.531925201416016 18.23451995849609 2.185745239257812 18.23451995849609 L 36.72044372558594 18.23451995849609 C 37.37426376342773 18.23451995849609 37.90618515014648 17.70260047912598 37.90618515014648 17.04878044128418 L 37.90618515014648 2.185739517211914 C 37.90618515014648 1.531919479370117 37.37426376342773 1 36.72044372558594 1 L 2.185745239257812 1 M 2.185745239257812 0 L 36.72044372558594 0 C 37.92759323120117 0 38.90618515014648 0.9785900115966797 38.90618515014648 2.185739517211914 L 38.90618515014648 17.04878044128418 C 38.90618515014648 18.25592994689941 37.92759323120117 19.23451995849609 36.72044372558594 19.23451995849609 L 2.185745239257812 19.23451995849609 C 0.9785842895507812 19.23451995849609 -3.814697265625e-06 18.25592994689941 -3.814697265625e-06 17.04878044128418 L -3.814697265625e-06 2.185739517211914 C -3.814697265625e-06 0.9785900115966797 0.9785842895507812 0 2.185745239257812 0 Z" stroke="none" fill="#fff"/>
      </g>
    </g>
  </g>
</svg>
