<svg xmlns="http://www.w3.org/2000/svg" width="419" height="201" viewBox="0 0 419 201">
  <g id="Grupo_781" data-name="Grupo 781" transform="translate(-1371 -1576)">
    <circle id="Elipse_260" data-name="Elipse 260" cx="29" cy="29" r="29" transform="translate(1572 1576)" fill="#90b0b9"/>
    <circle id="Elipse_264" data-name="Elipse 264" cx="29" cy="29" r="29" transform="translate(1528 1576)" fill="#ac90b9"/>
    <circle id="Elipse_261" data-name="Elipse 261" cx="29" cy="29" r="29" transform="translate(1510 1611)" fill="#ffacdf"/>
    <circle id="Elipse_262" data-name="Elipse 262" cx="29" cy="29" r="29" transform="translate(1596 1608)" fill="#6ba563"/>
    <circle id="Elipse_263" data-name="Elipse 263" cx="29" cy="29" r="29" transform="translate(1550 1605)" fill="#ffc400"/>
    <g id="Grupo_779" data-name="Grupo 779" transform="translate(-2 -36)">
      <path id="Trazado_485" data-name="Trazado 485" d="M156.147,84A78.073,78.073,0,1,1,0,84Z" transform="translate(1506 1594)" fill="#ebecee"/>
      <path id="Trazado_486" data-name="Trazado 486" d="M50.018,109.009a25.009,25.009,0,1,0-50.018,0Z" transform="translate(1558.978 1659.991)" fill="#ebecee"/>
    </g>
    <rect id="Rectángulo_5105" data-name="Rectángulo 5105" width="259" height="9" rx="4.5" transform="translate(1531 1746)" fill="#ebecee"/>
    <rect id="Rectángulo_5106" data-name="Rectángulo 5106" width="259" height="9" rx="4.5" transform="translate(1375 1768)" fill="#ebecee"/>
    <rect id="Rectángulo_5107" data-name="Rectángulo 5107" width="137" height="9" rx="4.5" transform="translate(1371 1708)" fill="#ebecee"/>
  </g>
</svg>
