<svg xmlns="http://www.w3.org/2000/svg" width="451.668" height="295.861" viewBox="0 0 451.668 295.861">
  <g id="Grupo_778" data-name="Grupo 778" transform="translate(-248.332 -1575.139)">
    <g id="Grupo_771" data-name="Grupo 771" transform="matrix(0.951, 0.309, -0.309, 0.951, 531.528, -45.208)">
      <rect id="Rectángulo_3974" data-name="Rectángulo 3974" width="118.997" height="209.434" rx="22" transform="translate(296 1618)" fill="#ebecee"/>
      <rect id="Rectángulo_3975" data-name="Rectángulo 3975" width="103.765" height="192.299" rx="13" transform="translate(303.616 1626.568)" fill="#fff"/>
      <path id="Rectángulo_3976" data-name="Rectángulo 3976" d="M0,0H71.4a0,0,0,0,1,0,0V1.424a10,10,0,0,1-10,10H10a10,10,0,0,1-10-10V0A0,0,0,0,1,0,0Z" transform="translate(320.751 1625.616)" fill="#ebecee"/>
      <rect id="Rectángulo_3977" data-name="Rectángulo 3977" width="26.655" height="2.856" rx="1.428" transform="translate(336.935 1625.616)" fill="#fff"/>
      <circle id="Elipse_256" data-name="Elipse 256" cx="3.808" cy="3.808" r="3.808" transform="translate(372.158 1622.76)" fill="#fff"/>
      <g id="Grupo_769" data-name="Grupo 769" transform="translate(314.088 1674.167)">
        <g id="Grupo_766" data-name="Grupo 766">
          <rect id="Rectángulo_5068" data-name="Rectángulo 5068" width="28.559" height="28.559" fill="#75c2d4"/>
          <rect id="Rectángulo_5069" data-name="Rectángulo 5069" width="19.039" height="19.039" transform="translate(4.76 4.76)" fill="#fff"/>
          <rect id="Rectángulo_5070" data-name="Rectángulo 5070" width="9.52" height="9.52" transform="translate(9.52 9.52)" fill="#75c2d4"/>
        </g>
        <g id="Grupo_767" data-name="Grupo 767" transform="translate(0 57.118)">
          <rect id="Rectángulo_5068-2" data-name="Rectángulo 5068" width="28.559" height="28.559" fill="#75c2d4"/>
          <rect id="Rectángulo_5069-2" data-name="Rectángulo 5069" width="19.039" height="19.039" transform="translate(4.76 4.76)" fill="#fff"/>
          <rect id="Rectángulo_5070-2" data-name="Rectángulo 5070" width="9.52" height="9.52" transform="translate(9.52 9.52)" fill="#75c2d4"/>
        </g>
        <g id="Grupo_768" data-name="Grupo 768" transform="translate(57.118)">
          <rect id="Rectángulo_5068-3" data-name="Rectángulo 5068" width="28.559" height="28.559" fill="#75c2d4"/>
          <rect id="Rectángulo_5069-3" data-name="Rectángulo 5069" width="19.039" height="19.039" transform="translate(4.76 4.76)" fill="#fff"/>
          <rect id="Rectángulo_5070-3" data-name="Rectángulo 5070" width="9.52" height="9.52" transform="translate(9.52 9.52)" fill="#75c2d4"/>
        </g>
        <rect id="Rectángulo_5072" data-name="Rectángulo 5072" width="9.52" height="9.52" transform="translate(28.559 38.079)" fill="#75c2d4"/>
        <rect id="Rectángulo_5073" data-name="Rectángulo 5073" width="9.52" height="9.52" transform="translate(38.079 19.039)" fill="#75c2d4"/>
        <rect id="Rectángulo_5074" data-name="Rectángulo 5074" width="9.52" height="9.52" transform="translate(57.118 38.079)" fill="#75c2d4"/>
        <rect id="Rectángulo_5075" data-name="Rectángulo 5075" width="9.52" height="9.52" transform="translate(47.599 38.079)" fill="#75c2d4"/>
        <rect id="Rectángulo_5076" data-name="Rectángulo 5076" width="9.52" height="9.52" transform="translate(38.079 47.599)" fill="#75c2d4"/>
        <rect id="Rectángulo_5077" data-name="Rectángulo 5077" width="9.52" height="9.52" transform="translate(57.118 47.599)" fill="#75c2d4"/>
        <rect id="Rectángulo_5078" data-name="Rectángulo 5078" width="9.52" height="9.52" transform="translate(38.079 76.158)" fill="#75c2d4"/>
        <rect id="Rectángulo_5079" data-name="Rectángulo 5079" width="9.52" height="9.52" transform="translate(47.599 66.638)" fill="#75c2d4"/>
        <rect id="Rectángulo_5080" data-name="Rectángulo 5080" width="9.52" height="9.52" transform="translate(57.118 76.158)" fill="#75c2d4"/>
        <rect id="Rectángulo_5081" data-name="Rectángulo 5081" width="9.52" height="9.52" transform="translate(66.638 76.158)" fill="#75c2d4"/>
        <rect id="Rectángulo_5082" data-name="Rectángulo 5082" width="9.52" height="9.52" transform="translate(76.158 65.686)" fill="#75c2d4"/>
        <rect id="Rectángulo_5083" data-name="Rectángulo 5083" width="9.52" height="9.52" transform="translate(66.638 57.118)" fill="#75c2d4"/>
        <rect id="Rectángulo_5084" data-name="Rectángulo 5084" width="9.52" height="9.52" transform="translate(76.158 47.599)" fill="#75c2d4"/>
        <rect id="Rectángulo_5085" data-name="Rectángulo 5085" width="9.52" height="9.52" transform="translate(66.638 47.599)" fill="#75c2d4"/>
        <rect id="Rectángulo_5086" data-name="Rectángulo 5086" width="9.52" height="9.52" transform="translate(19.039 38.079)" fill="#75c2d4"/>
        <rect id="Rectángulo_5087" data-name="Rectángulo 5087" width="9.52" height="9.52" transform="translate(0 38.079)" fill="#75c2d4"/>
        <rect id="Rectángulo_5088" data-name="Rectángulo 5088" width="9.52" height="9.52" transform="translate(76.158 38.079)" fill="#75c2d4"/>
        <rect id="Rectángulo_5089" data-name="Rectángulo 5089" width="9.52" height="9.52" transform="translate(38.079 9.52)" fill="#75c2d4"/>
        <rect id="Rectángulo_5090" data-name="Rectángulo 5090" width="9.52" height="9.52" transform="translate(38.079 66.638)" fill="#75c2d4"/>
      </g>
    </g>
    <g id="Grupo_774" data-name="Grupo 774" transform="translate(14 24)">
      <g id="Grupo_772" data-name="Grupo 772" transform="translate(-0.925 80.507)">
        <rect id="Rectángulo_5091" data-name="Rectángulo 5091" width="102" height="107" transform="translate(498.925 1562.493)" fill="#90b0b9"/>
        <rect id="Rectángulo_5092" data-name="Rectángulo 5092" width="86" height="92" transform="translate(506.925 1570.493)" fill="#fff"/>
      </g>
      <path id="Rectángulo_5093" data-name="Rectángulo 5093" d="M22,0h83a22,22,0,0,1,22,22v0a0,0,0,0,1,0,0H0a0,0,0,0,1,0,0v0A22,22,0,0,1,22,0Z" transform="translate(485 1743)" fill="#90b0b9"/>
      <g id="Grupo_773" data-name="Grupo 773" transform="translate(204.5 -9.5)">
        <g id="Grupo_766-2" data-name="Grupo 766" transform="translate(315 1677)">
          <rect id="Rectángulo_5068-4" data-name="Rectángulo 5068" width="19" height="19" transform="translate(0.5 0.5)" fill="#75c2d4"/>
          <rect id="Rectángulo_5069-4" data-name="Rectángulo 5069" width="12" height="12" transform="translate(3.5 3.5)" fill="#fff"/>
          <rect id="Rectángulo_5070-4" data-name="Rectángulo 5070" width="6" height="6" transform="translate(6.5 6.5)" fill="#75c2d4"/>
        </g>
        <g id="Grupo_767-2" data-name="Grupo 767" transform="translate(315 1715)">
          <rect id="Rectángulo_5068-5" data-name="Rectángulo 5068" width="19" height="19" transform="translate(0.5 0.5)" fill="#75c2d4"/>
          <rect id="Rectángulo_5069-5" data-name="Rectángulo 5069" width="12" height="12" transform="translate(3.5 3.5)" fill="#fff"/>
          <rect id="Rectángulo_5070-5" data-name="Rectángulo 5070" width="6" height="6" transform="translate(6.5 6.5)" fill="#75c2d4"/>
        </g>
        <g id="Grupo_768-2" data-name="Grupo 768" transform="translate(353 1677)">
          <rect id="Rectángulo_5068-6" data-name="Rectángulo 5068" width="19" height="19" transform="translate(0.5 0.5)" fill="#75c2d4"/>
          <rect id="Rectángulo_5069-6" data-name="Rectángulo 5069" width="12" height="12" transform="translate(3.5 3.5)" fill="#fff"/>
          <rect id="Rectángulo_5070-6" data-name="Rectángulo 5070" width="6" height="6" transform="translate(6.5 6.5)" fill="#75c2d4"/>
        </g>
        <rect id="Rectángulo_5072-2" data-name="Rectángulo 5072" width="6" height="6" transform="translate(334.5 1702.5)" fill="#75c2d4"/>
        <rect id="Rectángulo_5073-2" data-name="Rectángulo 5073" width="6" height="7" transform="translate(340.5 1689.5)" fill="#75c2d4"/>
        <rect id="Rectángulo_5074-2" data-name="Rectángulo 5074" width="6" height="6" transform="translate(353.5 1702.5)" fill="#75c2d4"/>
        <rect id="Rectángulo_5075-2" data-name="Rectángulo 5075" width="7" height="6" transform="translate(346.5 1702.5)" fill="#75c2d4"/>
        <rect id="Rectángulo_5076-2" data-name="Rectángulo 5076" width="6" height="7" transform="translate(340.5 1708.5)" fill="#75c2d4"/>
        <rect id="Rectángulo_5077-2" data-name="Rectángulo 5077" width="6" height="7" transform="translate(353.5 1708.5)" fill="#75c2d4"/>
        <rect id="Rectángulo_5078-2" data-name="Rectángulo 5078" width="6" height="7" transform="translate(340.5 1727.5)" fill="#75c2d4"/>
        <rect id="Rectángulo_5079-2" data-name="Rectángulo 5079" width="7" height="6" transform="translate(346.5 1721.5)" fill="#75c2d4"/>
        <rect id="Rectángulo_5080-2" data-name="Rectángulo 5080" width="6" height="7" transform="translate(353.5 1727.5)" fill="#75c2d4"/>
        <rect id="Rectángulo_5081-2" data-name="Rectángulo 5081" width="6" height="7" transform="translate(359.5 1727.5)" fill="#75c2d4"/>
        <rect id="Rectángulo_5082-2" data-name="Rectángulo 5082" width="7" height="7" transform="translate(365.5 1720.5)" fill="#75c2d4"/>
        <rect id="Rectángulo_5083-2" data-name="Rectángulo 5083" width="6" height="6" transform="translate(359.5 1715.5)" fill="#75c2d4"/>
        <rect id="Rectángulo_5084-2" data-name="Rectángulo 5084" width="7" height="7" transform="translate(365.5 1708.5)" fill="#75c2d4"/>
        <rect id="Rectángulo_5085-2" data-name="Rectángulo 5085" width="6" height="7" transform="translate(359.5 1708.5)" fill="#75c2d4"/>
        <rect id="Rectángulo_5086-2" data-name="Rectángulo 5086" width="7" height="6" transform="translate(327.5 1702.5)" fill="#75c2d4"/>
        <rect id="Rectángulo_5087-2" data-name="Rectángulo 5087" width="6" height="6" transform="translate(315.5 1702.5)" fill="#75c2d4"/>
        <rect id="Rectángulo_5088-2" data-name="Rectángulo 5088" width="7" height="6" transform="translate(365.5 1702.5)" fill="#75c2d4"/>
        <rect id="Rectángulo_5089-2" data-name="Rectángulo 5089" width="6" height="6" transform="translate(340.5 1683.5)" fill="#75c2d4"/>
        <rect id="Rectángulo_5090-2" data-name="Rectángulo 5090" width="6" height="6" transform="translate(340.5 1721.5)" fill="#75c2d4"/>
      </g>
    </g>
    <rect id="Rectángulo_5094" data-name="Rectángulo 5094" width="48" height="10" rx="5" transform="matrix(0.809, 0.588, -0.588, 0.809, 437.523, 1666.848)" fill="#ffc400"/>
    <rect id="Rectángulo_5095" data-name="Rectángulo 5095" width="48" height="10" rx="5" transform="translate(444.788 1647.113) rotate(7)" fill="#ffc400"/>
    <rect id="Rectángulo_5096" data-name="Rectángulo 5096" width="48" height="10" rx="5" transform="translate(440.63 1625.661) rotate(-18)" fill="#ffc400"/>
    <rect id="Rectángulo_5097" data-name="Rectángulo 5097" width="48" height="10" rx="5" transform="matrix(0.819, -0.574, 0.574, 0.819, 422.472, 1602.671)" fill="#ffc400"/>
    <rect id="Rectángulo_5098" data-name="Rectángulo 5098" width="259" height="9" rx="4.5" transform="translate(403 1806)" fill="#ebecee"/>
    <rect id="Rectángulo_5099" data-name="Rectángulo 5099" width="278" height="9" rx="4.5" transform="translate(422 1862)" fill="#ebecee"/>
    <rect id="Rectángulo_5100" data-name="Rectángulo 5100" width="259" height="9" rx="4.5" transform="translate(274 1834)" fill="#ebecee"/>
  </g>
</svg>
