<svg xmlns="http://www.w3.org/2000/svg" width="166.521" height="232.713" viewBox="0 0 166.521 232.713">
  <g id="Grupo_780" data-name="Grupo 780" transform="translate(-931.779 -1552.053)">
    <g id="Grupo_777" data-name="Grupo 777" transform="translate(-103 -17)">
      <g id="Grupo_775" data-name="Grupo 775" transform="translate(738.779 -25.669)">
        <rect id="Rectángulo_3974" data-name="Rectángulo 3974" width="118.997" height="209.434" rx="22" transform="translate(296 1618)" fill="#ebecee"/>
        <rect id="Rectángulo_3975" data-name="Rectángulo 3975" width="103.765" height="192.299" rx="13" transform="translate(303.616 1626.568)" fill="#f2fcfe"/>
        <path id="Rectángulo_3976" data-name="Rectángulo 3976" d="M0,0H71.4a0,0,0,0,1,0,0V1.424a10,10,0,0,1-10,10H10a10,10,0,0,1-10-10V0A0,0,0,0,1,0,0Z" transform="translate(320.751 1625.616)" fill="#ebecee"/>
        <rect id="Rectángulo_3977" data-name="Rectángulo 3977" width="26.655" height="2.856" rx="1.428" transform="translate(336.935 1625.616)" fill="#fff"/>
        <circle id="Elipse_256" data-name="Elipse 256" cx="3.808" cy="3.808" r="3.808" transform="translate(372.158 1622.76)" fill="#fff"/>
      </g>
      <g id="Grupo_776" data-name="Grupo 776" transform="translate(899.146 19.146)">
        <circle id="Elipse_255" data-name="Elipse 255" cx="30.5" cy="30.5" r="30.5" transform="translate(164.854 1619.854)" fill="#90b0b9"/>
      </g>
      <path id="Trazado_484" data-name="Trazado 484" d="M-11013.271,7736.108l10.085,12.174,21.791-26.047" transform="translate(12092 -6065.735)" fill="none" stroke="#fff" stroke-width="6"/>
      <rect id="Rectángulo_5101" data-name="Rectángulo 5101" width="84" height="9" rx="4.5" transform="translate(1053 1719)" fill="#ebecee"/>
      <rect id="Rectángulo_5102" data-name="Rectángulo 5102" width="84" height="9" rx="4.5" transform="translate(1053 1733)" fill="#ebecee"/>
      <rect id="Rectángulo_5103" data-name="Rectángulo 5103" width="84" height="9" rx="4.5" transform="translate(1053 1747)" fill="#ebecee"/>
      <rect id="Rectángulo_5104" data-name="Rectángulo 5104" width="84" height="9" rx="4.5" transform="translate(1053 1761)" fill="#ebecee"/>
    </g>
    <path id="Trazado_487" data-name="Trazado 487" d="M12.942-50.947l-.755,15.353,13.088-5.537,2.894,8.557-13.591,3.9,9.564,11.955-7.3,5.285L8.412-24.395-.02-11.433l-7.3-5.285L2.245-28.673l-13.591-3.9,2.894-8.557L4.636-35.594,3.881-50.947Z" transform="matrix(0.951, 0.309, -0.309, 0.951, 1003.313, 1633.302)" fill="#ffacdf"/>
    <path id="Trazado_488" data-name="Trazado 488" d="M25.1-50.947,23.966-27.909l19.639-8.309,4.343,12.841L27.554-17.524,41.906.416,30.953,8.347,18.3-11.1,5.649,8.347-5.3.416,9.048-17.524l-20.394-5.854L-7-36.218l19.639,8.309L11.5-50.947Z" transform="translate(1050.389 1656.975) rotate(-20)" fill="#ffc400"/>
    <path id="Trazado_489" data-name="Trazado 489" d="M15.925-50.947l-.848,17.239,14.7-6.217,3.25,9.608-15.26,4.38L28.5-12.514l-8.2,5.935L10.838-21.133,1.371-6.579l-8.2-5.935L3.915-25.937l-15.26-4.38,3.25-9.608L6.6-33.709,5.752-50.947Z" transform="translate(1049 1603)" fill="#75c2d4"/>
  </g>
</svg>
