<?xml version="1.0" standalone="no"?>
<!DOCTYPE svg PUBLIC "-//W3C//DTD SVG 20010904//EN"
 "http://www.w3.org/TR/2001/REC-SVG-20010904/DTD/svg10.dtd">
<svg version="1.0" xmlns="http://www.w3.org/2000/svg"
 width="984.000000pt" height="984.000000pt" viewBox="0 0 984.000000 984.000000"
 preserveAspectRatio="xMidYMid meet">
<metadata>
Created by potrace 1.11, written by Peter Selinger 2001-2013
</metadata>
<g transform="translate(0.000000,984.000000) scale(0.100000,-0.100000)"
fill="#000000" stroke="none">
<path d="M2668 9835 c-2 -1 -34 -5 -73 -9 -69 -6 -97 -10 -165 -21 -19 -3 -44
-7 -55 -9 -11 -2 -20 -4 -20 -5 0 -1 -13 -4 -30 -7 -36 -5 -69 -12 -72 -14 -2
-2 -6 -3 -10 -4 -72 -16 -120 -31 -130 -39 -7 -5 -13 -7 -13 -4 0 21 -385
-142 -439 -187 -8 -6 -17 -10 -20 -9 -6 1 -173 -96 -181 -107 -3 -3 -21 -16
-40 -28 -20 -11 -46 -29 -57 -39 -12 -10 -37 -29 -55 -43 -18 -14 -40 -33 -50
-42 -10 -10 -20 -18 -23 -18 -5 0 -104 -91 -164 -151 -98 -99 -208 -232 -281
-340 -24 -35 -47 -65 -52 -67 -4 -2 -8 -8 -8 -13 0 -6 -22 -47 -48 -92 -40
-68 -113 -209 -117 -227 -2 -7 -14 -36 -41 -97 -13 -29 -20 -53 -17 -53 3 0 1
-6 -4 -12 -9 -12 -54 -146 -55 -165 0 -5 -4 -18 -9 -31 -9 -22 -18 -59 -24
-97 -2 -11 -4 -20 -5 -20 -2 0 -4 -9 -6 -20 -1 -11 -6 -33 -9 -50 -4 -16 -8
-39 -10 -50 -1 -11 -5 -40 -9 -65 -16 -104 -18 -134 -21 -320 -2 -107 0 -216
4 -242 5 -30 4 -48 -2 -48 -6 0 -6 -5 1 -12 5 -7 13 -35 16 -63 4 -27 9 -66
12 -85 3 -19 6 -45 7 -57 0 -13 4 -23 7 -23 3 0 7 -12 8 -27 4 -49 65 -267 91
-328 5 -11 21 -51 35 -88 26 -68 115 -257 126 -267 3 -3 16 -25 29 -50 22 -41
129 -203 158 -240 105 -133 154 -189 239 -274 179 -179 402 -340 630 -455 101
-51 254 -117 289 -126 6 -1 23 -7 38 -13 16 -7 33 -12 38 -12 15 0 11 -9 -34
-68 -80 -106 -217 -332 -217 -359 0 -7 -4 -13 -10 -13 -5 0 -10 -4 -10 -9 0
-10 -52 -130 -71 -164 -5 -10 -7 -22 -4 -27 4 -6 1 -10 -4 -10 -6 0 -11 -10
-11 -23 0 -13 -5 -28 -12 -35 -7 -7 -9 -12 -5 -12 4 0 1 -13 -8 -30 -9 -16
-13 -30 -9 -30 4 0 2 -6 -3 -12 -5 -7 -15 -40 -22 -73 -7 -33 -16 -67 -18 -75
-3 -8 -7 -22 -8 -30 -1 -13 -10 -57 -21 -110 -19 -84 -30 -655 -13 -665 4 -3
4 -16 -1 -29 -5 -13 -7 -26 -5 -28 2 -2 6 -41 10 -88 7 -90 12 -142 20 -200 3
-19 7 -53 10 -75 3 -22 7 -51 10 -65 3 -14 7 -40 10 -59 2 -18 7 -41 9 -50 3
-9 7 -27 10 -41 8 -42 13 -63 31 -125 9 -33 20 -73 24 -90 5 -16 20 -58 34
-92 14 -35 23 -63 21 -63 -3 0 2 -12 10 -28 8 -15 34 -65 57 -112 44 -90 124
-220 143 -232 6 -4 7 -8 3 -8 -5 0 -2 -6 5 -13 7 -8 24 -28 38 -47 36 -47 206
-219 265 -267 127 -103 339 -228 500 -295 143 -60 424 -153 517 -172 7 -2 31
-6 53 -11 22 -4 44 -10 49 -13 6 -3 19 -7 30 -8 12 -1 68 -11 126 -22 58 -11
125 -23 150 -26 25 -3 56 -8 70 -11 14 -3 50 -8 80 -11 30 -3 66 -7 80 -9 121
-14 232 -25 310 -30 135 -9 309 -17 415 -19 l110 -2 1 -235 c0 -128 3 -245 7
-259 4 -13 9 -42 13 -64 7 -49 30 -119 55 -166 39 -76 94 -115 199 -141 83
-20 453 -17 570 5 37 7 122 18 148 19 12 1 22 3 22 7 0 3 12 5 28 6 15 0 41 4
57 7 17 3 44 9 60 12 101 19 161 32 198 41 12 3 36 7 52 10 17 3 37 8 45 11 8
3 22 7 30 8 8 1 60 14 115 29 55 15 108 29 118 31 69 15 444 138 490 162 16 8
37 16 46 18 10 2 37 12 62 23 103 47 160 71 164 71 3 0 11 5 18 11 6 6 43 29
80 51 138 82 178 131 178 217 -1 88 -20 163 -72 287 -7 17 -13 32 -13 35 -2 9
-81 165 -86 170 -3 3 -16 25 -29 49 -16 30 -21 46 -13 49 15 5 205 131 212
141 3 4 27 25 55 46 98 79 253 248 311 340 10 17 21 32 24 35 23 21 140 250
167 325 55 159 82 248 78 256 -4 5 -2 9 3 9 5 0 9 6 10 13 0 6 3 21 5 32 12
48 17 72 21 98 3 15 10 55 16 90 7 34 13 76 15 92 2 17 7 48 10 70 17 113 29
364 29 600 -1 236 -9 352 -31 445 -3 14 -7 38 -9 54 -2 16 -9 43 -14 60 -6 17
-15 51 -22 76 -6 25 -12 47 -13 50 -1 3 -5 19 -10 35 -5 17 -21 60 -36 98 -15
37 -26 67 -24 67 3 0 -15 39 -89 190 -48 99 -190 321 -242 381 -8 8 -14 18
-14 22 0 3 26 14 58 24 31 9 59 20 62 23 3 3 11 6 18 8 29 6 202 88 307 147
73 40 262 166 311 206 133 112 320 289 305 289 -3 0 3 8 15 18 17 14 76 84
137 162 33 42 137 200 137 207 0 5 9 19 20 31 12 12 18 22 15 22 -3 0 5 17 18
37 30 50 59 112 132 278 10 25 35 95 40 115 1 3 5 12 8 20 8 19 55 184 62 216
14 65 23 118 31 164 3 19 7 46 9 60 14 81 20 186 19 350 0 172 -4 244 -20 345
-3 22 -7 49 -9 60 -1 11 -3 20 -4 20 -1 0 -4 14 -6 30 -7 53 -13 78 -33 155
-11 41 -18 78 -15 83 2 4 0 7 -5 7 -8 0 -20 32 -27 75 -1 6 -7 23 -13 38 -7
16 -12 32 -12 36 0 4 -9 26 -20 49 -11 22 -20 45 -20 50 0 5 -18 46 -40 91
-22 45 -40 86 -40 91 0 6 -5 10 -10 10 -6 0 -9 3 -8 8 2 7 -21 52 -67 127 -13
22 -27 47 -31 55 -4 8 -10 17 -14 20 -3 3 -17 23 -30 45 -13 22 -26 42 -30 45
-3 3 -28 35 -57 73 -98 129 -236 276 -347 369 -22 18 -51 43 -64 56 -14 12
-28 22 -31 22 -3 0 -17 10 -31 23 -22 20 -114 86 -158 112 -9 6 -28 17 -42 26
-55 36 -205 115 -290 152 -54 24 -170 71 -180 73 -3 0 -12 3 -20 6 -43 17 -56
21 -65 23 -5 2 -41 12 -80 23 -63 18 -133 35 -205 48 -14 3 -36 7 -50 10 -26
5 -39 7 -155 20 -91 10 -430 11 -520 1 -76 -9 -84 -10 -217 -32 -50 -9 -195
-44 -223 -55 -14 -5 -36 -12 -48 -14 -19 -3 -42 -11 -122 -42 -11 -4 -22 -8
-25 -9 -7 -2 -61 -24 -80 -32 -8 -3 -18 -5 -22 -5 -5 1 -8 -3 -8 -8 0 -6 -6
-10 -14 -10 -22 0 -265 -128 -297 -156 -8 -8 -18 -14 -22 -14 -8 0 -131 -85
-173 -119 -18 -14 -41 -33 -52 -41 -80 -61 -240 -214 -322 -310 -25 -29 -52
-61 -61 -70 -9 -9 -31 -39 -50 -66 -18 -27 -37 -53 -41 -59 -4 -5 -16 -21 -26
-34 l-18 -24 -39 54 c-21 30 -42 56 -47 57 -4 2 -8 8 -8 14 0 31 -269 315
-396 418 -47 38 -150 116 -165 125 -9 6 -59 37 -111 69 -93 59 -337 186 -357
186 -6 0 -30 9 -54 20 -75 35 -311 105 -385 115 -15 2 -27 4 -27 5 0 4 -127
25 -220 36 -52 6 -441 14 -447 9z"/>
</g>
</svg>
